<ttFont>
    <TTGlyph name="A" xMin="61" yMin="0" xMax="690" yMax="500">
      <contour>
        <pt x="690" y="8" on="1"/>
        <pt x="690" y="0" on="1"/>
        <pt x="458" y="0" on="1"/>
        <pt x="454" y="55" on="0"/>
        <pt x="441" y="118" on="1"/>
        <pt x="371" y="48" on="0"/>
        <pt x="301" y="0" on="1"/>
        <pt x="68" y="0" on="1"/>
        <pt x="61" y="41" on="0"/>
        <pt x="61" y="176" on="0"/>
        <pt x="81" y="244" on="1"/>
        <pt x="153" y="265" on="0"/>
        <pt x="286" y="365" on="0"/>
        <pt x="316" y="423" on="1"/>
        <pt x="288" y="467" on="0"/>
        <pt x="259" y="500" on="1"/>
        <pt x="591" y="500" on="1"/>
        <pt x="690" y="283" on="0"/>
      </contour>
      <contour>
        <pt x="423" y="191" on="1"/>
        <pt x="398" y="277" on="0"/>
        <pt x="355" y="359" on="1"/>
        <pt x="308" y="221" on="0"/>
        <pt x="301" y="98" on="1"/>
        <pt x="375" y="138" on="0"/>
      </contour>
    </TTGlyph>
    <TTGlyph name="AE" xMin="41" yMin="0" xMax="971" yMax="500">
      <contour>
        <pt x="777" y="298" on="1"/>
        <pt x="869" y="292" on="1"/>
        <pt x="872" y="292" on="0"/>
        <pt x="883" y="293" on="0"/>
        <pt x="886" y="293" on="1"/>
        <pt x="839" y="206" on="1"/>
        <pt x="829" y="206" on="1"/>
        <pt x="810" y="206" on="0"/>
        <pt x="741" y="226" on="0"/>
        <pt x="726" y="226" on="1"/>
        <pt x="684" y="226" on="0"/>
        <pt x="661" y="173" on="1"/>
        <pt x="657" y="126" on="0"/>
        <pt x="655" y="76" on="1"/>
        <pt x="707" y="66" on="0"/>
        <pt x="736" y="66" on="1"/>
        <pt x="745" y="66" on="1"/>
        <pt x="788" y="66" on="0"/>
        <pt x="839" y="104" on="0"/>
        <pt x="850" y="153" on="1"/>
        <pt x="971" y="148" on="1"/>
        <pt x="956" y="62" on="0"/>
        <pt x="931" y="0" on="1"/>
        <pt x="437" y="0" on="1"/>
        <pt x="430" y="69" on="0"/>
        <pt x="420" y="118" on="1"/>
        <pt x="355" y="52" on="0"/>
        <pt x="280" y="0" on="1"/>
        <pt x="48" y="0" on="1"/>
        <pt x="41" y="42" on="0"/>
        <pt x="41" y="181" on="0"/>
        <pt x="60" y="244" on="1"/>
        <pt x="133" y="265" on="0"/>
        <pt x="267" y="365" on="0"/>
        <pt x="296" y="423" on="1"/>
        <pt x="265" y="468" on="0"/>
        <pt x="238" y="500" on="1"/>
        <pt x="970" y="500" on="1"/>
        <pt x="953" y="399" on="0"/>
        <pt x="937" y="348" on="1"/>
        <pt x="829" y="343" on="1"/>
        <pt x="838" y="370" on="0"/>
        <pt x="838" y="387" on="1"/>
        <pt x="838" y="434" on="0"/>
        <pt x="765" y="434" on="1"/>
        <pt x="734" y="434" on="0"/>
        <pt x="706" y="429" on="1"/>
        <pt x="683" y="334" on="0"/>
        <pt x="672" y="261" on="1"/>
        <pt x="712" y="298" on="0"/>
        <pt x="771" y="298" on="1"/>
      </contour>
      <contour>
        <pt x="402" y="191" on="1"/>
        <pt x="376" y="283" on="0"/>
        <pt x="335" y="358" on="1"/>
        <pt x="289" y="223" on="0"/>
        <pt x="280" y="98" on="1"/>
        <pt x="352" y="135" on="0"/>
      </contour>
    </TTGlyph>
    <TTGlyph name="Aacute" xMin="61" yMin="0" xMax="690" yMax="680">
      <contour>
        <pt x="690" y="8" on="1"/>
        <pt x="690" y="0" on="1"/>
        <pt x="458" y="0" on="1"/>
        <pt x="454" y="57" on="0"/>
        <pt x="441" y="118" on="1"/>
        <pt x="379" y="55" on="0"/>
        <pt x="301" y="0" on="1"/>
        <pt x="68" y="0" on="1"/>
        <pt x="61" y="41" on="0"/>
        <pt x="61" y="176" on="0"/>
        <pt x="81" y="244" on="1"/>
        <pt x="153" y="265" on="0"/>
        <pt x="286" y="365" on="0"/>
        <pt x="316" y="423" on="1"/>
        <pt x="289" y="465" on="0"/>
        <pt x="259" y="500" on="1"/>
        <pt x="591" y="500" on="1"/>
        <pt x="690" y="285" on="0"/>
      </contour>
      <contour>
        <pt x="423" y="191" on="1"/>
        <pt x="397" y="280" on="0"/>
        <pt x="355" y="359" on="1"/>
        <pt x="308" y="221" on="0"/>
        <pt x="301" y="98" on="1"/>
        <pt x="373" y="135" on="0"/>
      </contour>
      <contour>
        <pt x="379" y="680" on="1"/>
        <pt x="490" y="666" on="1"/>
        <pt x="476" y="639" on="0"/>
        <pt x="425" y="593" on="0"/>
        <pt x="379" y="567" on="0"/>
        <pt x="342" y="550" on="1"/>
        <pt x="276" y="550" on="1"/>
        <pt x="348" y="597" on="0"/>
      </contour>
    </TTGlyph>
    <TTGlyph name="Abreve" xMin="61" yMin="0" xMax="690" yMax="680">
      <contour>
        <pt x="690" y="8" on="1"/>
        <pt x="690" y="0" on="1"/>
        <pt x="458" y="0" on="1"/>
        <pt x="454" y="57" on="0"/>
        <pt x="441" y="118" on="1"/>
        <pt x="379" y="55" on="0"/>
        <pt x="301" y="0" on="1"/>
        <pt x="68" y="0" on="1"/>
        <pt x="61" y="41" on="0"/>
        <pt x="61" y="176" on="0"/>
        <pt x="81" y="244" on="1"/>
        <pt x="153" y="265" on="0"/>
        <pt x="286" y="365" on="0"/>
        <pt x="316" y="423" on="1"/>
        <pt x="289" y="465" on="0"/>
        <pt x="259" y="500" on="1"/>
        <pt x="591" y="500" on="1"/>
        <pt x="690" y="285" on="0"/>
      </contour>
      <contour>
        <pt x="423" y="191" on="1"/>
        <pt x="397" y="280" on="0"/>
        <pt x="355" y="359" on="1"/>
        <pt x="308" y="221" on="0"/>
        <pt x="301" y="98" on="1"/>
        <pt x="373" y="135" on="0"/>
      </contour>
      <contour>
        <pt x="362" y="615" on="1"/>
        <pt x="397" y="593" on="0"/>
        <pt x="492" y="593" on="0"/>
        <pt x="530" y="626" on="1"/>
        <pt x="532" y="626" on="0"/>
        <pt x="510" y="587" on="0"/>
        <pt x="484" y="566" on="1"/>
        <pt x="451" y="538" on="0"/>
        <pt x="342" y="538" on="0"/>
        <pt x="292" y="569" on="1"/>
        <pt x="278" y="577" on="1"/>
        <pt x="283" y="607" on="0"/>
        <pt x="310" y="680" on="0"/>
        <pt x="311" y="680" on="1"/>
      </contour>
    </TTGlyph>
    <TTGlyph name="Acircumflex" xMin="61" yMin="0" xMax="690" yMax="673">
      <contour>
        <pt x="81" y="244" on="1"/>
        <pt x="153" y="265" on="0"/>
        <pt x="286" y="365" on="0"/>
        <pt x="316" y="423" on="1"/>
        <pt x="289" y="465" on="0"/>
        <pt x="259" y="500" on="1"/>
        <pt x="591" y="500" on="1"/>
        <pt x="690" y="285" on="0"/>
        <pt x="690" y="8" on="1"/>
        <pt x="690" y="0" on="1"/>
        <pt x="458" y="0" on="1"/>
        <pt x="454" y="57" on="0"/>
        <pt x="441" y="118" on="1"/>
        <pt x="379" y="55" on="0"/>
        <pt x="301" y="0" on="1"/>
        <pt x="68" y="0" on="1"/>
        <pt x="61" y="41" on="0"/>
        <pt x="61" y="176" on="0"/>
      </contour>
      <contour>
        <pt x="423" y="191" on="1"/>
        <pt x="397" y="280" on="0"/>
        <pt x="355" y="359" on="1"/>
        <pt x="308" y="221" on="0"/>
        <pt x="301" y="98" on="1"/>
        <pt x="373" y="135" on="0"/>
      </contour>
      <contour>
        <pt x="284" y="558" on="1"/>
        <pt x="374" y="673" on="1"/>
        <pt x="423" y="673" on="1"/>
        <pt x="513" y="558" on="1"/>
        <pt x="481" y="558" on="1"/>
        <pt x="398" y="620" on="1"/>
        <pt x="316" y="558" on="1"/>
      </contour>
    </TTGlyph>
    <TTGlyph name="Adieresis" xMin="61" yMin="0" xMax="690" yMax="678">
      <contour>
        <pt x="690" y="8" on="1"/>
        <pt x="690" y="0" on="1"/>
        <pt x="458" y="0" on="1"/>
        <pt x="454" y="57" on="0"/>
        <pt x="441" y="118" on="1"/>
        <pt x="379" y="55" on="0"/>
        <pt x="301" y="0" on="1"/>
        <pt x="68" y="0" on="1"/>
        <pt x="61" y="41" on="0"/>
        <pt x="61" y="176" on="0"/>
        <pt x="81" y="244" on="1"/>
        <pt x="153" y="265" on="0"/>
        <pt x="286" y="365" on="0"/>
        <pt x="316" y="423" on="1"/>
        <pt x="289" y="465" on="0"/>
        <pt x="259" y="500" on="1"/>
        <pt x="591" y="500" on="1"/>
        <pt x="690" y="285" on="0"/>
      </contour>
      <contour>
        <pt x="423" y="191" on="1"/>
        <pt x="397" y="280" on="0"/>
        <pt x="355" y="359" on="1"/>
        <pt x="308" y="221" on="0"/>
        <pt x="301" y="98" on="1"/>
        <pt x="373" y="135" on="0"/>
      </contour>
      <contour>
        <pt x="326" y="576" on="1"/>
        <pt x="286" y="575" on="1"/>
        <pt x="266" y="575" on="0"/>
        <pt x="228" y="577" on="1"/>
        <pt x="253" y="636" on="0"/>
        <pt x="258" y="678" on="1"/>
        <pt x="311" y="673" on="0"/>
        <pt x="360" y="672" on="1"/>
        <pt x="348" y="618" on="0"/>
      </contour>
      <contour>
        <pt x="505" y="576" on="1"/>
        <pt x="464" y="575" on="1"/>
        <pt x="445" y="575" on="0"/>
        <pt x="407" y="577" on="1"/>
        <pt x="431" y="638" on="0"/>
        <pt x="437" y="678" on="1"/>
        <pt x="489" y="673" on="0"/>
        <pt x="539" y="672" on="1"/>
        <pt x="525" y="616" on="0"/>
      </contour>
    </TTGlyph>
    <TTGlyph name="Agrave" xMin="61" yMin="0" xMax="690" yMax="680">
      <contour>
        <pt x="81" y="244" on="1"/>
        <pt x="153" y="265" on="0"/>
        <pt x="286" y="365" on="0"/>
        <pt x="316" y="423" on="1"/>
        <pt x="289" y="465" on="0"/>
        <pt x="259" y="500" on="1"/>
        <pt x="591" y="500" on="1"/>
        <pt x="690" y="285" on="0"/>
        <pt x="690" y="8" on="1"/>
        <pt x="690" y="0" on="1"/>
        <pt x="458" y="0" on="1"/>
        <pt x="454" y="57" on="0"/>
        <pt x="441" y="118" on="1"/>
        <pt x="379" y="55" on="0"/>
        <pt x="301" y="0" on="1"/>
        <pt x="68" y="0" on="1"/>
        <pt x="61" y="41" on="0"/>
        <pt x="61" y="176" on="0"/>
      </contour>
      <contour>
        <pt x="423" y="191" on="1"/>
        <pt x="397" y="280" on="0"/>
        <pt x="355" y="359" on="1"/>
        <pt x="308" y="221" on="0"/>
        <pt x="301" y="98" on="1"/>
        <pt x="373" y="135" on="0"/>
      </contour>
      <contour>
        <pt x="387" y="680" on="1"/>
        <pt x="418" y="597" on="0"/>
        <pt x="490" y="550" on="1"/>
        <pt x="424" y="550" on="1"/>
        <pt x="387" y="567" on="0"/>
        <pt x="341" y="593" on="0"/>
        <pt x="290" y="639" on="0"/>
        <pt x="276" y="666" on="1"/>
      </contour>
    </TTGlyph>
    <TTGlyph name="Amacron" xMin="61" yMin="0" xMax="690" yMax="655">
      <contour>
        <pt x="82" y="655" on="1"/>
        <pt x="239" y="650" on="0"/>
        <pt x="475" y="650" on="0"/>
        <pt x="645" y="655" on="1"/>
        <pt x="645" y="580" on="1"/>
        <pt x="466" y="587" on="0"/>
        <pt x="250" y="587" on="0"/>
        <pt x="82" y="580" on="1"/>
      </contour>
      <contour>
        <pt x="690" y="8" on="1"/>
        <pt x="690" y="0" on="1"/>
        <pt x="458" y="0" on="1"/>
        <pt x="454" y="57" on="0"/>
        <pt x="441" y="118" on="1"/>
        <pt x="379" y="55" on="0"/>
        <pt x="301" y="0" on="1"/>
        <pt x="68" y="0" on="1"/>
        <pt x="61" y="41" on="0"/>
        <pt x="61" y="176" on="0"/>
        <pt x="81" y="244" on="1"/>
        <pt x="153" y="265" on="0"/>
        <pt x="286" y="365" on="0"/>
        <pt x="316" y="423" on="1"/>
        <pt x="289" y="465" on="0"/>
        <pt x="259" y="500" on="1"/>
        <pt x="591" y="500" on="1"/>
        <pt x="690" y="285" on="0"/>
      </contour>
      <contour>
        <pt x="423" y="191" on="1"/>
        <pt x="397" y="280" on="0"/>
        <pt x="355" y="359" on="1"/>
        <pt x="308" y="221" on="0"/>
        <pt x="301" y="98" on="1"/>
        <pt x="373" y="135" on="0"/>
      </contour>
    </TTGlyph>
    <TTGlyph name="Aogonek" xMin="57" yMin="-174" xMax="686" yMax="500">
      <contour>
        <pt x="559" y="-96" on="1"/>
        <pt x="559" y="-136" on="0"/>
        <pt x="595" y="-136" on="1"/>
        <pt x="613" y="-136" on="0"/>
        <pt x="632" y="-118" on="1"/>
        <pt x="634" y="-128" on="0"/>
        <pt x="637" y="-139" on="1"/>
        <pt x="611" y="-174" on="0"/>
        <pt x="536" y="-174" on="0"/>
        <pt x="494" y="-132" on="0"/>
        <pt x="494" y="-106" on="1"/>
        <pt x="494" y="-47" on="0"/>
        <pt x="563" y="0" on="1"/>
        <pt x="454" y="0" on="1"/>
        <pt x="450" y="57" on="0"/>
        <pt x="437" y="118" on="1"/>
        <pt x="375" y="55" on="0"/>
        <pt x="297" y="0" on="1"/>
        <pt x="64" y="0" on="1"/>
        <pt x="57" y="41" on="0"/>
        <pt x="57" y="176" on="0"/>
        <pt x="77" y="244" on="1"/>
        <pt x="149" y="265" on="0"/>
        <pt x="282" y="365" on="0"/>
        <pt x="312" y="423" on="1"/>
        <pt x="285" y="465" on="0"/>
        <pt x="255" y="500" on="1"/>
        <pt x="587" y="500" on="1"/>
        <pt x="686" y="285" on="0"/>
        <pt x="686" y="8" on="1"/>
        <pt x="686" y="0" on="1"/>
        <pt x="611" y="0" on="1"/>
        <pt x="559" y="-42" on="0"/>
      </contour>
      <contour>
        <pt x="419" y="191" on="1"/>
        <pt x="393" y="280" on="0"/>
        <pt x="351" y="359" on="1"/>
        <pt x="304" y="221" on="0"/>
        <pt x="297" y="98" on="1"/>
        <pt x="369" y="135" on="0"/>
      </contour>
    </TTGlyph>
    <TTGlyph name="Aring" xMin="61" yMin="0" xMax="690" yMax="676">
      <contour>
        <pt x="81" y="244" on="1"/>
        <pt x="153" y="265" on="0"/>
        <pt x="286" y="365" on="0"/>
        <pt x="316" y="423" on="1"/>
        <pt x="289" y="465" on="0"/>
        <pt x="259" y="500" on="1"/>
        <pt x="591" y="500" on="1"/>
        <pt x="690" y="285" on="0"/>
        <pt x="690" y="8" on="1"/>
        <pt x="690" y="0" on="1"/>
        <pt x="458" y="0" on="1"/>
        <pt x="454" y="57" on="0"/>
        <pt x="441" y="118" on="1"/>
        <pt x="379" y="55" on="0"/>
        <pt x="301" y="0" on="1"/>
        <pt x="68" y="0" on="1"/>
        <pt x="61" y="41" on="0"/>
        <pt x="61" y="176" on="0"/>
      </contour>
      <contour>
        <pt x="423" y="191" on="1"/>
        <pt x="397" y="280" on="0"/>
        <pt x="355" y="359" on="1"/>
        <pt x="308" y="221" on="0"/>
        <pt x="301" y="98" on="1"/>
        <pt x="373" y="135" on="0"/>
      </contour>
      <contour>
        <pt x="378" y="558" on="1"/>
        <pt x="349" y="580" on="0"/>
        <pt x="349" y="633" on="0"/>
        <pt x="406" y="676" on="0"/>
        <pt x="474" y="676" on="0"/>
        <pt x="499" y="645" on="0"/>
        <pt x="499" y="596" on="0"/>
        <pt x="445" y="553" on="0"/>
        <pt x="409" y="553" on="1"/>
        <pt x="395" y="553" on="0"/>
      </contour>
      <contour>
        <pt x="404" y="624" on="1"/>
        <pt x="404" y="582" on="0"/>
        <pt x="435" y="568" on="1"/>
        <pt x="445" y="581" on="0"/>
        <pt x="445" y="601" on="1"/>
        <pt x="445" y="641" on="0"/>
        <pt x="412" y="656" on="1"/>
        <pt x="404" y="640" on="0"/>
      </contour>
    </TTGlyph>
    <TTGlyph name="Atilde" xMin="61" yMin="0" xMax="690" yMax="685">
      <contour>
        <pt x="690" y="8" on="1"/>
        <pt x="690" y="0" on="1"/>
        <pt x="458" y="0" on="1"/>
        <pt x="454" y="57" on="0"/>
        <pt x="441" y="118" on="1"/>
        <pt x="379" y="55" on="0"/>
        <pt x="301" y="0" on="1"/>
        <pt x="68" y="0" on="1"/>
        <pt x="61" y="41" on="0"/>
        <pt x="61" y="176" on="0"/>
        <pt x="81" y="244" on="1"/>
        <pt x="153" y="265" on="0"/>
        <pt x="286" y="365" on="0"/>
        <pt x="316" y="423" on="1"/>
        <pt x="289" y="465" on="0"/>
        <pt x="259" y="500" on="1"/>
        <pt x="591" y="500" on="1"/>
        <pt x="690" y="285" on="0"/>
      </contour>
      <contour>
        <pt x="423" y="191" on="1"/>
        <pt x="397" y="280" on="0"/>
        <pt x="355" y="359" on="1"/>
        <pt x="308" y="221" on="0"/>
        <pt x="301" y="98" on="1"/>
        <pt x="373" y="135" on="0"/>
      </contour>
      <contour>
        <pt x="506" y="598" on="0"/>
        <pt x="465" y="575" on="0"/>
        <pt x="406" y="575" on="0"/>
        <pt x="338" y="616" on="0"/>
        <pt x="322" y="616" on="1"/>
        <pt x="285" y="616" on="0"/>
        <pt x="256" y="583" on="1"/>
        <pt x="269" y="623" on="1"/>
        <pt x="281" y="637" on="0"/>
        <pt x="318" y="660" on="0"/>
        <pt x="361" y="660" on="0"/>
        <pt x="422" y="638" on="0"/>
        <pt x="444" y="638" on="1"/>
        <pt x="498" y="638" on="0"/>
        <pt x="543" y="685" on="1"/>
        <pt x="539" y="677" on="0"/>
        <pt x="519" y="619" on="0"/>
      </contour>
    </TTGlyph>
    <TTGlyph name="B" xMin="70" yMin="0" xMax="656" yMax="500">
      <contour>
        <pt x="322" y="65" on="1"/>
        <pt x="390" y="65" on="0"/>
        <pt x="433" y="76" on="1"/>
        <pt x="415" y="187" on="0"/>
        <pt x="331" y="241" on="1"/>
        <pt x="322" y="152" on="0"/>
      </contour>
      <contour>
        <pt x="70" y="300" on="1"/>
        <pt x="70" y="405" on="0"/>
        <pt x="89" y="500" on="1"/>
        <pt x="644" y="500" on="1"/>
        <pt x="599" y="360" on="0"/>
        <pt x="472" y="297" on="1"/>
        <pt x="587" y="256" on="0"/>
        <pt x="656" y="183" on="1"/>
        <pt x="647" y="90" on="0"/>
        <pt x="613" y="0" on="1"/>
        <pt x="110" y="0" on="1"/>
        <pt x="70" y="139" on="0"/>
      </contour>
      <contour>
        <pt x="339" y="310" on="1"/>
        <pt x="388" y="323" on="0"/>
        <pt x="472" y="387" on="0"/>
        <pt x="490" y="434" on="1"/>
        <pt x="410" y="434" on="0"/>
        <pt x="360" y="429" on="1"/>
        <pt x="348" y="371" on="0"/>
      </contour>
    </TTGlyph>
    <TTGlyph name="C" xMin="38" yMin="-21" xMax="602" yMax="523">
      <contour>
        <pt x="449" y="439" on="1"/>
        <pt x="414" y="445" on="0"/>
        <pt x="349" y="445" on="0"/>
        <pt x="303" y="434" on="1"/>
        <pt x="288" y="371" on="0"/>
        <pt x="288" y="311" on="1"/>
        <pt x="288" y="156" on="0"/>
        <pt x="426" y="73" on="1"/>
        <pt x="518" y="134" on="0"/>
        <pt x="592" y="225" on="1"/>
        <pt x="595" y="185" on="0"/>
        <pt x="597" y="103" on="1"/>
        <pt x="523" y="45" on="0"/>
        <pt x="369" y="-21" on="0"/>
        <pt x="254" y="-21" on="1"/>
        <pt x="231" y="-21" on="1"/>
        <pt x="141" y="18" on="0"/>
        <pt x="38" y="170" on="0"/>
        <pt x="38" y="254" on="1"/>
        <pt x="38" y="366" on="0"/>
        <pt x="222" y="523" on="0"/>
        <pt x="397" y="523" on="1"/>
        <pt x="495" y="523" on="0"/>
        <pt x="602" y="498" on="1"/>
        <pt x="586" y="435" on="0"/>
        <pt x="562" y="379" on="1"/>
        <pt x="499" y="373" on="0"/>
        <pt x="432" y="373" on="1"/>
        <pt x="442" y="401" on="0"/>
      </contour>
    </TTGlyph>
    <TTGlyph name="Cacute" xMin="38" yMin="-21" xMax="602" yMax="680">
      <contour>
        <pt x="449" y="439" on="1"/>
        <pt x="414" y="445" on="0"/>
        <pt x="349" y="445" on="0"/>
        <pt x="303" y="434" on="1"/>
        <pt x="288" y="371" on="0"/>
        <pt x="288" y="311" on="1"/>
        <pt x="288" y="156" on="0"/>
        <pt x="426" y="73" on="1"/>
        <pt x="518" y="134" on="0"/>
        <pt x="592" y="225" on="1"/>
        <pt x="595" y="185" on="0"/>
        <pt x="597" y="103" on="1"/>
        <pt x="523" y="45" on="0"/>
        <pt x="369" y="-21" on="0"/>
        <pt x="254" y="-21" on="1"/>
        <pt x="231" y="-21" on="1"/>
        <pt x="141" y="18" on="0"/>
        <pt x="38" y="170" on="0"/>
        <pt x="38" y="254" on="1"/>
        <pt x="38" y="366" on="0"/>
        <pt x="222" y="523" on="0"/>
        <pt x="397" y="523" on="1"/>
        <pt x="495" y="523" on="0"/>
        <pt x="602" y="498" on="1"/>
        <pt x="586" y="435" on="0"/>
        <pt x="562" y="379" on="1"/>
        <pt x="499" y="373" on="0"/>
        <pt x="432" y="373" on="1"/>
        <pt x="442" y="401" on="0"/>
      </contour>
      <contour>
        <pt x="312" y="680" on="1"/>
        <pt x="423" y="666" on="1"/>
        <pt x="409" y="639" on="0"/>
        <pt x="358" y="593" on="0"/>
        <pt x="312" y="567" on="0"/>
        <pt x="275" y="550" on="1"/>
        <pt x="209" y="550" on="1"/>
        <pt x="281" y="597" on="0"/>
      </contour>
    </TTGlyph>
    <TTGlyph name="Ccaron" xMin="38" yMin="-21" xMax="602" yMax="669">
      <contour>
        <pt x="449" y="439" on="1"/>
        <pt x="414" y="445" on="0"/>
        <pt x="349" y="445" on="0"/>
        <pt x="303" y="434" on="1"/>
        <pt x="288" y="371" on="0"/>
        <pt x="288" y="311" on="1"/>
        <pt x="288" y="156" on="0"/>
        <pt x="426" y="73" on="1"/>
        <pt x="518" y="134" on="0"/>
        <pt x="592" y="225" on="1"/>
        <pt x="595" y="185" on="0"/>
        <pt x="597" y="103" on="1"/>
        <pt x="523" y="45" on="0"/>
        <pt x="369" y="-21" on="0"/>
        <pt x="254" y="-21" on="1"/>
        <pt x="231" y="-21" on="1"/>
        <pt x="141" y="18" on="0"/>
        <pt x="38" y="170" on="0"/>
        <pt x="38" y="254" on="1"/>
        <pt x="38" y="366" on="0"/>
        <pt x="222" y="523" on="0"/>
        <pt x="397" y="523" on="1"/>
        <pt x="495" y="523" on="0"/>
        <pt x="602" y="498" on="1"/>
        <pt x="586" y="435" on="0"/>
        <pt x="562" y="379" on="1"/>
        <pt x="499" y="373" on="0"/>
        <pt x="432" y="373" on="1"/>
        <pt x="442" y="401" on="0"/>
      </contour>
      <contour>
        <pt x="291" y="554" on="1"/>
        <pt x="201" y="669" on="1"/>
        <pt x="233" y="669" on="1"/>
        <pt x="315" y="607" on="1"/>
        <pt x="398" y="669" on="1"/>
        <pt x="430" y="669" on="1"/>
        <pt x="340" y="554" on="1"/>
      </contour>
    </TTGlyph>
    <TTGlyph name="Ccedilla" xMin="38" yMin="-189" xMax="602" yMax="523">
      <contour>
        <pt x="308" y="-52" on="1"/>
        <pt x="351" y="-45" on="1"/>
        <pt x="368" y="-45" on="0"/>
        <pt x="397" y="-64" on="0"/>
        <pt x="399" y="-79" on="1"/>
        <pt x="399" y="-84" on="1"/>
        <pt x="399" y="-123" on="0"/>
        <pt x="328" y="-188" on="0"/>
        <pt x="273" y="-189" on="1"/>
        <pt x="267" y="-168" on="1"/>
        <pt x="297" y="-168" on="0"/>
        <pt x="330" y="-139" on="0"/>
        <pt x="330" y="-121" on="1"/>
        <pt x="330" y="-95" on="0"/>
        <pt x="298" y="-95" on="1"/>
        <pt x="292" y="-95" on="0"/>
        <pt x="252" y="-110" on="1"/>
        <pt x="283" y="-20" on="1"/>
        <pt x="273" y="-21" on="0"/>
        <pt x="254" y="-21" on="1"/>
        <pt x="231" y="-21" on="1"/>
        <pt x="141" y="18" on="0"/>
        <pt x="38" y="170" on="0"/>
        <pt x="38" y="254" on="1"/>
        <pt x="38" y="366" on="0"/>
        <pt x="222" y="523" on="0"/>
        <pt x="397" y="523" on="1"/>
        <pt x="495" y="523" on="0"/>
        <pt x="602" y="498" on="1"/>
        <pt x="586" y="435" on="0"/>
        <pt x="562" y="379" on="1"/>
        <pt x="499" y="373" on="0"/>
        <pt x="432" y="373" on="1"/>
        <pt x="442" y="401" on="0"/>
        <pt x="449" y="439" on="1"/>
        <pt x="414" y="445" on="0"/>
        <pt x="349" y="445" on="0"/>
        <pt x="303" y="434" on="1"/>
        <pt x="288" y="371" on="0"/>
        <pt x="288" y="311" on="1"/>
        <pt x="288" y="156" on="0"/>
        <pt x="426" y="73" on="1"/>
        <pt x="518" y="134" on="0"/>
        <pt x="592" y="225" on="1"/>
        <pt x="595" y="185" on="0"/>
        <pt x="597" y="103" on="1"/>
        <pt x="534" y="54" on="0"/>
        <pt x="408" y="-8" on="0"/>
        <pt x="320" y="-17" on="1"/>
      </contour>
    </TTGlyph>
    <TTGlyph name="Ccircumflex" xMin="38" yMin="-21" xMax="602" yMax="673">
      <contour>
        <pt x="397" y="523" on="1"/>
        <pt x="495" y="523" on="0"/>
        <pt x="602" y="498" on="1"/>
        <pt x="586" y="435" on="0"/>
        <pt x="562" y="379" on="1"/>
        <pt x="499" y="373" on="0"/>
        <pt x="432" y="373" on="1"/>
        <pt x="442" y="401" on="0"/>
        <pt x="449" y="439" on="1"/>
        <pt x="414" y="445" on="0"/>
        <pt x="349" y="445" on="0"/>
        <pt x="303" y="434" on="1"/>
        <pt x="288" y="371" on="0"/>
        <pt x="288" y="311" on="1"/>
        <pt x="288" y="156" on="0"/>
        <pt x="426" y="73" on="1"/>
        <pt x="518" y="134" on="0"/>
        <pt x="592" y="225" on="1"/>
        <pt x="595" y="185" on="0"/>
        <pt x="597" y="103" on="1"/>
        <pt x="523" y="45" on="0"/>
        <pt x="369" y="-21" on="0"/>
        <pt x="254" y="-21" on="1"/>
        <pt x="231" y="-21" on="1"/>
        <pt x="141" y="18" on="0"/>
        <pt x="38" y="170" on="0"/>
        <pt x="38" y="254" on="1"/>
        <pt x="38" y="366" on="0"/>
        <pt x="222" y="523" on="0"/>
      </contour>
      <contour>
        <pt x="201" y="558" on="1"/>
        <pt x="291" y="673" on="1"/>
        <pt x="340" y="673" on="1"/>
        <pt x="430" y="558" on="1"/>
        <pt x="398" y="558" on="1"/>
        <pt x="315" y="620" on="1"/>
        <pt x="233" y="558" on="1"/>
      </contour>
    </TTGlyph>
    <TTGlyph name="Cdotaccent" xMin="38" yMin="-21" xMax="602" yMax="678">
      <contour>
        <pt x="449" y="439" on="1"/>
        <pt x="414" y="445" on="0"/>
        <pt x="349" y="445" on="0"/>
        <pt x="303" y="434" on="1"/>
        <pt x="288" y="371" on="0"/>
        <pt x="288" y="311" on="1"/>
        <pt x="288" y="156" on="0"/>
        <pt x="426" y="73" on="1"/>
        <pt x="518" y="134" on="0"/>
        <pt x="592" y="225" on="1"/>
        <pt x="595" y="185" on="0"/>
        <pt x="597" y="103" on="1"/>
        <pt x="523" y="45" on="0"/>
        <pt x="369" y="-21" on="0"/>
        <pt x="254" y="-21" on="1"/>
        <pt x="231" y="-21" on="1"/>
        <pt x="141" y="18" on="0"/>
        <pt x="38" y="170" on="0"/>
        <pt x="38" y="254" on="1"/>
        <pt x="38" y="366" on="0"/>
        <pt x="222" y="523" on="0"/>
        <pt x="397" y="523" on="1"/>
        <pt x="495" y="523" on="0"/>
        <pt x="602" y="498" on="1"/>
        <pt x="586" y="435" on="0"/>
        <pt x="562" y="379" on="1"/>
        <pt x="499" y="373" on="0"/>
        <pt x="432" y="373" on="1"/>
        <pt x="442" y="401" on="0"/>
      </contour>
      <contour>
        <pt x="348" y="576" on="1"/>
        <pt x="308" y="575" on="1"/>
        <pt x="288" y="575" on="0"/>
        <pt x="250" y="577" on="1"/>
        <pt x="275" y="636" on="0"/>
        <pt x="280" y="678" on="1"/>
        <pt x="333" y="673" on="0"/>
        <pt x="382" y="672" on="1"/>
        <pt x="370" y="618" on="0"/>
      </contour>
    </TTGlyph>
    <TTGlyph name="D" xMin="74" yMin="-14" xMax="672" yMax="523">
      <contour>
        <pt x="315" y="523" on="1"/>
        <pt x="508" y="523" on="0"/>
        <pt x="629" y="475" on="1"/>
        <pt x="672" y="389" on="0"/>
        <pt x="672" y="301" on="1"/>
        <pt x="672" y="188" on="0"/>
        <pt x="595" y="105" on="1"/>
        <pt x="483" y="-14" on="0"/>
        <pt x="292" y="-14" on="1"/>
        <pt x="226" y="-14" on="0"/>
        <pt x="113" y="1" on="1"/>
        <pt x="74" y="202" on="0"/>
        <pt x="74" y="372" on="1"/>
        <pt x="74" y="431" on="0"/>
        <pt x="80" y="500" on="1"/>
        <pt x="241" y="523" on="0"/>
      </contour>
      <contour>
        <pt x="345" y="448" on="1"/>
        <pt x="327" y="260" on="0"/>
        <pt x="327" y="97" on="0"/>
        <pt x="330" y="46" on="1"/>
        <pt x="384" y="75" on="0"/>
        <pt x="445" y="212" on="0"/>
        <pt x="445" y="353" on="0"/>
        <pt x="394" y="443" on="0"/>
      </contour>
    </TTGlyph>
    <TTGlyph name="Dcaron" xMin="74" yMin="-14" xMax="798" yMax="688">
      <contour>
        <pt x="315" y="523" on="1"/>
        <pt x="508" y="523" on="0"/>
        <pt x="629" y="475" on="1"/>
        <pt x="672" y="389" on="0"/>
        <pt x="672" y="301" on="1"/>
        <pt x="672" y="188" on="0"/>
        <pt x="595" y="105" on="1"/>
        <pt x="483" y="-14" on="0"/>
        <pt x="292" y="-14" on="1"/>
        <pt x="226" y="-14" on="0"/>
        <pt x="113" y="1" on="1"/>
        <pt x="74" y="202" on="0"/>
        <pt x="74" y="372" on="1"/>
        <pt x="74" y="431" on="0"/>
        <pt x="80" y="500" on="1"/>
        <pt x="241" y="523" on="0"/>
      </contour>
      <contour>
        <pt x="345" y="448" on="1"/>
        <pt x="327" y="260" on="0"/>
        <pt x="327" y="97" on="0"/>
        <pt x="330" y="46" on="1"/>
        <pt x="384" y="75" on="0"/>
        <pt x="445" y="212" on="0"/>
        <pt x="445" y="353" on="0"/>
        <pt x="394" y="443" on="0"/>
      </contour>
      <contour>
        <pt x="633" y="688" on="1"/>
        <pt x="695" y="677" on="0"/>
        <pt x="798" y="677" on="1"/>
        <pt x="779" y="576" on="0"/>
        <pt x="729" y="502" on="1"/>
        <pt x="699" y="506" on="0"/>
        <pt x="683" y="510" on="1"/>
        <pt x="704" y="549" on="0"/>
        <pt x="706" y="582" on="1"/>
        <pt x="644" y="582" on="0"/>
        <pt x="611" y="588" on="1"/>
        <pt x="631" y="633" on="0"/>
      </contour>
    </TTGlyph>
    <TTGlyph name="Dcroat" xMin="0" yMin="-22" xMax="704" yMax="523">
      <contour>
        <pt x="339" y="523" on="1"/>
        <pt x="534" y="523" on="0"/>
        <pt x="659" y="474" on="1"/>
        <pt x="704" y="387" on="0"/>
        <pt x="704" y="298" on="1"/>
        <pt x="704" y="182" on="0"/>
        <pt x="627" y="99" on="1"/>
        <pt x="515" y="-22" on="0"/>
        <pt x="320" y="-22" on="1"/>
        <pt x="258" y="-22" on="0"/>
        <pt x="166" y="-10" on="1"/>
        <pt x="136" y="-6" on="1"/>
        <pt x="111" y="118" on="0"/>
        <pt x="101" y="233" on="1"/>
        <pt x="18" y="239" on="0"/>
        <pt x="0" y="242" on="1"/>
        <pt x="6" y="246" on="0"/>
        <pt x="18" y="256" on="1"/>
        <pt x="44" y="278" on="0"/>
        <pt x="58" y="284" on="1"/>
        <pt x="97" y="284" on="1"/>
        <pt x="95" y="313" on="0"/>
        <pt x="95" y="438" on="0"/>
        <pt x="101" y="506" on="1"/>
        <pt x="220" y="523" on="0"/>
      </contour>
      <contour>
        <pt x="355" y="228" on="1"/>
        <pt x="353" y="172" on="0"/>
        <pt x="353" y="93" on="0"/>
        <pt x="356" y="39" on="1"/>
        <pt x="411" y="68" on="0"/>
        <pt x="473" y="206" on="0"/>
        <pt x="473" y="349" on="0"/>
        <pt x="420" y="443" on="0"/>
        <pt x="371" y="448" on="1"/>
        <pt x="365" y="385" on="0"/>
        <pt x="358" y="288" on="1"/>
        <pt x="420" y="290" on="0"/>
        <pt x="442" y="296" on="1"/>
        <pt x="418" y="254" on="0"/>
        <pt x="391" y="228" on="1"/>
      </contour>
    </TTGlyph>
    <TTGlyph name="E" xMin="64" yMin="0" xMax="615" yMax="500">
      <contour>
        <pt x="415" y="299" on="1"/>
        <pt x="509" y="293" on="1"/>
        <pt x="523" y="293" on="0"/>
        <pt x="530" y="294" on="1"/>
        <pt x="483" y="206" on="1"/>
        <pt x="474" y="206" on="1"/>
        <pt x="455" y="206" on="0"/>
        <pt x="385" y="227" on="0"/>
        <pt x="370" y="227" on="1"/>
        <pt x="329" y="227" on="0"/>
        <pt x="305" y="174" on="1"/>
        <pt x="301" y="125" on="0"/>
        <pt x="299" y="76" on="1"/>
        <pt x="351" y="66" on="0"/>
        <pt x="381" y="66" on="1"/>
        <pt x="390" y="66" on="1"/>
        <pt x="433" y="66" on="0"/>
        <pt x="484" y="104" on="0"/>
        <pt x="495" y="153" on="1"/>
        <pt x="615" y="148" on="1"/>
        <pt x="600" y="62" on="0"/>
        <pt x="575" y="0" on="1"/>
        <pt x="84" y="0" on="1"/>
        <pt x="64" y="135" on="0"/>
        <pt x="64" y="401" on="0"/>
        <pt x="78" y="500" on="1"/>
        <pt x="614" y="500" on="1"/>
        <pt x="596" y="392" on="0"/>
        <pt x="582" y="348" on="1"/>
        <pt x="523" y="345" on="0"/>
        <pt x="474" y="344" on="1"/>
        <pt x="482" y="367" on="0"/>
        <pt x="482" y="387" on="1"/>
        <pt x="482" y="435" on="0"/>
        <pt x="410" y="435" on="1"/>
        <pt x="383" y="435" on="0"/>
        <pt x="350" y="429" on="1"/>
        <pt x="328" y="334" on="0"/>
        <pt x="316" y="262" on="1"/>
        <pt x="356" y="299" on="0"/>
      </contour>
    </TTGlyph>
    <TTGlyph name="Eacute" xMin="64" yMin="0" xMax="615" yMax="680">
      <contour>
        <pt x="415" y="299" on="1"/>
        <pt x="509" y="293" on="1"/>
        <pt x="523" y="293" on="0"/>
        <pt x="530" y="294" on="1"/>
        <pt x="483" y="206" on="1"/>
        <pt x="474" y="206" on="1"/>
        <pt x="455" y="206" on="0"/>
        <pt x="385" y="227" on="0"/>
        <pt x="370" y="227" on="1"/>
        <pt x="329" y="227" on="0"/>
        <pt x="305" y="174" on="1"/>
        <pt x="301" y="125" on="0"/>
        <pt x="299" y="76" on="1"/>
        <pt x="351" y="66" on="0"/>
        <pt x="381" y="66" on="1"/>
        <pt x="390" y="66" on="1"/>
        <pt x="433" y="66" on="0"/>
        <pt x="484" y="104" on="0"/>
        <pt x="495" y="153" on="1"/>
        <pt x="615" y="148" on="1"/>
        <pt x="600" y="62" on="0"/>
        <pt x="575" y="0" on="1"/>
        <pt x="84" y="0" on="1"/>
        <pt x="64" y="135" on="0"/>
        <pt x="64" y="401" on="0"/>
        <pt x="78" y="500" on="1"/>
        <pt x="614" y="500" on="1"/>
        <pt x="596" y="392" on="0"/>
        <pt x="582" y="348" on="1"/>
        <pt x="523" y="345" on="0"/>
        <pt x="474" y="344" on="1"/>
        <pt x="482" y="367" on="0"/>
        <pt x="482" y="387" on="1"/>
        <pt x="482" y="435" on="0"/>
        <pt x="410" y="435" on="1"/>
        <pt x="383" y="435" on="0"/>
        <pt x="350" y="429" on="1"/>
        <pt x="328" y="334" on="0"/>
        <pt x="316" y="262" on="1"/>
        <pt x="356" y="299" on="0"/>
      </contour>
      <contour>
        <pt x="331" y="680" on="1"/>
        <pt x="442" y="666" on="1"/>
        <pt x="428" y="639" on="0"/>
        <pt x="377" y="593" on="0"/>
        <pt x="331" y="567" on="0"/>
        <pt x="294" y="550" on="1"/>
        <pt x="228" y="550" on="1"/>
        <pt x="300" y="597" on="0"/>
      </contour>
    </TTGlyph>
    <TTGlyph name="Ecaron" xMin="64" yMin="0" xMax="615" yMax="669">
      <contour>
        <pt x="415" y="299" on="1"/>
        <pt x="509" y="293" on="1"/>
        <pt x="523" y="293" on="0"/>
        <pt x="530" y="294" on="1"/>
        <pt x="483" y="206" on="1"/>
        <pt x="474" y="206" on="1"/>
        <pt x="455" y="206" on="0"/>
        <pt x="385" y="227" on="0"/>
        <pt x="370" y="227" on="1"/>
        <pt x="329" y="227" on="0"/>
        <pt x="305" y="174" on="1"/>
        <pt x="301" y="125" on="0"/>
        <pt x="299" y="76" on="1"/>
        <pt x="351" y="66" on="0"/>
        <pt x="381" y="66" on="1"/>
        <pt x="390" y="66" on="1"/>
        <pt x="433" y="66" on="0"/>
        <pt x="484" y="104" on="0"/>
        <pt x="495" y="153" on="1"/>
        <pt x="615" y="148" on="1"/>
        <pt x="600" y="62" on="0"/>
        <pt x="575" y="0" on="1"/>
        <pt x="84" y="0" on="1"/>
        <pt x="64" y="135" on="0"/>
        <pt x="64" y="401" on="0"/>
        <pt x="78" y="500" on="1"/>
        <pt x="614" y="500" on="1"/>
        <pt x="596" y="392" on="0"/>
        <pt x="582" y="348" on="1"/>
        <pt x="523" y="345" on="0"/>
        <pt x="474" y="344" on="1"/>
        <pt x="482" y="367" on="0"/>
        <pt x="482" y="387" on="1"/>
        <pt x="482" y="435" on="0"/>
        <pt x="410" y="435" on="1"/>
        <pt x="383" y="435" on="0"/>
        <pt x="350" y="429" on="1"/>
        <pt x="328" y="334" on="0"/>
        <pt x="316" y="262" on="1"/>
        <pt x="356" y="299" on="0"/>
      </contour>
      <contour>
        <pt x="311" y="554" on="1"/>
        <pt x="221" y="669" on="1"/>
        <pt x="253" y="669" on="1"/>
        <pt x="335" y="607" on="1"/>
        <pt x="418" y="669" on="1"/>
        <pt x="450" y="669" on="1"/>
        <pt x="360" y="554" on="1"/>
      </contour>
    </TTGlyph>
    <TTGlyph name="Ecircumflex" xMin="64" yMin="0" xMax="615" yMax="673">
      <contour>
        <pt x="415" y="299" on="1"/>
        <pt x="509" y="293" on="1"/>
        <pt x="523" y="293" on="0"/>
        <pt x="530" y="294" on="1"/>
        <pt x="483" y="206" on="1"/>
        <pt x="474" y="206" on="1"/>
        <pt x="455" y="206" on="0"/>
        <pt x="385" y="227" on="0"/>
        <pt x="370" y="227" on="1"/>
        <pt x="328" y="227" on="0"/>
        <pt x="305" y="174" on="1"/>
        <pt x="300" y="124" on="0"/>
        <pt x="299" y="76" on="1"/>
        <pt x="343" y="66" on="0"/>
        <pt x="381" y="66" on="1"/>
        <pt x="390" y="66" on="1"/>
        <pt x="434" y="66" on="0"/>
        <pt x="483" y="104" on="0"/>
        <pt x="495" y="153" on="1"/>
        <pt x="615" y="148" on="1"/>
        <pt x="598" y="57" on="0"/>
        <pt x="575" y="0" on="1"/>
        <pt x="84" y="0" on="1"/>
        <pt x="64" y="135" on="0"/>
        <pt x="64" y="408" on="0"/>
        <pt x="78" y="500" on="1"/>
        <pt x="614" y="500" on="1"/>
        <pt x="590" y="377" on="0"/>
        <pt x="582" y="348" on="1"/>
        <pt x="552" y="346" on="0"/>
        <pt x="474" y="344" on="1"/>
        <pt x="482" y="368" on="0"/>
        <pt x="482" y="387" on="1"/>
        <pt x="482" y="435" on="0"/>
        <pt x="410" y="435" on="1"/>
        <pt x="383" y="435" on="0"/>
        <pt x="350" y="429" on="1"/>
        <pt x="327" y="329" on="0"/>
        <pt x="316" y="262" on="1"/>
        <pt x="358" y="299" on="0"/>
      </contour>
      <contour>
        <pt x="221" y="558" on="1"/>
        <pt x="311" y="673" on="1"/>
        <pt x="360" y="673" on="1"/>
        <pt x="450" y="558" on="1"/>
        <pt x="418" y="558" on="1"/>
        <pt x="335" y="620" on="1"/>
        <pt x="253" y="558" on="1"/>
      </contour>
    </TTGlyph>
    <TTGlyph name="Edieresis" xMin="64" yMin="0" xMax="615" yMax="678">
      <contour>
        <pt x="415" y="299" on="1"/>
        <pt x="509" y="293" on="1"/>
        <pt x="523" y="293" on="0"/>
        <pt x="530" y="294" on="1"/>
        <pt x="483" y="206" on="1"/>
        <pt x="474" y="206" on="1"/>
        <pt x="455" y="206" on="0"/>
        <pt x="385" y="227" on="0"/>
        <pt x="370" y="227" on="1"/>
        <pt x="328" y="227" on="0"/>
        <pt x="305" y="174" on="1"/>
        <pt x="300" y="124" on="0"/>
        <pt x="299" y="76" on="1"/>
        <pt x="343" y="66" on="0"/>
        <pt x="381" y="66" on="1"/>
        <pt x="390" y="66" on="1"/>
        <pt x="434" y="66" on="0"/>
        <pt x="483" y="104" on="0"/>
        <pt x="495" y="153" on="1"/>
        <pt x="615" y="148" on="1"/>
        <pt x="598" y="57" on="0"/>
        <pt x="575" y="0" on="1"/>
        <pt x="84" y="0" on="1"/>
        <pt x="64" y="135" on="0"/>
        <pt x="64" y="408" on="0"/>
        <pt x="78" y="500" on="1"/>
        <pt x="614" y="500" on="1"/>
        <pt x="590" y="377" on="0"/>
        <pt x="582" y="348" on="1"/>
        <pt x="552" y="346" on="0"/>
        <pt x="474" y="344" on="1"/>
        <pt x="482" y="368" on="0"/>
        <pt x="482" y="387" on="1"/>
        <pt x="482" y="435" on="0"/>
        <pt x="410" y="435" on="1"/>
        <pt x="383" y="435" on="0"/>
        <pt x="350" y="429" on="1"/>
        <pt x="327" y="329" on="0"/>
        <pt x="316" y="262" on="1"/>
        <pt x="358" y="299" on="0"/>
      </contour>
      <contour>
        <pt x="278" y="576" on="1"/>
        <pt x="238" y="575" on="1"/>
        <pt x="218" y="575" on="0"/>
        <pt x="180" y="577" on="1"/>
        <pt x="204" y="630" on="0"/>
        <pt x="210" y="678" on="1"/>
        <pt x="262" y="674" on="0"/>
        <pt x="312" y="672" on="1"/>
        <pt x="300" y="618" on="0"/>
      </contour>
      <contour>
        <pt x="457" y="576" on="1"/>
        <pt x="416" y="575" on="1"/>
        <pt x="397" y="575" on="0"/>
        <pt x="359" y="577" on="1"/>
        <pt x="383" y="638" on="0"/>
        <pt x="389" y="678" on="1"/>
        <pt x="442" y="674" on="0"/>
        <pt x="491" y="672" on="1"/>
        <pt x="477" y="616" on="0"/>
      </contour>
    </TTGlyph>
    <TTGlyph name="Edotaccent" xMin="64" yMin="0" xMax="615" yMax="678">
      <contour>
        <pt x="415" y="299" on="1"/>
        <pt x="509" y="293" on="1"/>
        <pt x="523" y="293" on="0"/>
        <pt x="530" y="294" on="1"/>
        <pt x="483" y="206" on="1"/>
        <pt x="474" y="206" on="1"/>
        <pt x="455" y="206" on="0"/>
        <pt x="385" y="227" on="0"/>
        <pt x="370" y="227" on="1"/>
        <pt x="329" y="227" on="0"/>
        <pt x="305" y="174" on="1"/>
        <pt x="301" y="125" on="0"/>
        <pt x="299" y="76" on="1"/>
        <pt x="351" y="66" on="0"/>
        <pt x="381" y="66" on="1"/>
        <pt x="390" y="66" on="1"/>
        <pt x="433" y="66" on="0"/>
        <pt x="484" y="104" on="0"/>
        <pt x="495" y="153" on="1"/>
        <pt x="615" y="148" on="1"/>
        <pt x="600" y="62" on="0"/>
        <pt x="575" y="0" on="1"/>
        <pt x="84" y="0" on="1"/>
        <pt x="64" y="135" on="0"/>
        <pt x="64" y="401" on="0"/>
        <pt x="78" y="500" on="1"/>
        <pt x="614" y="500" on="1"/>
        <pt x="596" y="392" on="0"/>
        <pt x="582" y="348" on="1"/>
        <pt x="523" y="345" on="0"/>
        <pt x="474" y="344" on="1"/>
        <pt x="482" y="367" on="0"/>
        <pt x="482" y="387" on="1"/>
        <pt x="482" y="435" on="0"/>
        <pt x="410" y="435" on="1"/>
        <pt x="383" y="435" on="0"/>
        <pt x="350" y="429" on="1"/>
        <pt x="328" y="334" on="0"/>
        <pt x="316" y="262" on="1"/>
        <pt x="356" y="299" on="0"/>
      </contour>
      <contour>
        <pt x="367" y="576" on="1"/>
        <pt x="327" y="575" on="1"/>
        <pt x="307" y="575" on="0"/>
        <pt x="269" y="577" on="1"/>
        <pt x="294" y="636" on="0"/>
        <pt x="299" y="678" on="1"/>
        <pt x="352" y="673" on="0"/>
        <pt x="401" y="672" on="1"/>
        <pt x="389" y="618" on="0"/>
      </contour>
    </TTGlyph>
    <TTGlyph name="Egrave" xMin="64" yMin="0" xMax="615" yMax="680">
      <contour>
        <pt x="509" y="293" on="1"/>
        <pt x="523" y="293" on="0"/>
        <pt x="530" y="294" on="1"/>
        <pt x="483" y="206" on="1"/>
        <pt x="474" y="206" on="1"/>
        <pt x="455" y="206" on="0"/>
        <pt x="385" y="227" on="0"/>
        <pt x="370" y="227" on="1"/>
        <pt x="329" y="227" on="0"/>
        <pt x="305" y="174" on="1"/>
        <pt x="301" y="125" on="0"/>
        <pt x="299" y="76" on="1"/>
        <pt x="351" y="66" on="0"/>
        <pt x="381" y="66" on="1"/>
        <pt x="390" y="66" on="1"/>
        <pt x="433" y="66" on="0"/>
        <pt x="484" y="104" on="0"/>
        <pt x="495" y="153" on="1"/>
        <pt x="615" y="148" on="1"/>
        <pt x="600" y="62" on="0"/>
        <pt x="575" y="0" on="1"/>
        <pt x="575" y="0" on="0"/>
        <pt x="84" y="0" on="1"/>
        <pt x="64" y="135" on="0"/>
        <pt x="64" y="401" on="0"/>
        <pt x="78" y="500" on="1"/>
        <pt x="614" y="500" on="1"/>
        <pt x="596" y="392" on="0"/>
        <pt x="582" y="348" on="1"/>
        <pt x="523" y="345" on="0"/>
        <pt x="474" y="344" on="1"/>
        <pt x="482" y="367" on="0"/>
        <pt x="482" y="387" on="1"/>
        <pt x="482" y="435" on="0"/>
        <pt x="410" y="435" on="1"/>
        <pt x="383" y="435" on="0"/>
        <pt x="350" y="429" on="1"/>
        <pt x="328" y="334" on="0"/>
        <pt x="316" y="262" on="1"/>
        <pt x="356" y="299" on="0"/>
        <pt x="415" y="299" on="1"/>
      </contour>
      <contour>
        <pt x="339" y="680" on="1"/>
        <pt x="370" y="597" on="0"/>
        <pt x="442" y="550" on="1"/>
        <pt x="376" y="550" on="1"/>
        <pt x="339" y="567" on="0"/>
        <pt x="293" y="593" on="0"/>
        <pt x="242" y="639" on="0"/>
        <pt x="228" y="666" on="1"/>
      </contour>
    </TTGlyph>
    <TTGlyph name="Emacron" xMin="64" yMin="0" xMax="633" yMax="655">
      <contour>
        <pt x="70" y="655" on="1"/>
        <pt x="227" y="650" on="0"/>
        <pt x="463" y="650" on="0"/>
        <pt x="633" y="655" on="1"/>
        <pt x="633" y="580" on="1"/>
        <pt x="455" y="587" on="0"/>
        <pt x="238" y="587" on="0"/>
        <pt x="70" y="580" on="1"/>
      </contour>
      <contour>
        <pt x="415" y="299" on="1"/>
        <pt x="509" y="293" on="1"/>
        <pt x="523" y="293" on="0"/>
        <pt x="530" y="294" on="1"/>
        <pt x="483" y="206" on="1"/>
        <pt x="474" y="206" on="1"/>
        <pt x="455" y="206" on="0"/>
        <pt x="385" y="227" on="0"/>
        <pt x="370" y="227" on="1"/>
        <pt x="329" y="227" on="0"/>
        <pt x="305" y="174" on="1"/>
        <pt x="301" y="125" on="0"/>
        <pt x="299" y="76" on="1"/>
        <pt x="351" y="66" on="0"/>
        <pt x="381" y="66" on="1"/>
        <pt x="390" y="66" on="1"/>
        <pt x="433" y="66" on="0"/>
        <pt x="484" y="104" on="0"/>
        <pt x="495" y="153" on="1"/>
        <pt x="615" y="148" on="1"/>
        <pt x="600" y="62" on="0"/>
        <pt x="575" y="0" on="1"/>
        <pt x="84" y="0" on="1"/>
        <pt x="64" y="135" on="0"/>
        <pt x="64" y="401" on="0"/>
        <pt x="78" y="500" on="1"/>
        <pt x="614" y="500" on="1"/>
        <pt x="596" y="392" on="0"/>
        <pt x="582" y="348" on="1"/>
        <pt x="523" y="345" on="0"/>
        <pt x="474" y="344" on="1"/>
        <pt x="482" y="367" on="0"/>
        <pt x="482" y="387" on="1"/>
        <pt x="482" y="435" on="0"/>
        <pt x="410" y="435" on="1"/>
        <pt x="383" y="435" on="0"/>
        <pt x="350" y="429" on="1"/>
        <pt x="328" y="334" on="0"/>
        <pt x="316" y="262" on="1"/>
        <pt x="356" y="299" on="0"/>
      </contour>
    </TTGlyph>
    <TTGlyph name="Eogonek" xMin="64" yMin="-174" xMax="615" yMax="500">
      <contour>
        <pt x="415" y="299" on="1"/>
        <pt x="509" y="293" on="1"/>
        <pt x="523" y="293" on="0"/>
        <pt x="530" y="294" on="1"/>
        <pt x="483" y="206" on="1"/>
        <pt x="474" y="206" on="1"/>
        <pt x="455" y="206" on="0"/>
        <pt x="385" y="227" on="0"/>
        <pt x="370" y="227" on="1"/>
        <pt x="329" y="227" on="0"/>
        <pt x="305" y="174" on="1"/>
        <pt x="301" y="125" on="0"/>
        <pt x="299" y="76" on="1"/>
        <pt x="351" y="66" on="0"/>
        <pt x="381" y="66" on="1"/>
        <pt x="390" y="66" on="1"/>
        <pt x="433" y="66" on="0"/>
        <pt x="484" y="104" on="0"/>
        <pt x="495" y="153" on="1"/>
        <pt x="615" y="148" on="1"/>
        <pt x="600" y="62" on="0"/>
        <pt x="575" y="0" on="1"/>
        <pt x="378" y="0" on="1"/>
        <pt x="326" y="-42" on="0"/>
        <pt x="326" y="-96" on="1"/>
        <pt x="326" y="-116" on="0"/>
        <pt x="344" y="-136" on="0"/>
        <pt x="380" y="-136" on="0"/>
        <pt x="399" y="-118" on="1"/>
        <pt x="400" y="-129" on="0"/>
        <pt x="404" y="-139" on="1"/>
        <pt x="378" y="-174" on="0"/>
        <pt x="303" y="-174" on="0"/>
        <pt x="261" y="-132" on="0"/>
        <pt x="261" y="-106" on="1"/>
        <pt x="261" y="-47" on="0"/>
        <pt x="330" y="0" on="1"/>
        <pt x="84" y="0" on="1"/>
        <pt x="64" y="135" on="0"/>
        <pt x="64" y="401" on="0"/>
        <pt x="78" y="500" on="1"/>
        <pt x="614" y="500" on="1"/>
        <pt x="596" y="392" on="0"/>
        <pt x="582" y="348" on="1"/>
        <pt x="523" y="345" on="0"/>
        <pt x="474" y="344" on="1"/>
        <pt x="482" y="367" on="0"/>
        <pt x="482" y="387" on="1"/>
        <pt x="482" y="435" on="0"/>
        <pt x="410" y="435" on="1"/>
        <pt x="383" y="435" on="0"/>
        <pt x="350" y="429" on="1"/>
        <pt x="328" y="334" on="0"/>
        <pt x="316" y="262" on="1"/>
        <pt x="356" y="299" on="0"/>
      </contour>
    </TTGlyph>
    <TTGlyph name="Eth" xMin="0" yMin="-22" xMax="704" yMax="523">
      <contour>
        <pt x="339" y="523" on="1"/>
        <pt x="534" y="523" on="0"/>
        <pt x="659" y="474" on="1"/>
        <pt x="704" y="387" on="0"/>
        <pt x="704" y="298" on="1"/>
        <pt x="704" y="182" on="0"/>
        <pt x="627" y="99" on="1"/>
        <pt x="515" y="-22" on="0"/>
        <pt x="320" y="-22" on="1"/>
        <pt x="258" y="-22" on="0"/>
        <pt x="166" y="-10" on="1"/>
        <pt x="136" y="-6" on="1"/>
        <pt x="111" y="118" on="0"/>
        <pt x="101" y="233" on="1"/>
        <pt x="18" y="239" on="0"/>
        <pt x="0" y="242" on="1"/>
        <pt x="6" y="246" on="0"/>
        <pt x="18" y="256" on="1"/>
        <pt x="44" y="278" on="0"/>
        <pt x="58" y="284" on="1"/>
        <pt x="97" y="284" on="1"/>
        <pt x="95" y="313" on="0"/>
        <pt x="95" y="438" on="0"/>
        <pt x="101" y="506" on="1"/>
        <pt x="220" y="523" on="0"/>
      </contour>
      <contour>
        <pt x="355" y="228" on="1"/>
        <pt x="353" y="172" on="0"/>
        <pt x="353" y="93" on="0"/>
        <pt x="356" y="39" on="1"/>
        <pt x="411" y="68" on="0"/>
        <pt x="473" y="206" on="0"/>
        <pt x="473" y="349" on="0"/>
        <pt x="420" y="443" on="0"/>
        <pt x="371" y="448" on="1"/>
        <pt x="365" y="385" on="0"/>
        <pt x="358" y="288" on="1"/>
        <pt x="420" y="290" on="0"/>
        <pt x="442" y="296" on="1"/>
        <pt x="418" y="254" on="0"/>
        <pt x="391" y="228" on="1"/>
      </contour>
    </TTGlyph>
    <TTGlyph name="Euro" xMin="5" yMin="-22" xMax="640" yMax="523">
      <contour>
        <pt x="25" y="334" on="1"/>
        <pt x="68" y="334" on="0"/>
        <pt x="88" y="332" on="1"/>
        <pt x="117" y="417" on="0"/>
        <pt x="293" y="523" on="0"/>
        <pt x="437" y="523" on="1"/>
        <pt x="533" y="523" on="0"/>
        <pt x="640" y="499" on="1"/>
        <pt x="623" y="428" on="0"/>
        <pt x="600" y="378" on="1"/>
        <pt x="547" y="373" on="0"/>
        <pt x="470" y="371" on="1"/>
        <pt x="480" y="403" on="0"/>
        <pt x="487" y="439" on="1"/>
        <pt x="450" y="444" on="0"/>
        <pt x="382" y="444" on="0"/>
        <pt x="341" y="434" on="1"/>
        <pt x="329" y="377" on="0"/>
        <pt x="326" y="331" on="1"/>
        <pt x="420" y="331" on="0"/>
        <pt x="513" y="334" on="1"/>
        <pt x="496" y="279" on="1"/>
        <pt x="381" y="283" on="0"/>
        <pt x="327" y="284" on="1"/>
        <pt x="328" y="257" on="0"/>
        <pt x="336" y="231" on="1"/>
        <pt x="416" y="231" on="0"/>
        <pt x="479" y="234" on="1"/>
        <pt x="461" y="180" on="1"/>
        <pt x="356" y="183" on="0"/>
        <pt x="354" y="183" on="1"/>
        <pt x="386" y="120" on="0"/>
        <pt x="464" y="72" on="1"/>
        <pt x="554" y="130" on="0"/>
        <pt x="630" y="225" on="1"/>
        <pt x="635" y="167" on="0"/>
        <pt x="636" y="102" on="1"/>
        <pt x="559" y="42" on="0"/>
        <pt x="397" y="-22" on="0"/>
        <pt x="269" y="-22" on="1"/>
        <pt x="198" y="8" on="0"/>
        <pt x="103" y="117" on="0"/>
        <pt x="85" y="183" on="1"/>
        <pt x="59" y="182" on="0"/>
        <pt x="5" y="180" on="1"/>
        <pt x="25" y="234" on="1"/>
        <pt x="77" y="232" on="1"/>
        <pt x="76" y="254" on="1"/>
        <pt x="76" y="262" on="0"/>
        <pt x="78" y="282" on="1"/>
        <pt x="41" y="282" on="0"/>
        <pt x="5" y="279" on="1"/>
      </contour>
    </TTGlyph>
    <TTGlyph name="F" xMin="66" yMin="0" xMax="614" yMax="499">
      <contour>
        <pt x="413" y="284" on="1"/>
        <pt x="508" y="278" on="1"/>
        <pt x="521" y="278" on="0"/>
        <pt x="528" y="279" on="1"/>
        <pt x="481" y="191" on="1"/>
        <pt x="472" y="191" on="1"/>
        <pt x="453" y="191" on="0"/>
        <pt x="383" y="212" on="0"/>
        <pt x="368" y="212" on="1"/>
        <pt x="329" y="212" on="0"/>
        <pt x="305" y="161" on="1"/>
        <pt x="300" y="104" on="0"/>
        <pt x="300" y="38" on="0"/>
        <pt x="302" y="0" on="1"/>
        <pt x="85" y="0" on="1"/>
        <pt x="66" y="128" on="0"/>
        <pt x="66" y="401" on="0"/>
        <pt x="80" y="499" on="1"/>
        <pt x="614" y="499" on="1"/>
        <pt x="596" y="391" on="0"/>
        <pt x="582" y="348" on="1"/>
        <pt x="474" y="343" on="1"/>
        <pt x="483" y="368" on="0"/>
        <pt x="483" y="386" on="1"/>
        <pt x="483" y="434" on="0"/>
        <pt x="410" y="434" on="1"/>
        <pt x="378" y="434" on="0"/>
        <pt x="351" y="429" on="1"/>
        <pt x="329" y="340" on="0"/>
        <pt x="315" y="247" on="1"/>
        <pt x="355" y="284" on="0"/>
      </contour>
    </TTGlyph>
    <TTGlyph name="G" xMin="29" yMin="-22" xMax="621" yMax="523">
      <contour>
        <pt x="416" y="49" on="1"/>
        <pt x="417" y="91" on="1"/>
        <pt x="417" y="162" on="0"/>
        <pt x="405" y="260" on="1"/>
        <pt x="621" y="260" on="1"/>
        <pt x="621" y="118" on="0"/>
        <pt x="607" y="0" on="1"/>
        <pt x="452" y="-22" on="0"/>
        <pt x="286" y="-22" on="1"/>
        <pt x="222" y="-22" on="1"/>
        <pt x="131" y="17" on="0"/>
        <pt x="29" y="168" on="0"/>
        <pt x="29" y="253" on="1"/>
        <pt x="29" y="366" on="0"/>
        <pt x="212" y="523" on="0"/>
        <pt x="388" y="523" on="1"/>
        <pt x="480" y="523" on="0"/>
        <pt x="593" y="498" on="1"/>
        <pt x="576" y="430" on="0"/>
        <pt x="554" y="378" on="1"/>
        <pt x="493" y="374" on="0"/>
        <pt x="423" y="372" on="1"/>
        <pt x="434" y="406" on="0"/>
        <pt x="439" y="439" on="1"/>
        <pt x="407" y="445" on="0"/>
        <pt x="340" y="445" on="0"/>
        <pt x="294" y="434" on="1"/>
        <pt x="278" y="366" on="0"/>
        <pt x="278" y="311" on="1"/>
        <pt x="278" y="228" on="0"/>
        <pt x="353" y="83" on="0"/>
      </contour>
    </TTGlyph>
    <TTGlyph name="Gbreve" xMin="29" yMin="-22" xMax="621" yMax="680">
      <contour>
        <pt x="416" y="49" on="1"/>
        <pt x="417" y="91" on="1"/>
        <pt x="417" y="162" on="0"/>
        <pt x="405" y="260" on="1"/>
        <pt x="621" y="260" on="1"/>
        <pt x="621" y="118" on="0"/>
        <pt x="607" y="0" on="1"/>
        <pt x="452" y="-22" on="0"/>
        <pt x="286" y="-22" on="1"/>
        <pt x="222" y="-22" on="1"/>
        <pt x="131" y="17" on="0"/>
        <pt x="29" y="168" on="0"/>
        <pt x="29" y="253" on="1"/>
        <pt x="29" y="366" on="0"/>
        <pt x="212" y="523" on="0"/>
        <pt x="388" y="523" on="1"/>
        <pt x="480" y="523" on="0"/>
        <pt x="593" y="498" on="1"/>
        <pt x="576" y="430" on="0"/>
        <pt x="554" y="378" on="1"/>
        <pt x="493" y="374" on="0"/>
        <pt x="423" y="372" on="1"/>
        <pt x="434" y="406" on="0"/>
        <pt x="439" y="439" on="1"/>
        <pt x="407" y="445" on="0"/>
        <pt x="340" y="445" on="0"/>
        <pt x="294" y="434" on="1"/>
        <pt x="278" y="366" on="0"/>
        <pt x="278" y="311" on="1"/>
        <pt x="278" y="228" on="0"/>
        <pt x="353" y="83" on="0"/>
      </contour>
      <contour>
        <pt x="296" y="615" on="1"/>
        <pt x="330" y="593" on="0"/>
        <pt x="426" y="593" on="0"/>
        <pt x="463" y="626" on="1"/>
        <pt x="465" y="626" on="0"/>
        <pt x="443" y="587" on="0"/>
        <pt x="417" y="566" on="1"/>
        <pt x="384" y="538" on="0"/>
        <pt x="275" y="538" on="0"/>
        <pt x="225" y="569" on="1"/>
        <pt x="211" y="577" on="1"/>
        <pt x="216" y="607" on="0"/>
        <pt x="243" y="680" on="0"/>
        <pt x="244" y="680" on="1"/>
      </contour>
    </TTGlyph>
    <TTGlyph name="Gcircumflex" xMin="29" yMin="-22" xMax="621" yMax="673">
      <contour>
        <pt x="388" y="523" on="1"/>
        <pt x="480" y="523" on="0"/>
        <pt x="593" y="498" on="1"/>
        <pt x="576" y="430" on="0"/>
        <pt x="554" y="378" on="1"/>
        <pt x="494" y="374" on="0"/>
        <pt x="423" y="372" on="1"/>
        <pt x="434" y="406" on="0"/>
        <pt x="439" y="439" on="1"/>
        <pt x="408" y="445" on="0"/>
        <pt x="340" y="445" on="0"/>
        <pt x="294" y="434" on="1"/>
        <pt x="278" y="366" on="0"/>
        <pt x="278" y="311" on="1"/>
        <pt x="278" y="228" on="0"/>
        <pt x="353" y="83" on="0"/>
        <pt x="416" y="49" on="1"/>
        <pt x="416" y="56" on="0"/>
        <pt x="417" y="85" on="0"/>
        <pt x="417" y="162" on="0"/>
        <pt x="405" y="260" on="1"/>
        <pt x="621" y="260" on="1"/>
        <pt x="621" y="118" on="0"/>
        <pt x="607" y="0" on="1"/>
        <pt x="452" y="-22" on="0"/>
        <pt x="286" y="-22" on="1"/>
        <pt x="222" y="-22" on="1"/>
        <pt x="131" y="17" on="0"/>
        <pt x="29" y="168" on="0"/>
        <pt x="29" y="253" on="1"/>
        <pt x="29" y="366" on="0"/>
        <pt x="212" y="523" on="0"/>
      </contour>
      <contour>
        <pt x="223" y="558" on="1"/>
        <pt x="313" y="673" on="1"/>
        <pt x="362" y="673" on="1"/>
        <pt x="452" y="558" on="1"/>
        <pt x="420" y="558" on="1"/>
        <pt x="337" y="620" on="1"/>
        <pt x="255" y="558" on="1"/>
      </contour>
    </TTGlyph>
    <TTGlyph name="Gdotaccent" xMin="29" yMin="-22" xMax="621" yMax="678">
      <contour>
        <pt x="416" y="49" on="1"/>
        <pt x="417" y="91" on="1"/>
        <pt x="417" y="162" on="0"/>
        <pt x="405" y="260" on="1"/>
        <pt x="621" y="260" on="1"/>
        <pt x="621" y="118" on="0"/>
        <pt x="607" y="0" on="1"/>
        <pt x="452" y="-22" on="0"/>
        <pt x="286" y="-22" on="1"/>
        <pt x="222" y="-22" on="1"/>
        <pt x="131" y="17" on="0"/>
        <pt x="29" y="168" on="0"/>
        <pt x="29" y="253" on="1"/>
        <pt x="29" y="366" on="0"/>
        <pt x="212" y="523" on="0"/>
        <pt x="388" y="523" on="1"/>
        <pt x="480" y="523" on="0"/>
        <pt x="593" y="498" on="1"/>
        <pt x="576" y="430" on="0"/>
        <pt x="554" y="378" on="1"/>
        <pt x="493" y="374" on="0"/>
        <pt x="423" y="372" on="1"/>
        <pt x="434" y="406" on="0"/>
        <pt x="439" y="439" on="1"/>
        <pt x="407" y="445" on="0"/>
        <pt x="340" y="445" on="0"/>
        <pt x="294" y="434" on="1"/>
        <pt x="278" y="366" on="0"/>
        <pt x="278" y="311" on="1"/>
        <pt x="278" y="228" on="0"/>
        <pt x="353" y="83" on="0"/>
      </contour>
      <contour>
        <pt x="369" y="576" on="1"/>
        <pt x="329" y="575" on="1"/>
        <pt x="309" y="575" on="0"/>
        <pt x="271" y="577" on="1"/>
        <pt x="296" y="636" on="0"/>
        <pt x="301" y="678" on="1"/>
        <pt x="354" y="673" on="0"/>
        <pt x="403" y="672" on="1"/>
        <pt x="391" y="618" on="0"/>
      </contour>
    </TTGlyph>
    <TTGlyph name="H" xMin="63" yMin="0" xMax="699" yMax="500">
      <contour>
        <pt x="699" y="417" on="1"/>
        <pt x="699" y="221" on="0"/>
        <pt x="661" y="0" on="1"/>
        <pt x="422" y="0" on="1"/>
        <pt x="438" y="118" on="0"/>
        <pt x="443" y="254" on="1"/>
        <pt x="391" y="286" on="0"/>
        <pt x="327" y="293" on="1"/>
        <pt x="321" y="146" on="0"/>
        <pt x="295" y="0" on="1"/>
        <pt x="68" y="0" on="1"/>
        <pt x="81" y="98" on="0"/>
        <pt x="81" y="371" on="0"/>
        <pt x="63" y="500" on="1"/>
        <pt x="327" y="500" on="1"/>
        <pt x="329" y="459" on="0"/>
        <pt x="329" y="378" on="1"/>
        <pt x="387" y="360" on="0"/>
        <pt x="444" y="329" on="1"/>
        <pt x="444" y="422" on="0"/>
        <pt x="437" y="500" on="1"/>
        <pt x="697" y="500" on="1"/>
        <pt x="699" y="444" on="0"/>
      </contour>
    </TTGlyph>
    <TTGlyph name="Hcircumflex" xMin="63" yMin="0" xMax="699" yMax="673">
      <contour>
        <pt x="63" y="500" on="1"/>
        <pt x="63" y="500" on="0"/>
        <pt x="327" y="500" on="1"/>
        <pt x="329" y="459" on="0"/>
        <pt x="329" y="378" on="1"/>
        <pt x="387" y="360" on="0"/>
        <pt x="444" y="329" on="1"/>
        <pt x="444" y="422" on="0"/>
        <pt x="437" y="500" on="1"/>
        <pt x="697" y="500" on="1"/>
        <pt x="699" y="444" on="0"/>
        <pt x="699" y="417" on="1"/>
        <pt x="699" y="221" on="0"/>
        <pt x="661" y="0" on="1"/>
        <pt x="422" y="0" on="1"/>
        <pt x="438" y="118" on="0"/>
        <pt x="443" y="254" on="1"/>
        <pt x="391" y="286" on="0"/>
        <pt x="327" y="293" on="1"/>
        <pt x="321" y="146" on="0"/>
        <pt x="295" y="0" on="1"/>
        <pt x="68" y="0" on="1"/>
        <pt x="81" y="98" on="0"/>
        <pt x="81" y="371" on="0"/>
      </contour>
      <contour>
        <pt x="255" y="558" on="1"/>
        <pt x="345" y="673" on="1"/>
        <pt x="394" y="673" on="1"/>
        <pt x="484" y="558" on="1"/>
        <pt x="452" y="558" on="1"/>
        <pt x="369" y="620" on="1"/>
        <pt x="287" y="558" on="1"/>
      </contour>
    </TTGlyph>
    <TTGlyph name="I" xMin="68" yMin="0" xMax="341" yMax="500">
      <contour>
        <pt x="341" y="500" on="1"/>
        <pt x="341" y="473" on="1"/>
        <pt x="341" y="209" on="0"/>
        <pt x="308" y="0" on="1"/>
        <pt x="68" y="0" on="1"/>
        <pt x="87" y="92" on="0"/>
        <pt x="87" y="333" on="0"/>
        <pt x="71" y="500" on="1"/>
      </contour>
    </TTGlyph>
    <TTGlyph name="Iacute" xMin="68" yMin="0" xMax="341" yMax="680">
      <contour>
        <pt x="341" y="500" on="1"/>
        <pt x="341" y="473" on="1"/>
        <pt x="341" y="209" on="0"/>
        <pt x="308" y="0" on="1"/>
        <pt x="68" y="0" on="1"/>
        <pt x="87" y="92" on="0"/>
        <pt x="87" y="333" on="0"/>
        <pt x="71" y="500" on="1"/>
      </contour>
      <contour>
        <pt x="194" y="680" on="1"/>
        <pt x="305" y="666" on="1"/>
        <pt x="291" y="639" on="0"/>
        <pt x="240" y="593" on="0"/>
        <pt x="194" y="567" on="0"/>
        <pt x="157" y="550" on="1"/>
        <pt x="91" y="550" on="1"/>
        <pt x="163" y="597" on="0"/>
      </contour>
    </TTGlyph>
    <TTGlyph name="Icircumflex" xMin="68" yMin="0" xMax="341" yMax="673">
      <contour>
        <pt x="341" y="500" on="1"/>
        <pt x="341" y="473" on="1"/>
        <pt x="341" y="209" on="0"/>
        <pt x="308" y="0" on="1"/>
        <pt x="68" y="0" on="1"/>
        <pt x="87" y="92" on="0"/>
        <pt x="87" y="333" on="0"/>
        <pt x="71" y="500" on="1"/>
      </contour>
      <contour>
        <pt x="83" y="558" on="1"/>
        <pt x="173" y="673" on="1"/>
        <pt x="222" y="673" on="1"/>
        <pt x="312" y="558" on="1"/>
        <pt x="280" y="558" on="1"/>
        <pt x="197" y="620" on="1"/>
        <pt x="115" y="558" on="1"/>
      </contour>
    </TTGlyph>
    <TTGlyph name="Idieresis" xMin="42" yMin="0" xMax="353" yMax="678">
      <contour>
        <pt x="341" y="500" on="1"/>
        <pt x="341" y="473" on="1"/>
        <pt x="341" y="209" on="0"/>
        <pt x="308" y="0" on="1"/>
        <pt x="68" y="0" on="1"/>
        <pt x="87" y="92" on="0"/>
        <pt x="87" y="333" on="0"/>
        <pt x="71" y="500" on="1"/>
      </contour>
      <contour>
        <pt x="140" y="576" on="1"/>
        <pt x="100" y="575" on="1"/>
        <pt x="80" y="575" on="0"/>
        <pt x="42" y="577" on="1"/>
        <pt x="67" y="636" on="0"/>
        <pt x="72" y="678" on="1"/>
        <pt x="125" y="673" on="0"/>
        <pt x="174" y="672" on="1"/>
        <pt x="162" y="618" on="0"/>
      </contour>
      <contour>
        <pt x="319" y="576" on="1"/>
        <pt x="278" y="575" on="1"/>
        <pt x="259" y="575" on="0"/>
        <pt x="221" y="577" on="1"/>
        <pt x="245" y="638" on="0"/>
        <pt x="251" y="678" on="1"/>
        <pt x="303" y="673" on="0"/>
        <pt x="353" y="672" on="1"/>
        <pt x="339" y="616" on="0"/>
      </contour>
    </TTGlyph>
    <TTGlyph name="Idotaccent" xMin="66" yMin="0" xMax="332" yMax="678">
      <contour>
        <pt x="332" y="398" on="1"/>
        <pt x="332" y="189" on="0"/>
        <pt x="298" y="0" on="1"/>
        <pt x="71" y="0" on="1"/>
        <pt x="85" y="107" on="0"/>
        <pt x="85" y="364" on="0"/>
        <pt x="66" y="500" on="1"/>
        <pt x="330" y="500" on="1"/>
        <pt x="332" y="432" on="0"/>
      </contour>
      <contour>
        <pt x="165" y="678" on="1"/>
        <pt x="218" y="673" on="0"/>
        <pt x="269" y="672" on="1"/>
        <pt x="257" y="619" on="0"/>
        <pt x="234" y="575" on="1"/>
        <pt x="167" y="575" on="0"/>
        <pt x="134" y="576" on="1"/>
        <pt x="159" y="636" on="0"/>
      </contour>
    </TTGlyph>
    <TTGlyph name="Igrave" xMin="68" yMin="0" xMax="341" yMax="680">
      <contour>
        <pt x="341" y="500" on="1"/>
        <pt x="341" y="473" on="1"/>
        <pt x="341" y="209" on="0"/>
        <pt x="308" y="0" on="1"/>
        <pt x="68" y="0" on="1"/>
        <pt x="87" y="92" on="0"/>
        <pt x="87" y="333" on="0"/>
        <pt x="71" y="500" on="1"/>
      </contour>
      <contour>
        <pt x="202" y="680" on="1"/>
        <pt x="233" y="597" on="0"/>
        <pt x="305" y="550" on="1"/>
        <pt x="239" y="550" on="1"/>
        <pt x="202" y="567" on="0"/>
        <pt x="156" y="593" on="0"/>
        <pt x="105" y="639" on="0"/>
        <pt x="91" y="666" on="1"/>
      </contour>
    </TTGlyph>
    <TTGlyph name="Imacron" xMin="7" yMin="0" xMax="405" yMax="655">
      <contour>
        <pt x="7" y="655" on="1"/>
        <pt x="117" y="650" on="0"/>
        <pt x="285" y="650" on="0"/>
        <pt x="405" y="655" on="1"/>
        <pt x="405" y="581" on="1"/>
        <pt x="279" y="588" on="0"/>
        <pt x="126" y="588" on="0"/>
        <pt x="7" y="581" on="1"/>
      </contour>
      <contour>
        <pt x="341" y="500" on="1"/>
        <pt x="341" y="473" on="1"/>
        <pt x="341" y="209" on="0"/>
        <pt x="308" y="0" on="1"/>
        <pt x="68" y="0" on="1"/>
        <pt x="87" y="92" on="0"/>
        <pt x="87" y="333" on="0"/>
        <pt x="71" y="500" on="1"/>
      </contour>
    </TTGlyph>
    <TTGlyph name="Iogonek" xMin="68" yMin="-174" xMax="341" yMax="500">
      <contour>
        <pt x="179" y="-96" on="1"/>
        <pt x="179" y="-136" on="0"/>
        <pt x="215" y="-136" on="1"/>
        <pt x="233" y="-136" on="0"/>
        <pt x="252" y="-118" on="1"/>
        <pt x="254" y="-128" on="0"/>
        <pt x="257" y="-139" on="1"/>
        <pt x="231" y="-174" on="0"/>
        <pt x="156" y="-174" on="0"/>
        <pt x="114" y="-132" on="0"/>
        <pt x="114" y="-106" on="1"/>
        <pt x="114" y="-47" on="0"/>
        <pt x="183" y="0" on="1"/>
        <pt x="68" y="0" on="1"/>
        <pt x="87" y="92" on="0"/>
        <pt x="87" y="333" on="0"/>
        <pt x="71" y="500" on="1"/>
        <pt x="341" y="500" on="1"/>
        <pt x="341" y="473" on="1"/>
        <pt x="341" y="209" on="0"/>
        <pt x="308" y="0" on="1"/>
        <pt x="231" y="0" on="1"/>
        <pt x="179" y="-42" on="0"/>
      </contour>
    </TTGlyph>
    <TTGlyph name="Itilde" xMin="54" yMin="0" xMax="341" yMax="685">
      <contour>
        <pt x="341" y="500" on="1"/>
        <pt x="341" y="473" on="1"/>
        <pt x="341" y="209" on="0"/>
        <pt x="308" y="0" on="1"/>
        <pt x="68" y="0" on="1"/>
        <pt x="87" y="92" on="0"/>
        <pt x="87" y="333" on="0"/>
        <pt x="71" y="500" on="1"/>
      </contour>
      <contour>
        <pt x="304" y="598" on="0"/>
        <pt x="263" y="575" on="0"/>
        <pt x="204" y="575" on="0"/>
        <pt x="136" y="616" on="0"/>
        <pt x="120" y="616" on="1"/>
        <pt x="83" y="616" on="0"/>
        <pt x="54" y="583" on="1"/>
        <pt x="67" y="623" on="1"/>
        <pt x="79" y="637" on="0"/>
        <pt x="116" y="660" on="0"/>
        <pt x="159" y="660" on="0"/>
        <pt x="220" y="638" on="0"/>
        <pt x="242" y="638" on="1"/>
        <pt x="296" y="638" on="0"/>
        <pt x="341" y="685" on="1"/>
        <pt x="337" y="677" on="0"/>
        <pt x="317" y="619" on="0"/>
      </contour>
    </TTGlyph>
    <TTGlyph name="J" xMin="5" yMin="-115" xMax="448" yMax="500">
      <contour>
        <pt x="192" y="-45" on="1"/>
        <pt x="199" y="33" on="0"/>
        <pt x="199" y="308" on="0"/>
        <pt x="176" y="500" on="1"/>
        <pt x="446" y="500" on="1"/>
        <pt x="448" y="462" on="0"/>
        <pt x="448" y="383" on="1"/>
        <pt x="448" y="171" on="0"/>
        <pt x="420" y="0" on="1"/>
        <pt x="381" y="-37" on="0"/>
        <pt x="315" y="-72" on="0"/>
        <pt x="291" y="-85" on="0"/>
        <pt x="229" y="-112" on="0"/>
        <pt x="223" y="-115" on="1"/>
        <pt x="95" y="-105" on="0"/>
        <pt x="5" y="-70" on="1"/>
        <pt x="7" y="-4" on="0"/>
        <pt x="11" y="52" on="1"/>
        <pt x="104" y="-15" on="0"/>
      </contour>
    </TTGlyph>
    <TTGlyph name="Jcircumflex" xMin="5" yMin="-115" xMax="448" yMax="673">
      <contour>
        <pt x="192" y="-45" on="1"/>
        <pt x="199" y="33" on="0"/>
        <pt x="199" y="308" on="0"/>
        <pt x="176" y="500" on="1"/>
        <pt x="446" y="500" on="1"/>
        <pt x="448" y="462" on="0"/>
        <pt x="448" y="383" on="1"/>
        <pt x="448" y="171" on="0"/>
        <pt x="420" y="0" on="1"/>
        <pt x="381" y="-37" on="0"/>
        <pt x="315" y="-72" on="0"/>
        <pt x="291" y="-85" on="0"/>
        <pt x="229" y="-112" on="0"/>
        <pt x="223" y="-115" on="1"/>
        <pt x="95" y="-105" on="0"/>
        <pt x="5" y="-70" on="1"/>
        <pt x="7" y="-4" on="0"/>
        <pt x="11" y="52" on="1"/>
        <pt x="104" y="-15" on="0"/>
      </contour>
      <contour>
        <pt x="201" y="558" on="1"/>
        <pt x="291" y="673" on="1"/>
        <pt x="340" y="673" on="1"/>
        <pt x="430" y="558" on="1"/>
        <pt x="398" y="558" on="1"/>
        <pt x="315" y="620" on="1"/>
        <pt x="233" y="558" on="1"/>
      </contour>
    </TTGlyph>
    <TTGlyph name="K" xMin="41" yMin="0" xMax="698" yMax="522">
      <contour>
        <pt x="570" y="507" on="1"/>
        <pt x="603" y="507" on="1"/>
        <pt x="667" y="507" on="0"/>
        <pt x="698" y="522" on="1"/>
        <pt x="654" y="457" on="0"/>
        <pt x="613" y="409" on="1"/>
        <pt x="597" y="409" on="1"/>
        <pt x="546" y="409" on="0"/>
        <pt x="498" y="425" on="1"/>
        <pt x="430" y="369" on="0"/>
        <pt x="389" y="276" on="1"/>
        <pt x="495" y="249" on="0"/>
        <pt x="625" y="244" on="1"/>
        <pt x="655" y="168" on="0"/>
        <pt x="666" y="0" on="1"/>
        <pt x="407" y="0" on="1"/>
        <pt x="390" y="74" on="0"/>
        <pt x="321" y="199" on="0"/>
        <pt x="284" y="222" on="1"/>
        <pt x="277" y="140" on="0"/>
        <pt x="277" y="40" on="0"/>
        <pt x="280" y="0" on="1"/>
        <pt x="60" y="0" on="1"/>
        <pt x="41" y="147" on="0"/>
        <pt x="41" y="350" on="0"/>
        <pt x="56" y="500" on="1"/>
        <pt x="334" y="500" on="1"/>
        <pt x="304" y="376" on="0"/>
        <pt x="293" y="292" on="1"/>
        <pt x="338" y="366" on="0"/>
        <pt x="437" y="467" on="0"/>
        <pt x="505" y="502" on="1"/>
        <pt x="531" y="507" on="0"/>
      </contour>
    </TTGlyph>
    <TTGlyph name="L" xMin="40" yMin="0" xMax="590" yMax="500">
      <contour>
        <pt x="321" y="66" on="0"/>
        <pt x="407" y="66" on="0"/>
        <pt x="458" y="105" on="0"/>
        <pt x="470" y="153" on="1"/>
        <pt x="590" y="149" on="1"/>
        <pt x="575" y="59" on="0"/>
        <pt x="550" y="0" on="1"/>
        <pt x="59" y="0" on="1"/>
        <pt x="40" y="128" on="0"/>
        <pt x="40" y="402" on="0"/>
        <pt x="54" y="500" on="1"/>
        <pt x="342" y="500" on="1"/>
        <pt x="276" y="247" on="0"/>
        <pt x="274" y="77" on="1"/>
      </contour>
    </TTGlyph>
    <TTGlyph name="Lacute" xMin="40" yMin="0" xMax="590" yMax="680">
      <contour>
        <pt x="321" y="66" on="0"/>
        <pt x="407" y="66" on="0"/>
        <pt x="458" y="105" on="0"/>
        <pt x="470" y="153" on="1"/>
        <pt x="590" y="149" on="1"/>
        <pt x="575" y="59" on="0"/>
        <pt x="550" y="0" on="1"/>
        <pt x="59" y="0" on="1"/>
        <pt x="40" y="128" on="0"/>
        <pt x="40" y="402" on="0"/>
        <pt x="54" y="500" on="1"/>
        <pt x="342" y="500" on="1"/>
        <pt x="276" y="247" on="0"/>
        <pt x="274" y="77" on="1"/>
      </contour>
      <contour>
        <pt x="248" y="680" on="1"/>
        <pt x="359" y="666" on="1"/>
        <pt x="345" y="639" on="0"/>
        <pt x="294" y="593" on="0"/>
        <pt x="248" y="567" on="0"/>
        <pt x="211" y="550" on="1"/>
        <pt x="145" y="550" on="1"/>
        <pt x="217" y="597" on="0"/>
      </contour>
    </TTGlyph>
    <TTGlyph name="Lcaron" xMin="40" yMin="0" xMax="590" yMax="669">
      <contour>
        <pt x="186" y="554" on="1"/>
        <pt x="96" y="669" on="1"/>
        <pt x="128" y="669" on="1"/>
        <pt x="210" y="607" on="1"/>
        <pt x="293" y="669" on="1"/>
        <pt x="325" y="669" on="1"/>
        <pt x="235" y="554" on="1"/>
      </contour>
      <contour>
        <pt x="321" y="66" on="0"/>
        <pt x="407" y="66" on="0"/>
        <pt x="458" y="105" on="0"/>
        <pt x="470" y="153" on="1"/>
        <pt x="590" y="149" on="1"/>
        <pt x="575" y="59" on="0"/>
        <pt x="550" y="0" on="1"/>
        <pt x="59" y="0" on="1"/>
        <pt x="40" y="128" on="0"/>
        <pt x="40" y="402" on="0"/>
        <pt x="54" y="500" on="1"/>
        <pt x="342" y="500" on="1"/>
        <pt x="276" y="247" on="0"/>
        <pt x="274" y="77" on="1"/>
      </contour>
    </TTGlyph>
    <TTGlyph name="Lslash" xMin="11" yMin="0" xMax="605" yMax="500">
      <contour>
        <pt x="12" y="116" on="1"/>
        <pt x="11" y="148" on="1"/>
        <pt x="11" y="160" on="0"/>
        <pt x="13" y="188" on="1"/>
        <pt x="13" y="192" on="0"/>
        <pt x="55" y="208" on="1"/>
        <pt x="54" y="230" on="0"/>
        <pt x="54" y="399" on="0"/>
        <pt x="68" y="500" on="1"/>
        <pt x="357" y="500" on="1"/>
        <pt x="335" y="417" on="0"/>
        <pt x="319" y="335" on="1"/>
        <pt x="389" y="374" on="0"/>
        <pt x="428" y="406" on="1"/>
        <pt x="414" y="352" on="0"/>
        <pt x="392" y="307" on="1"/>
        <pt x="359" y="293" on="0"/>
        <pt x="307" y="269" on="1"/>
        <pt x="290" y="161" on="0"/>
        <pt x="289" y="76" on="1"/>
        <pt x="342" y="65" on="0"/>
        <pt x="422" y="65" on="0"/>
        <pt x="473" y="105" on="0"/>
        <pt x="484" y="153" on="1"/>
        <pt x="605" y="148" on="1"/>
        <pt x="590" y="60" on="0"/>
        <pt x="565" y="0" on="1"/>
        <pt x="74" y="0" on="1"/>
        <pt x="64" y="63" on="0"/>
        <pt x="59" y="143" on="1"/>
      </contour>
    </TTGlyph>
    <TTGlyph name="M" xMin="36" yMin="0" xMax="1006" yMax="500">
      <contour>
        <pt x="657" y="454" on="1"/>
        <pt x="657" y="481" on="0"/>
        <pt x="649" y="500" on="1"/>
        <pt x="934" y="500" on="1"/>
        <pt x="970" y="404" on="0"/>
        <pt x="1005" y="126" on="0"/>
        <pt x="1006" y="0" on="1"/>
        <pt x="775" y="0" on="1"/>
        <pt x="768" y="180" on="0"/>
        <pt x="716" y="347" on="1"/>
        <pt x="629" y="177" on="0"/>
        <pt x="622" y="0" on="1"/>
        <pt x="426" y="0" on="1"/>
        <pt x="400" y="196" on="0"/>
        <pt x="326" y="348" on="1"/>
        <pt x="272" y="221" on="0"/>
        <pt x="272" y="112" on="1"/>
        <pt x="272" y="53" on="0"/>
        <pt x="286" y="0" on="1"/>
        <pt x="43" y="0" on="1"/>
        <pt x="36" y="41" on="0"/>
        <pt x="36" y="176" on="0"/>
        <pt x="56" y="244" on="1"/>
        <pt x="127" y="265" on="0"/>
        <pt x="258" y="361" on="0"/>
        <pt x="289" y="418" on="1"/>
        <pt x="263" y="461" on="0"/>
        <pt x="234" y="500" on="1"/>
        <pt x="550" y="500" on="1"/>
        <pt x="588" y="397" on="0"/>
        <pt x="607" y="276" on="1"/>
        <pt x="657" y="369" on="0"/>
      </contour>
    </TTGlyph>
    <TTGlyph name="N" xMin="23" yMin="0" xMax="652" yMax="500">
      <contour>
        <pt x="646" y="500" on="1"/>
        <pt x="652" y="395" on="0"/>
        <pt x="652" y="162" on="0"/>
        <pt x="642" y="0" on="1"/>
        <pt x="546" y="0" on="1"/>
        <pt x="352" y="104" on="0"/>
        <pt x="190" y="283" on="1"/>
        <pt x="198" y="216" on="0"/>
        <pt x="198" y="75" on="0"/>
        <pt x="193" y="0" on="1"/>
        <pt x="76" y="0" on="1"/>
        <pt x="96" y="123" on="0"/>
        <pt x="96" y="332" on="0"/>
        <pt x="86" y="393" on="1"/>
        <pt x="46" y="453" on="0"/>
        <pt x="23" y="500" on="1"/>
        <pt x="307" y="500" on="1"/>
        <pt x="349" y="428" on="0"/>
        <pt x="494" y="275" on="0"/>
        <pt x="560" y="232" on="1"/>
        <pt x="560" y="378" on="0"/>
        <pt x="527" y="500" on="1"/>
      </contour>
    </TTGlyph>
    <TTGlyph name="Nacute" xMin="23" yMin="0" xMax="652" yMax="680">
      <contour>
        <pt x="646" y="500" on="1"/>
        <pt x="652" y="395" on="0"/>
        <pt x="652" y="162" on="0"/>
        <pt x="642" y="0" on="1"/>
        <pt x="546" y="0" on="1"/>
        <pt x="352" y="104" on="0"/>
        <pt x="190" y="283" on="1"/>
        <pt x="198" y="216" on="0"/>
        <pt x="198" y="75" on="0"/>
        <pt x="193" y="0" on="1"/>
        <pt x="76" y="0" on="1"/>
        <pt x="96" y="123" on="0"/>
        <pt x="96" y="332" on="0"/>
        <pt x="86" y="393" on="1"/>
        <pt x="46" y="453" on="0"/>
        <pt x="23" y="500" on="1"/>
        <pt x="307" y="500" on="1"/>
        <pt x="349" y="428" on="0"/>
        <pt x="494" y="275" on="0"/>
        <pt x="560" y="232" on="1"/>
        <pt x="560" y="378" on="0"/>
        <pt x="527" y="500" on="1"/>
      </contour>
      <contour>
        <pt x="353" y="680" on="1"/>
        <pt x="464" y="666" on="1"/>
        <pt x="450" y="639" on="0"/>
        <pt x="399" y="593" on="0"/>
        <pt x="353" y="567" on="0"/>
        <pt x="316" y="550" on="1"/>
        <pt x="250" y="550" on="1"/>
        <pt x="322" y="597" on="0"/>
      </contour>
    </TTGlyph>
    <TTGlyph name="Ncaron" xMin="23" yMin="0" xMax="652" yMax="669">
      <contour>
        <pt x="646" y="500" on="1"/>
        <pt x="652" y="395" on="0"/>
        <pt x="652" y="162" on="0"/>
        <pt x="642" y="0" on="1"/>
        <pt x="546" y="0" on="1"/>
        <pt x="352" y="104" on="0"/>
        <pt x="190" y="283" on="1"/>
        <pt x="198" y="216" on="0"/>
        <pt x="198" y="75" on="0"/>
        <pt x="193" y="0" on="1"/>
        <pt x="76" y="0" on="1"/>
        <pt x="96" y="123" on="0"/>
        <pt x="96" y="332" on="0"/>
        <pt x="86" y="393" on="1"/>
        <pt x="46" y="453" on="0"/>
        <pt x="23" y="500" on="1"/>
        <pt x="307" y="500" on="1"/>
        <pt x="349" y="428" on="0"/>
        <pt x="494" y="275" on="0"/>
        <pt x="560" y="232" on="1"/>
        <pt x="560" y="378" on="0"/>
        <pt x="527" y="500" on="1"/>
      </contour>
      <contour>
        <pt x="333" y="554" on="1"/>
        <pt x="243" y="669" on="1"/>
        <pt x="275" y="669" on="1"/>
        <pt x="357" y="607" on="1"/>
        <pt x="440" y="669" on="1"/>
        <pt x="472" y="669" on="1"/>
        <pt x="382" y="554" on="1"/>
      </contour>
    </TTGlyph>
    <TTGlyph name="Ntilde" xMin="23" yMin="0" xMax="652" yMax="685">
      <contour>
        <pt x="646" y="500" on="1"/>
        <pt x="652" y="395" on="0"/>
        <pt x="652" y="162" on="0"/>
        <pt x="642" y="0" on="1"/>
        <pt x="546" y="0" on="1"/>
        <pt x="352" y="104" on="0"/>
        <pt x="190" y="283" on="1"/>
        <pt x="198" y="216" on="0"/>
        <pt x="198" y="75" on="0"/>
        <pt x="193" y="0" on="1"/>
        <pt x="76" y="0" on="1"/>
        <pt x="96" y="123" on="0"/>
        <pt x="96" y="332" on="0"/>
        <pt x="86" y="393" on="1"/>
        <pt x="46" y="453" on="0"/>
        <pt x="23" y="500" on="1"/>
        <pt x="307" y="500" on="1"/>
        <pt x="349" y="428" on="0"/>
        <pt x="494" y="275" on="0"/>
        <pt x="560" y="232" on="1"/>
        <pt x="560" y="378" on="0"/>
        <pt x="527" y="500" on="1"/>
      </contour>
      <contour>
        <pt x="464" y="598" on="0"/>
        <pt x="423" y="575" on="0"/>
        <pt x="364" y="575" on="0"/>
        <pt x="296" y="616" on="0"/>
        <pt x="280" y="616" on="1"/>
        <pt x="243" y="616" on="0"/>
        <pt x="214" y="583" on="1"/>
        <pt x="227" y="623" on="1"/>
        <pt x="239" y="637" on="0"/>
        <pt x="276" y="660" on="0"/>
        <pt x="319" y="660" on="0"/>
        <pt x="380" y="638" on="0"/>
        <pt x="402" y="638" on="1"/>
        <pt x="456" y="638" on="0"/>
        <pt x="501" y="685" on="1"/>
        <pt x="497" y="677" on="0"/>
        <pt x="477" y="619" on="0"/>
      </contour>
    </TTGlyph>
    <TTGlyph name="O" xMin="34" yMin="-22" xMax="627" yMax="523">
      <contour>
        <pt x="123" y="3" on="1"/>
        <pt x="34" y="117" on="0"/>
        <pt x="34" y="357" on="0"/>
        <pt x="234" y="523" on="0"/>
        <pt x="390" y="523" on="1"/>
        <pt x="473" y="523" on="0"/>
        <pt x="555" y="498" on="1"/>
        <pt x="627" y="407" on="0"/>
        <pt x="627" y="303" on="1"/>
        <pt x="627" y="172" on="0"/>
        <pt x="413" y="-22" on="0"/>
        <pt x="261" y="-22" on="1"/>
        <pt x="196" y="-22" on="0"/>
      </contour>
      <contour>
        <pt x="275" y="436" on="1"/>
        <pt x="240" y="376" on="0"/>
        <pt x="240" y="214" on="0"/>
        <pt x="311" y="77" on="0"/>
        <pt x="373" y="47" on="1"/>
        <pt x="420" y="107" on="0"/>
        <pt x="420" y="265" on="0"/>
        <pt x="343" y="401" on="0"/>
      </contour>
    </TTGlyph>
    <TTGlyph name="OE" xMin="30" yMin="-22" xMax="895" yMax="523">
      <contour>
        <pt x="695" y="299" on="1"/>
        <pt x="789" y="293" on="1"/>
        <pt x="803" y="293" on="0"/>
        <pt x="810" y="294" on="1"/>
        <pt x="763" y="206" on="1"/>
        <pt x="754" y="206" on="1"/>
        <pt x="735" y="206" on="0"/>
        <pt x="665" y="227" on="0"/>
        <pt x="650" y="227" on="1"/>
        <pt x="609" y="227" on="0"/>
        <pt x="585" y="174" on="1"/>
        <pt x="581" y="125" on="0"/>
        <pt x="579" y="76" on="1"/>
        <pt x="631" y="66" on="0"/>
        <pt x="661" y="66" on="1"/>
        <pt x="670" y="66" on="1"/>
        <pt x="713" y="66" on="0"/>
        <pt x="764" y="104" on="0"/>
        <pt x="775" y="153" on="1"/>
        <pt x="895" y="148" on="1"/>
        <pt x="880" y="62" on="0"/>
        <pt x="855" y="0" on="1"/>
        <pt x="439" y="0" on="1"/>
        <pt x="339" y="-22" on="0"/>
        <pt x="188" y="-22" on="0"/>
        <pt x="117" y="1" on="1"/>
        <pt x="30" y="114" on="0"/>
        <pt x="30" y="353" on="0"/>
        <pt x="224" y="523" on="0"/>
        <pt x="375" y="523" on="1"/>
        <pt x="413" y="523" on="0"/>
        <pt x="501" y="502" on="0"/>
        <pt x="510" y="500" on="1"/>
        <pt x="894" y="500" on="1"/>
        <pt x="877" y="395" on="0"/>
        <pt x="862" y="348" on="1"/>
        <pt x="803" y="345" on="0"/>
        <pt x="754" y="344" on="1"/>
        <pt x="763" y="369" on="0"/>
        <pt x="763" y="392" on="1"/>
        <pt x="763" y="435" on="0"/>
        <pt x="690" y="435" on="1"/>
        <pt x="658" y="435" on="0"/>
        <pt x="630" y="430" on="1"/>
        <pt x="608" y="337" on="0"/>
        <pt x="596" y="262" on="1"/>
        <pt x="636" y="299" on="0"/>
      </contour>
      <contour>
        <pt x="266" y="431" on="1"/>
        <pt x="231" y="370" on="0"/>
        <pt x="231" y="213" on="0"/>
        <pt x="301" y="80" on="0"/>
        <pt x="361" y="51" on="1"/>
        <pt x="413" y="118" on="0"/>
        <pt x="413" y="283" on="0"/>
        <pt x="338" y="404" on="0"/>
      </contour>
    </TTGlyph>
    <TTGlyph name="Oacute" xMin="34" yMin="-22" xMax="627" yMax="680">
      <contour>
        <pt x="123" y="3" on="1"/>
        <pt x="34" y="117" on="0"/>
        <pt x="34" y="357" on="0"/>
        <pt x="234" y="523" on="0"/>
        <pt x="390" y="523" on="1"/>
        <pt x="473" y="523" on="0"/>
        <pt x="555" y="498" on="1"/>
        <pt x="627" y="407" on="0"/>
        <pt x="627" y="303" on="1"/>
        <pt x="627" y="172" on="0"/>
        <pt x="413" y="-22" on="0"/>
        <pt x="261" y="-22" on="1"/>
        <pt x="196" y="-22" on="0"/>
      </contour>
      <contour>
        <pt x="275" y="436" on="1"/>
        <pt x="240" y="376" on="0"/>
        <pt x="240" y="214" on="0"/>
        <pt x="311" y="77" on="0"/>
        <pt x="373" y="47" on="1"/>
        <pt x="420" y="107" on="0"/>
        <pt x="420" y="265" on="0"/>
        <pt x="343" y="401" on="0"/>
      </contour>
      <contour>
        <pt x="325" y="680" on="1"/>
        <pt x="436" y="666" on="1"/>
        <pt x="422" y="639" on="0"/>
        <pt x="371" y="593" on="0"/>
        <pt x="325" y="567" on="0"/>
        <pt x="288" y="550" on="1"/>
        <pt x="222" y="550" on="1"/>
        <pt x="294" y="597" on="0"/>
      </contour>
    </TTGlyph>
    <TTGlyph name="Ocircumflex" xMin="34" yMin="-22" xMax="627" yMax="673">
      <contour>
        <pt x="261" y="-22" on="1"/>
        <pt x="196" y="-22" on="0"/>
        <pt x="123" y="3" on="1"/>
        <pt x="34" y="117" on="0"/>
        <pt x="34" y="357" on="0"/>
        <pt x="234" y="523" on="0"/>
        <pt x="390" y="523" on="1"/>
        <pt x="473" y="523" on="0"/>
        <pt x="555" y="498" on="1"/>
        <pt x="627" y="407" on="0"/>
        <pt x="627" y="303" on="1"/>
        <pt x="627" y="172" on="0"/>
        <pt x="413" y="-22" on="0"/>
      </contour>
      <contour>
        <pt x="420" y="265" on="0"/>
        <pt x="343" y="401" on="0"/>
        <pt x="275" y="436" on="1"/>
        <pt x="240" y="376" on="0"/>
        <pt x="240" y="214" on="0"/>
        <pt x="311" y="77" on="0"/>
        <pt x="373" y="47" on="1"/>
        <pt x="420" y="107" on="0"/>
      </contour>
      <contour>
        <pt x="214" y="558" on="1"/>
        <pt x="304" y="673" on="1"/>
        <pt x="353" y="673" on="1"/>
        <pt x="443" y="558" on="1"/>
        <pt x="411" y="558" on="1"/>
        <pt x="328" y="620" on="1"/>
        <pt x="246" y="558" on="1"/>
      </contour>
    </TTGlyph>
    <TTGlyph name="Odieresis" xMin="34" yMin="-22" xMax="627" yMax="678">
      <contour>
        <pt x="123" y="3" on="1"/>
        <pt x="34" y="117" on="0"/>
        <pt x="34" y="357" on="0"/>
        <pt x="234" y="523" on="0"/>
        <pt x="390" y="523" on="1"/>
        <pt x="473" y="523" on="0"/>
        <pt x="555" y="498" on="1"/>
        <pt x="627" y="407" on="0"/>
        <pt x="627" y="303" on="1"/>
        <pt x="627" y="172" on="0"/>
        <pt x="413" y="-22" on="0"/>
        <pt x="261" y="-22" on="1"/>
        <pt x="196" y="-22" on="0"/>
      </contour>
      <contour>
        <pt x="275" y="436" on="1"/>
        <pt x="240" y="376" on="0"/>
        <pt x="240" y="214" on="0"/>
        <pt x="311" y="77" on="0"/>
        <pt x="373" y="47" on="1"/>
        <pt x="420" y="107" on="0"/>
        <pt x="420" y="265" on="0"/>
        <pt x="343" y="401" on="0"/>
      </contour>
      <contour>
        <pt x="271" y="576" on="1"/>
        <pt x="231" y="575" on="1"/>
        <pt x="211" y="575" on="0"/>
        <pt x="173" y="577" on="1"/>
        <pt x="198" y="636" on="0"/>
        <pt x="203" y="678" on="1"/>
        <pt x="256" y="673" on="0"/>
        <pt x="305" y="672" on="1"/>
        <pt x="293" y="618" on="0"/>
      </contour>
      <contour>
        <pt x="450" y="576" on="1"/>
        <pt x="409" y="575" on="1"/>
        <pt x="390" y="575" on="0"/>
        <pt x="352" y="577" on="1"/>
        <pt x="376" y="638" on="0"/>
        <pt x="382" y="678" on="1"/>
        <pt x="434" y="673" on="0"/>
        <pt x="484" y="672" on="1"/>
        <pt x="470" y="616" on="0"/>
      </contour>
    </TTGlyph>
    <TTGlyph name="Ograve" xMin="34" yMin="-22" xMax="627" yMax="680">
      <contour>
        <pt x="261" y="-22" on="1"/>
        <pt x="196" y="-22" on="0"/>
        <pt x="123" y="3" on="1"/>
        <pt x="34" y="117" on="0"/>
        <pt x="34" y="357" on="0"/>
        <pt x="234" y="523" on="0"/>
        <pt x="390" y="523" on="1"/>
        <pt x="473" y="523" on="0"/>
        <pt x="555" y="498" on="1"/>
        <pt x="627" y="407" on="0"/>
        <pt x="627" y="303" on="1"/>
        <pt x="627" y="172" on="0"/>
        <pt x="413" y="-22" on="0"/>
      </contour>
      <contour>
        <pt x="420" y="265" on="0"/>
        <pt x="343" y="401" on="0"/>
        <pt x="275" y="436" on="1"/>
        <pt x="240" y="376" on="0"/>
        <pt x="240" y="214" on="0"/>
        <pt x="311" y="77" on="0"/>
        <pt x="373" y="47" on="1"/>
        <pt x="420" y="107" on="0"/>
      </contour>
      <contour>
        <pt x="333" y="680" on="1"/>
        <pt x="364" y="597" on="0"/>
        <pt x="436" y="550" on="1"/>
        <pt x="370" y="550" on="1"/>
        <pt x="333" y="567" on="0"/>
        <pt x="287" y="593" on="0"/>
        <pt x="236" y="639" on="0"/>
        <pt x="222" y="666" on="1"/>
      </contour>
    </TTGlyph>
    <TTGlyph name="Ohungarumlaut" xMin="34" yMin="-22" xMax="627" yMax="680">
      <contour>
        <pt x="123" y="3" on="1"/>
        <pt x="34" y="117" on="0"/>
        <pt x="34" y="357" on="0"/>
        <pt x="234" y="523" on="0"/>
        <pt x="390" y="523" on="1"/>
        <pt x="473" y="523" on="0"/>
        <pt x="555" y="498" on="1"/>
        <pt x="627" y="407" on="0"/>
        <pt x="627" y="303" on="1"/>
        <pt x="627" y="172" on="0"/>
        <pt x="413" y="-22" on="0"/>
        <pt x="261" y="-22" on="1"/>
        <pt x="196" y="-22" on="0"/>
      </contour>
      <contour>
        <pt x="275" y="436" on="1"/>
        <pt x="240" y="376" on="0"/>
        <pt x="240" y="214" on="0"/>
        <pt x="311" y="77" on="0"/>
        <pt x="373" y="47" on="1"/>
        <pt x="420" y="107" on="0"/>
        <pt x="420" y="265" on="0"/>
        <pt x="343" y="401" on="0"/>
      </contour>
      <contour>
        <pt x="244" y="680" on="1"/>
        <pt x="355" y="666" on="1"/>
        <pt x="341" y="639" on="0"/>
        <pt x="290" y="593" on="0"/>
        <pt x="244" y="567" on="0"/>
        <pt x="207" y="550" on="1"/>
        <pt x="141" y="550" on="1"/>
        <pt x="213" y="597" on="0"/>
      </contour>
      <contour>
        <pt x="405" y="680" on="1"/>
        <pt x="516" y="666" on="1"/>
        <pt x="502" y="639" on="0"/>
        <pt x="451" y="593" on="0"/>
        <pt x="405" y="567" on="0"/>
        <pt x="368" y="550" on="1"/>
        <pt x="302" y="550" on="1"/>
        <pt x="374" y="597" on="0"/>
      </contour>
    </TTGlyph>
    <TTGlyph name="Omacron" xMin="34" yMin="-22" xMax="627" yMax="655">
      <contour>
        <pt x="54" y="655" on="1"/>
        <pt x="211" y="650" on="0"/>
        <pt x="447" y="650" on="0"/>
        <pt x="617" y="655" on="1"/>
        <pt x="617" y="580" on="1"/>
        <pt x="439" y="587" on="0"/>
        <pt x="222" y="587" on="0"/>
        <pt x="54" y="580" on="1"/>
      </contour>
      <contour>
        <pt x="123" y="3" on="1"/>
        <pt x="34" y="117" on="0"/>
        <pt x="34" y="357" on="0"/>
        <pt x="234" y="523" on="0"/>
        <pt x="390" y="523" on="1"/>
        <pt x="473" y="523" on="0"/>
        <pt x="555" y="498" on="1"/>
        <pt x="627" y="407" on="0"/>
        <pt x="627" y="303" on="1"/>
        <pt x="627" y="172" on="0"/>
        <pt x="413" y="-22" on="0"/>
        <pt x="261" y="-22" on="1"/>
        <pt x="196" y="-22" on="0"/>
      </contour>
      <contour>
        <pt x="275" y="436" on="1"/>
        <pt x="240" y="376" on="0"/>
        <pt x="240" y="214" on="0"/>
        <pt x="311" y="77" on="0"/>
        <pt x="373" y="47" on="1"/>
        <pt x="420" y="107" on="0"/>
        <pt x="420" y="265" on="0"/>
        <pt x="343" y="401" on="0"/>
      </contour>
    </TTGlyph>
    <TTGlyph name="Oslash" xMin="-15" yMin="-41" xMax="644" yMax="545">
      <contour>
        <pt x="18" y="232" on="1"/>
        <pt x="18" y="356" on="0"/>
        <pt x="220" y="523" on="0"/>
        <pt x="374" y="523" on="1"/>
        <pt x="439" y="523" on="0"/>
        <pt x="506" y="507" on="1"/>
        <pt x="525" y="529" on="1"/>
        <pt x="581" y="540" on="0"/>
        <pt x="644" y="545" on="1"/>
        <pt x="561" y="466" on="1"/>
        <pt x="610" y="388" on="0"/>
        <pt x="610" y="302" on="1"/>
        <pt x="610" y="172" on="0"/>
        <pt x="397" y="-22" on="0"/>
        <pt x="245" y="-22" on="1"/>
        <pt x="180" y="-22" on="0"/>
        <pt x="107" y="3" on="1"/>
        <pt x="101" y="10" on="1"/>
        <pt x="54" y="-41" on="1"/>
        <pt x="-15" y="-41" on="1"/>
        <pt x="74" y="49" on="1"/>
        <pt x="18" y="143" on="0"/>
      </contour>
      <contour>
        <pt x="402" y="192" on="1"/>
        <pt x="402" y="246" on="0"/>
        <pt x="383" y="296" on="1"/>
        <pt x="293" y="208" on="0"/>
        <pt x="250" y="164" on="1"/>
        <pt x="288" y="81" on="0"/>
        <pt x="356" y="48" on="1"/>
        <pt x="402" y="107" on="0"/>
      </contour>
      <contour>
        <pt x="224" y="293" on="1"/>
        <pt x="224" y="250" on="0"/>
        <pt x="233" y="213" on="1"/>
        <pt x="304" y="286" on="0"/>
        <pt x="357" y="344" on="1"/>
        <pt x="318" y="405" on="0"/>
        <pt x="259" y="435" on="1"/>
        <pt x="224" y="375" on="0"/>
      </contour>
    </TTGlyph>
    <TTGlyph name="Otilde" xMin="34" yMin="-22" xMax="627" yMax="685">
      <contour>
        <pt x="123" y="3" on="1"/>
        <pt x="34" y="117" on="0"/>
        <pt x="34" y="357" on="0"/>
        <pt x="234" y="523" on="0"/>
        <pt x="390" y="523" on="1"/>
        <pt x="473" y="523" on="0"/>
        <pt x="555" y="498" on="1"/>
        <pt x="627" y="407" on="0"/>
        <pt x="627" y="303" on="1"/>
        <pt x="627" y="172" on="0"/>
        <pt x="413" y="-22" on="0"/>
        <pt x="261" y="-22" on="1"/>
        <pt x="196" y="-22" on="0"/>
      </contour>
      <contour>
        <pt x="275" y="436" on="1"/>
        <pt x="240" y="376" on="0"/>
        <pt x="240" y="214" on="0"/>
        <pt x="311" y="77" on="0"/>
        <pt x="373" y="47" on="1"/>
        <pt x="420" y="107" on="0"/>
        <pt x="420" y="265" on="0"/>
        <pt x="343" y="401" on="0"/>
      </contour>
      <contour>
        <pt x="435" y="598" on="0"/>
        <pt x="394" y="575" on="0"/>
        <pt x="335" y="575" on="0"/>
        <pt x="267" y="616" on="0"/>
        <pt x="251" y="616" on="1"/>
        <pt x="214" y="616" on="0"/>
        <pt x="185" y="583" on="1"/>
        <pt x="198" y="623" on="1"/>
        <pt x="210" y="637" on="0"/>
        <pt x="247" y="660" on="0"/>
        <pt x="290" y="660" on="0"/>
        <pt x="351" y="638" on="0"/>
        <pt x="373" y="638" on="1"/>
        <pt x="427" y="638" on="0"/>
        <pt x="472" y="685" on="1"/>
        <pt x="468" y="677" on="0"/>
        <pt x="448" y="619" on="0"/>
      </contour>
    </TTGlyph>
    <TTGlyph name="P" xMin="38" yMin="0" xMax="623" yMax="500">
      <contour>
        <pt x="294" y="125" on="1"/>
        <pt x="294" y="68" on="0"/>
        <pt x="299" y="0" on="1"/>
        <pt x="79" y="0" on="1"/>
        <pt x="38" y="159" on="0"/>
        <pt x="38" y="338" on="1"/>
        <pt x="38" y="429" on="0"/>
        <pt x="49" y="500" on="1"/>
        <pt x="591" y="500" on="1"/>
        <pt x="620" y="387" on="0"/>
        <pt x="623" y="231" on="1"/>
        <pt x="475" y="165" on="0"/>
        <pt x="294" y="145" on="1"/>
      </contour>
      <contour>
        <pt x="295" y="214" on="1"/>
        <pt x="359" y="222" on="0"/>
        <pt x="402" y="246" on="1"/>
        <pt x="386" y="352" on="0"/>
        <pt x="316" y="434" on="1"/>
        <pt x="300" y="335" on="0"/>
      </contour>
    </TTGlyph>
    <TTGlyph name="Q" xMin="40" yMin="-23" xMax="707" yMax="523">
      <contour>
        <pt x="129" y="3" on="1"/>
        <pt x="40" y="117" on="0"/>
        <pt x="40" y="356" on="0"/>
        <pt x="240" y="523" on="0"/>
        <pt x="396" y="523" on="1"/>
        <pt x="482" y="523" on="0"/>
        <pt x="560" y="499" on="1"/>
        <pt x="633" y="407" on="0"/>
        <pt x="633" y="302" on="1"/>
        <pt x="633" y="159" on="0"/>
        <pt x="508" y="59" on="1"/>
        <pt x="519" y="61" on="0"/>
        <pt x="577" y="77" on="0"/>
        <pt x="614" y="77" on="0"/>
        <pt x="635" y="70" on="1"/>
        <pt x="707" y="-23" on="1"/>
        <pt x="687" y="1" on="0"/>
        <pt x="610" y="1" on="0"/>
        <pt x="482" y="-21" on="0"/>
        <pt x="459" y="-22" on="1"/>
        <pt x="439" y="-13" on="0"/>
        <pt x="419" y="8" on="1"/>
        <pt x="346" y="-22" on="0"/>
        <pt x="202" y="-22" on="0"/>
      </contour>
      <contour>
        <pt x="281" y="435" on="1"/>
        <pt x="245" y="373" on="0"/>
        <pt x="245" y="214" on="0"/>
        <pt x="317" y="77" on="0"/>
        <pt x="379" y="47" on="1"/>
        <pt x="426" y="107" on="0"/>
        <pt x="426" y="265" on="0"/>
        <pt x="349" y="401" on="0"/>
      </contour>
    </TTGlyph>
    <TTGlyph name="R" xMin="63" yMin="0" xMax="679" yMax="500">
      <contour>
        <pt x="622" y="326" on="1"/>
        <pt x="621" y="292" on="1"/>
        <pt x="541" y="249" on="0"/>
        <pt x="421" y="225" on="1"/>
        <pt x="507" y="202" on="0"/>
        <pt x="587" y="202" on="1"/>
        <pt x="608" y="202" on="1"/>
        <pt x="663" y="121" on="0"/>
        <pt x="679" y="0" on="1"/>
        <pt x="420" y="0" on="1"/>
        <pt x="410" y="70" on="0"/>
        <pt x="349" y="171" on="0"/>
        <pt x="305" y="189" on="1"/>
        <pt x="304" y="172" on="0"/>
        <pt x="304" y="70" on="0"/>
        <pt x="310" y="0" on="1"/>
        <pt x="92" y="0" on="1"/>
        <pt x="63" y="145" on="0"/>
        <pt x="63" y="394" on="0"/>
        <pt x="77" y="500" on="1"/>
        <pt x="599" y="500" on="1"/>
        <pt x="622" y="399" on="0"/>
      </contour>
      <contour>
        <pt x="326" y="433" on="1"/>
        <pt x="314" y="345" on="0"/>
        <pt x="308" y="260" on="1"/>
        <pt x="363" y="268" on="0"/>
        <pt x="398" y="299" on="1"/>
        <pt x="379" y="366" on="0"/>
      </contour>
    </TTGlyph>
    <TTGlyph name="Racute" xMin="63" yMin="0" xMax="679" yMax="680">
      <contour>
        <pt x="622" y="326" on="1"/>
        <pt x="621" y="292" on="1"/>
        <pt x="541" y="249" on="0"/>
        <pt x="421" y="225" on="1"/>
        <pt x="507" y="202" on="0"/>
        <pt x="587" y="202" on="1"/>
        <pt x="608" y="202" on="1"/>
        <pt x="663" y="121" on="0"/>
        <pt x="679" y="0" on="1"/>
        <pt x="420" y="0" on="1"/>
        <pt x="410" y="70" on="0"/>
        <pt x="349" y="171" on="0"/>
        <pt x="305" y="189" on="1"/>
        <pt x="304" y="172" on="0"/>
        <pt x="304" y="70" on="0"/>
        <pt x="310" y="0" on="1"/>
        <pt x="92" y="0" on="1"/>
        <pt x="63" y="145" on="0"/>
        <pt x="63" y="394" on="0"/>
        <pt x="77" y="500" on="1"/>
        <pt x="599" y="500" on="1"/>
        <pt x="622" y="399" on="0"/>
      </contour>
      <contour>
        <pt x="326" y="433" on="1"/>
        <pt x="314" y="345" on="0"/>
        <pt x="308" y="260" on="1"/>
        <pt x="363" y="268" on="0"/>
        <pt x="398" y="299" on="1"/>
        <pt x="379" y="366" on="0"/>
      </contour>
      <contour>
        <pt x="349" y="680" on="1"/>
        <pt x="460" y="666" on="1"/>
        <pt x="446" y="639" on="0"/>
        <pt x="395" y="593" on="0"/>
        <pt x="349" y="567" on="0"/>
        <pt x="312" y="550" on="1"/>
        <pt x="246" y="550" on="1"/>
        <pt x="318" y="597" on="0"/>
      </contour>
    </TTGlyph>
    <TTGlyph name="Rcaron" xMin="63" yMin="0" xMax="679" yMax="669">
      <contour>
        <pt x="622" y="326" on="1"/>
        <pt x="621" y="292" on="1"/>
        <pt x="544" y="249" on="0"/>
        <pt x="421" y="225" on="1"/>
        <pt x="507" y="202" on="0"/>
        <pt x="587" y="202" on="1"/>
        <pt x="608" y="202" on="1"/>
        <pt x="663" y="122" on="0"/>
        <pt x="679" y="0" on="1"/>
        <pt x="420" y="0" on="1"/>
        <pt x="410" y="70" on="0"/>
        <pt x="349" y="171" on="0"/>
        <pt x="305" y="189" on="1"/>
        <pt x="304" y="172" on="0"/>
        <pt x="304" y="70" on="0"/>
        <pt x="310" y="0" on="1"/>
        <pt x="92" y="0" on="1"/>
        <pt x="63" y="148" on="0"/>
        <pt x="63" y="394" on="0"/>
        <pt x="77" y="500" on="1"/>
        <pt x="599" y="500" on="1"/>
        <pt x="622" y="398" on="0"/>
      </contour>
      <contour>
        <pt x="326" y="433" on="1"/>
        <pt x="314" y="343" on="0"/>
        <pt x="308" y="260" on="1"/>
        <pt x="362" y="268" on="0"/>
        <pt x="398" y="299" on="1"/>
        <pt x="380" y="365" on="0"/>
      </contour>
      <contour>
        <pt x="328" y="554" on="1"/>
        <pt x="238" y="669" on="1"/>
        <pt x="270" y="669" on="1"/>
        <pt x="352" y="607" on="1"/>
        <pt x="435" y="669" on="1"/>
        <pt x="467" y="669" on="1"/>
        <pt x="377" y="554" on="1"/>
      </contour>
    </TTGlyph>
    <TTGlyph name="S" xMin="-14" yMin="-112" xMax="631" yMax="523">
      <contour>
        <pt x="423" y="440" on="1"/>
        <pt x="383" y="446" on="0"/>
        <pt x="292" y="446" on="0"/>
        <pt x="249" y="440" on="1"/>
        <pt x="276" y="394" on="0"/>
        <pt x="350" y="336" on="0"/>
        <pt x="463" y="279" on="0"/>
        <pt x="534" y="231" on="0"/>
        <pt x="620" y="121" on="0"/>
        <pt x="631" y="61" on="1"/>
        <pt x="583" y="-1" on="0"/>
        <pt x="425" y="-96" on="0"/>
        <pt x="342" y="-112" on="1"/>
        <pt x="286" y="-107" on="0"/>
        <pt x="115" y="-54" on="0"/>
        <pt x="29" y="-54" on="0"/>
        <pt x="-14" y="-81" on="1"/>
        <pt x="4" y="-30" on="0"/>
        <pt x="45" y="47" on="1"/>
        <pt x="53" y="47" on="1"/>
        <pt x="117" y="47" on="0"/>
        <pt x="230" y="7" on="0"/>
        <pt x="323" y="-33" on="0"/>
        <pt x="380" y="-33" on="0"/>
        <pt x="393" y="-29" on="1"/>
        <pt x="393" y="37" on="0"/>
        <pt x="352" y="80" on="1"/>
        <pt x="330" y="103" on="0"/>
        <pt x="299" y="128" on="0"/>
        <pt x="267" y="150" on="1"/>
        <pt x="250" y="162" on="1"/>
        <pt x="182" y="209" on="0"/>
        <pt x="94" y="306" on="0"/>
        <pt x="74" y="377" on="1"/>
        <pt x="106" y="448" on="0"/>
        <pt x="137" y="500" on="1"/>
        <pt x="232" y="523" on="0"/>
        <pt x="334" y="523" on="1"/>
        <pt x="378" y="523" on="1"/>
        <pt x="464" y="523" on="0"/>
        <pt x="575" y="499" on="1"/>
        <pt x="559" y="433" on="0"/>
        <pt x="536" y="380" on="1"/>
        <pt x="452" y="374" on="0"/>
        <pt x="406" y="374" on="1"/>
        <pt x="415" y="397" on="0"/>
      </contour>
    </TTGlyph>
    <TTGlyph name="Sacute" xMin="-14" yMin="-112" xMax="631" yMax="680">
      <contour>
        <pt x="423" y="440" on="1"/>
        <pt x="383" y="446" on="0"/>
        <pt x="292" y="446" on="0"/>
        <pt x="249" y="440" on="1"/>
        <pt x="276" y="394" on="0"/>
        <pt x="350" y="336" on="0"/>
        <pt x="463" y="279" on="0"/>
        <pt x="534" y="231" on="0"/>
        <pt x="620" y="121" on="0"/>
        <pt x="631" y="61" on="1"/>
        <pt x="583" y="-1" on="0"/>
        <pt x="425" y="-96" on="0"/>
        <pt x="342" y="-112" on="1"/>
        <pt x="286" y="-107" on="0"/>
        <pt x="115" y="-54" on="0"/>
        <pt x="29" y="-54" on="0"/>
        <pt x="-14" y="-81" on="1"/>
        <pt x="4" y="-30" on="0"/>
        <pt x="45" y="47" on="1"/>
        <pt x="53" y="47" on="1"/>
        <pt x="117" y="47" on="0"/>
        <pt x="230" y="7" on="0"/>
        <pt x="323" y="-33" on="0"/>
        <pt x="380" y="-33" on="0"/>
        <pt x="393" y="-29" on="1"/>
        <pt x="393" y="37" on="0"/>
        <pt x="352" y="80" on="1"/>
        <pt x="330" y="103" on="0"/>
        <pt x="299" y="128" on="0"/>
        <pt x="267" y="150" on="1"/>
        <pt x="250" y="162" on="1"/>
        <pt x="182" y="209" on="0"/>
        <pt x="94" y="306" on="0"/>
        <pt x="74" y="377" on="1"/>
        <pt x="106" y="448" on="0"/>
        <pt x="137" y="500" on="1"/>
        <pt x="232" y="523" on="0"/>
        <pt x="334" y="523" on="1"/>
        <pt x="378" y="523" on="1"/>
        <pt x="464" y="523" on="0"/>
        <pt x="575" y="499" on="1"/>
        <pt x="559" y="433" on="0"/>
        <pt x="536" y="380" on="1"/>
        <pt x="452" y="374" on="0"/>
        <pt x="406" y="374" on="1"/>
        <pt x="415" y="397" on="0"/>
      </contour>
      <contour>
        <pt x="313" y="680" on="1"/>
        <pt x="424" y="666" on="1"/>
        <pt x="410" y="639" on="0"/>
        <pt x="359" y="593" on="0"/>
        <pt x="313" y="567" on="0"/>
        <pt x="276" y="550" on="1"/>
        <pt x="210" y="550" on="1"/>
        <pt x="282" y="597" on="0"/>
      </contour>
    </TTGlyph>
    <TTGlyph name="Scaron" xMin="-14" yMin="-112" xMax="631" yMax="669">
      <contour>
        <pt x="423" y="440" on="1"/>
        <pt x="383" y="446" on="0"/>
        <pt x="292" y="446" on="0"/>
        <pt x="249" y="440" on="1"/>
        <pt x="276" y="394" on="0"/>
        <pt x="350" y="336" on="0"/>
        <pt x="463" y="279" on="0"/>
        <pt x="534" y="231" on="0"/>
        <pt x="620" y="121" on="0"/>
        <pt x="631" y="61" on="1"/>
        <pt x="583" y="-1" on="0"/>
        <pt x="425" y="-96" on="0"/>
        <pt x="342" y="-112" on="1"/>
        <pt x="286" y="-107" on="0"/>
        <pt x="115" y="-54" on="0"/>
        <pt x="29" y="-54" on="0"/>
        <pt x="-14" y="-81" on="1"/>
        <pt x="4" y="-30" on="0"/>
        <pt x="45" y="47" on="1"/>
        <pt x="53" y="47" on="1"/>
        <pt x="117" y="47" on="0"/>
        <pt x="230" y="7" on="0"/>
        <pt x="323" y="-33" on="0"/>
        <pt x="380" y="-33" on="0"/>
        <pt x="393" y="-29" on="1"/>
        <pt x="393" y="37" on="0"/>
        <pt x="352" y="80" on="1"/>
        <pt x="330" y="103" on="0"/>
        <pt x="299" y="128" on="0"/>
        <pt x="267" y="150" on="1"/>
        <pt x="250" y="162" on="1"/>
        <pt x="182" y="209" on="0"/>
        <pt x="94" y="306" on="0"/>
        <pt x="74" y="377" on="1"/>
        <pt x="106" y="448" on="0"/>
        <pt x="137" y="500" on="1"/>
        <pt x="232" y="523" on="0"/>
        <pt x="334" y="523" on="1"/>
        <pt x="378" y="523" on="1"/>
        <pt x="464" y="523" on="0"/>
        <pt x="575" y="499" on="1"/>
        <pt x="559" y="433" on="0"/>
        <pt x="536" y="380" on="1"/>
        <pt x="452" y="374" on="0"/>
        <pt x="406" y="374" on="1"/>
        <pt x="415" y="397" on="0"/>
      </contour>
      <contour>
        <pt x="293" y="554" on="1"/>
        <pt x="203" y="669" on="1"/>
        <pt x="235" y="669" on="1"/>
        <pt x="317" y="607" on="1"/>
        <pt x="400" y="669" on="1"/>
        <pt x="432" y="669" on="1"/>
        <pt x="342" y="554" on="1"/>
      </contour>
    </TTGlyph>
    <TTGlyph name="Scedilla" xMin="19" yMin="-195" xMax="558" yMax="523">
      <contour>
        <pt x="286" y="-58" on="1"/>
        <pt x="329" y="-51" on="1"/>
        <pt x="346" y="-51" on="0"/>
        <pt x="375" y="-70" on="0"/>
        <pt x="377" y="-85" on="1"/>
        <pt x="377" y="-90" on="1"/>
        <pt x="377" y="-129" on="0"/>
        <pt x="306" y="-194" on="0"/>
        <pt x="251" y="-195" on="1"/>
        <pt x="245" y="-174" on="1"/>
        <pt x="275" y="-174" on="0"/>
        <pt x="308" y="-145" on="0"/>
        <pt x="308" y="-127" on="1"/>
        <pt x="308" y="-101" on="0"/>
        <pt x="276" y="-101" on="1"/>
        <pt x="270" y="-101" on="0"/>
        <pt x="230" y="-116" on="1"/>
        <pt x="262" y="-23" on="1"/>
        <pt x="109" y="-23" on="0"/>
        <pt x="19" y="1" on="1"/>
        <pt x="33" y="90" on="0"/>
        <pt x="48" y="132" on="1"/>
        <pt x="158" y="137" on="1"/>
        <pt x="149" y="110" on="0"/>
        <pt x="149" y="92" on="1"/>
        <pt x="149" y="44" on="0"/>
        <pt x="292" y="44" on="0"/>
        <pt x="349" y="55" on="1"/>
        <pt x="317" y="95" on="0"/>
        <pt x="192" y="190" on="1"/>
        <pt x="152" y="221" on="0"/>
        <pt x="72" y="326" on="0"/>
        <pt x="55" y="387" on="1"/>
        <pt x="83" y="451" on="0"/>
        <pt x="112" y="499" on="1"/>
        <pt x="203" y="523" on="0"/>
        <pt x="427" y="523" on="0"/>
        <pt x="534" y="499" on="1"/>
        <pt x="519" y="415" on="0"/>
        <pt x="508" y="380" on="1"/>
        <pt x="398" y="375" on="1"/>
        <pt x="406" y="401" on="0"/>
        <pt x="406" y="440" on="0"/>
        <pt x="369" y="456" on="0"/>
        <pt x="263" y="456" on="0"/>
        <pt x="220" y="445" on="1"/>
        <pt x="248" y="398" on="0"/>
        <pt x="338" y="332" on="0"/>
        <pt x="421" y="298" on="0"/>
        <pt x="522" y="230" on="0"/>
        <pt x="558" y="183" on="1"/>
        <pt x="540" y="86" on="0"/>
        <pt x="495" y="1" on="1"/>
        <pt x="426" y="-20" on="0"/>
        <pt x="298" y="-23" on="1"/>
      </contour>
    </TTGlyph>
    <TTGlyph name="Scircumflex" xMin="-14" yMin="-112" xMax="631" yMax="673">
      <contour>
        <pt x="378" y="523" on="1"/>
        <pt x="464" y="523" on="0"/>
        <pt x="575" y="499" on="1"/>
        <pt x="559" y="433" on="0"/>
        <pt x="536" y="380" on="1"/>
        <pt x="452" y="374" on="0"/>
        <pt x="406" y="374" on="1"/>
        <pt x="415" y="397" on="0"/>
        <pt x="423" y="440" on="1"/>
        <pt x="382" y="446" on="0"/>
        <pt x="293" y="446" on="0"/>
        <pt x="249" y="440" on="1"/>
        <pt x="276" y="394" on="0"/>
        <pt x="350" y="336" on="0"/>
        <pt x="464" y="278" on="0"/>
        <pt x="533" y="232" on="0"/>
        <pt x="620" y="121" on="0"/>
        <pt x="631" y="61" on="1"/>
        <pt x="583" y="-1" on="0"/>
        <pt x="425" y="-96" on="0"/>
        <pt x="342" y="-112" on="1"/>
        <pt x="286" y="-107" on="0"/>
        <pt x="115" y="-54" on="0"/>
        <pt x="29" y="-54" on="0"/>
        <pt x="-14" y="-81" on="1"/>
        <pt x="4" y="-30" on="0"/>
        <pt x="45" y="47" on="1"/>
        <pt x="53" y="47" on="1"/>
        <pt x="117" y="47" on="0"/>
        <pt x="230" y="7" on="0"/>
        <pt x="323" y="-33" on="0"/>
        <pt x="380" y="-33" on="0"/>
        <pt x="393" y="-29" on="1"/>
        <pt x="393" y="37" on="0"/>
        <pt x="352" y="80" on="1"/>
        <pt x="330" y="103" on="0"/>
        <pt x="299" y="128" on="0"/>
        <pt x="267" y="150" on="1"/>
        <pt x="250" y="162" on="1"/>
        <pt x="182" y="209" on="0"/>
        <pt x="94" y="306" on="0"/>
        <pt x="74" y="377" on="1"/>
        <pt x="106" y="448" on="0"/>
        <pt x="137" y="500" on="1"/>
        <pt x="232" y="523" on="0"/>
        <pt x="334" y="523" on="1"/>
      </contour>
      <contour>
        <pt x="203" y="558" on="1"/>
        <pt x="293" y="673" on="1"/>
        <pt x="342" y="673" on="1"/>
        <pt x="432" y="558" on="1"/>
        <pt x="400" y="558" on="1"/>
        <pt x="317" y="620" on="1"/>
        <pt x="235" y="558" on="1"/>
      </contour>
    </TTGlyph>
    <TTGlyph name="T" xMin="1" yMin="0" xMax="702" yMax="500">
      <contour>
        <pt x="472" y="435" on="1"/>
        <pt x="446" y="277" on="0"/>
        <pt x="446" y="77" on="0"/>
        <pt x="454" y="0" on="1"/>
        <pt x="236" y="0" on="1"/>
        <pt x="202" y="159" on="0"/>
        <pt x="202" y="342" on="1"/>
        <pt x="202" y="373" on="0"/>
        <pt x="204" y="435" on="1"/>
        <pt x="119" y="410" on="0"/>
        <pt x="100" y="320" on="1"/>
        <pt x="1" y="326" on="1"/>
        <pt x="37" y="500" on="1"/>
        <pt x="702" y="500" on="1"/>
        <pt x="682" y="390" on="0"/>
        <pt x="656" y="320" on="1"/>
        <pt x="555" y="326" on="1"/>
        <pt x="559" y="342" on="0"/>
        <pt x="559" y="358" on="1"/>
        <pt x="559" y="397" on="0"/>
        <pt x="511" y="435" on="0"/>
      </contour>
    </TTGlyph>
    <TTGlyph name="Tcaron" xMin="1" yMin="0" xMax="702" yMax="670">
      <contour>
        <pt x="472" y="435" on="1"/>
        <pt x="446" y="277" on="0"/>
        <pt x="446" y="77" on="0"/>
        <pt x="454" y="0" on="1"/>
        <pt x="236" y="0" on="1"/>
        <pt x="202" y="159" on="0"/>
        <pt x="202" y="342" on="1"/>
        <pt x="202" y="373" on="0"/>
        <pt x="204" y="435" on="1"/>
        <pt x="119" y="410" on="0"/>
        <pt x="100" y="320" on="1"/>
        <pt x="1" y="326" on="1"/>
        <pt x="37" y="500" on="1"/>
        <pt x="702" y="500" on="1"/>
        <pt x="682" y="390" on="0"/>
        <pt x="656" y="320" on="1"/>
        <pt x="555" y="326" on="1"/>
        <pt x="559" y="342" on="0"/>
        <pt x="559" y="358" on="1"/>
        <pt x="559" y="397" on="0"/>
        <pt x="511" y="435" on="0"/>
      </contour>
      <contour>
        <pt x="328" y="555" on="1"/>
        <pt x="238" y="670" on="1"/>
        <pt x="270" y="670" on="1"/>
        <pt x="352" y="608" on="1"/>
        <pt x="435" y="670" on="1"/>
        <pt x="467" y="670" on="1"/>
        <pt x="377" y="555" on="1"/>
      </contour>
    </TTGlyph>
    <TTGlyph name="Thorn" xMin="45" yMin="0" xMax="636" yMax="616">
      <contour>
        <pt x="87" y="156" on="1"/>
        <pt x="87" y="386" on="0"/>
        <pt x="45" y="616" on="1"/>
        <pt x="142" y="599" on="0"/>
        <pt x="334" y="567" on="1"/>
        <pt x="338" y="500" on="1"/>
        <pt x="603" y="500" on="1"/>
        <pt x="636" y="412" on="0"/>
        <pt x="636" y="322" on="1"/>
        <pt x="636" y="280" on="0"/>
        <pt x="628" y="226" on="1"/>
        <pt x="508" y="167" on="0"/>
        <pt x="344" y="152" on="1"/>
        <pt x="341" y="75" on="0"/>
        <pt x="335" y="0" on="1"/>
        <pt x="82" y="0" on="1"/>
        <pt x="87" y="64" on="0"/>
      </contour>
      <contour>
        <pt x="345" y="274" on="1"/>
        <pt x="345" y="222" on="1"/>
        <pt x="398" y="227" on="0"/>
        <pt x="436" y="242" on="1"/>
        <pt x="429" y="285" on="0"/>
        <pt x="372" y="394" on="0"/>
        <pt x="342" y="432" on="1"/>
        <pt x="345" y="352" on="0"/>
      </contour>
    </TTGlyph>
    <TTGlyph name="U" xMin="72" yMin="-22" xMax="662" yMax="500">
      <contour>
        <pt x="658" y="500" on="1"/>
        <pt x="662" y="435" on="0"/>
        <pt x="662" y="186" on="0"/>
        <pt x="646" y="45" on="1"/>
        <pt x="542" y="-22" on="0"/>
        <pt x="397" y="-22" on="1"/>
        <pt x="204" y="-22" on="0"/>
        <pt x="85" y="45" on="1"/>
        <pt x="72" y="153" on="0"/>
        <pt x="72" y="356" on="0"/>
        <pt x="87" y="500" on="1"/>
        <pt x="356" y="500" on="1"/>
        <pt x="316" y="283" on="0"/>
        <pt x="314" y="83" on="1"/>
        <pt x="356" y="45" on="0"/>
        <pt x="514" y="45" on="0"/>
        <pt x="556" y="73" on="1"/>
        <pt x="558" y="106" on="0"/>
        <pt x="558" y="168" on="1"/>
        <pt x="558" y="326" on="0"/>
        <pt x="530" y="500" on="1"/>
      </contour>
    </TTGlyph>
    <TTGlyph name="Uacute" xMin="72" yMin="-22" xMax="662" yMax="680">
      <contour>
        <pt x="658" y="500" on="1"/>
        <pt x="662" y="435" on="0"/>
        <pt x="662" y="186" on="0"/>
        <pt x="646" y="45" on="1"/>
        <pt x="542" y="-22" on="0"/>
        <pt x="397" y="-22" on="1"/>
        <pt x="204" y="-22" on="0"/>
        <pt x="85" y="45" on="1"/>
        <pt x="72" y="153" on="0"/>
        <pt x="72" y="356" on="0"/>
        <pt x="87" y="500" on="1"/>
        <pt x="356" y="500" on="1"/>
        <pt x="316" y="283" on="0"/>
        <pt x="314" y="83" on="1"/>
        <pt x="356" y="45" on="0"/>
        <pt x="514" y="45" on="0"/>
        <pt x="556" y="73" on="1"/>
        <pt x="558" y="106" on="0"/>
        <pt x="558" y="168" on="1"/>
        <pt x="558" y="326" on="0"/>
        <pt x="530" y="500" on="1"/>
      </contour>
      <contour>
        <pt x="346" y="680" on="1"/>
        <pt x="457" y="666" on="1"/>
        <pt x="443" y="639" on="0"/>
        <pt x="392" y="593" on="0"/>
        <pt x="346" y="567" on="0"/>
        <pt x="309" y="550" on="1"/>
        <pt x="243" y="550" on="1"/>
        <pt x="315" y="597" on="0"/>
      </contour>
    </TTGlyph>
    <TTGlyph name="Ubreve" xMin="29" yMin="-22" xMax="621" yMax="673">
      <contour>
        <pt x="388" y="523" on="1"/>
        <pt x="480" y="523" on="0"/>
        <pt x="593" y="498" on="1"/>
        <pt x="576" y="430" on="0"/>
        <pt x="554" y="378" on="1"/>
        <pt x="494" y="374" on="0"/>
        <pt x="423" y="372" on="1"/>
        <pt x="434" y="406" on="0"/>
        <pt x="439" y="439" on="1"/>
        <pt x="408" y="445" on="0"/>
        <pt x="340" y="445" on="0"/>
        <pt x="294" y="434" on="1"/>
        <pt x="278" y="366" on="0"/>
        <pt x="278" y="311" on="1"/>
        <pt x="278" y="228" on="0"/>
        <pt x="353" y="83" on="0"/>
        <pt x="416" y="49" on="1"/>
        <pt x="416" y="56" on="0"/>
        <pt x="417" y="85" on="0"/>
        <pt x="417" y="162" on="0"/>
        <pt x="405" y="260" on="1"/>
        <pt x="621" y="260" on="1"/>
        <pt x="621" y="118" on="0"/>
        <pt x="607" y="0" on="1"/>
        <pt x="452" y="-22" on="0"/>
        <pt x="286" y="-22" on="1"/>
        <pt x="222" y="-22" on="1"/>
        <pt x="131" y="17" on="0"/>
        <pt x="29" y="168" on="0"/>
        <pt x="29" y="253" on="1"/>
        <pt x="29" y="366" on="0"/>
        <pt x="212" y="523" on="0"/>
      </contour>
      <contour>
        <pt x="223" y="558" on="1"/>
        <pt x="313" y="673" on="1"/>
        <pt x="362" y="673" on="1"/>
        <pt x="452" y="558" on="1"/>
        <pt x="420" y="558" on="1"/>
        <pt x="337" y="620" on="1"/>
        <pt x="255" y="558" on="1"/>
      </contour>
    </TTGlyph>
    <TTGlyph name="Ucircumflex" xMin="72" yMin="-22" xMax="662" yMax="673">
      <contour>
        <pt x="558" y="168" on="1"/>
        <pt x="558" y="326" on="0"/>
        <pt x="530" y="500" on="1"/>
        <pt x="658" y="500" on="1"/>
        <pt x="662" y="435" on="0"/>
        <pt x="662" y="186" on="0"/>
        <pt x="646" y="45" on="1"/>
        <pt x="542" y="-22" on="0"/>
        <pt x="397" y="-22" on="1"/>
        <pt x="204" y="-22" on="0"/>
        <pt x="85" y="45" on="1"/>
        <pt x="72" y="153" on="0"/>
        <pt x="72" y="356" on="0"/>
        <pt x="87" y="500" on="1"/>
        <pt x="356" y="500" on="1"/>
        <pt x="316" y="283" on="0"/>
        <pt x="314" y="83" on="1"/>
        <pt x="356" y="45" on="0"/>
        <pt x="514" y="45" on="0"/>
        <pt x="556" y="73" on="1"/>
        <pt x="558" y="106" on="0"/>
      </contour>
      <contour>
        <pt x="236" y="558" on="1"/>
        <pt x="326" y="673" on="1"/>
        <pt x="375" y="673" on="1"/>
        <pt x="465" y="558" on="1"/>
        <pt x="433" y="558" on="1"/>
        <pt x="350" y="620" on="1"/>
        <pt x="268" y="558" on="1"/>
      </contour>
    </TTGlyph>
    <TTGlyph name="Udieresis" xMin="72" yMin="-22" xMax="662" yMax="678">
      <contour>
        <pt x="658" y="500" on="1"/>
        <pt x="662" y="435" on="0"/>
        <pt x="662" y="186" on="0"/>
        <pt x="646" y="45" on="1"/>
        <pt x="542" y="-22" on="0"/>
        <pt x="397" y="-22" on="1"/>
        <pt x="204" y="-22" on="0"/>
        <pt x="85" y="45" on="1"/>
        <pt x="72" y="153" on="0"/>
        <pt x="72" y="356" on="0"/>
        <pt x="87" y="500" on="1"/>
        <pt x="356" y="500" on="1"/>
        <pt x="316" y="283" on="0"/>
        <pt x="314" y="83" on="1"/>
        <pt x="356" y="45" on="0"/>
        <pt x="514" y="45" on="0"/>
        <pt x="556" y="73" on="1"/>
        <pt x="558" y="106" on="0"/>
        <pt x="558" y="168" on="1"/>
        <pt x="558" y="326" on="0"/>
        <pt x="530" y="500" on="1"/>
      </contour>
      <contour>
        <pt x="293" y="576" on="1"/>
        <pt x="253" y="575" on="1"/>
        <pt x="233" y="575" on="0"/>
        <pt x="195" y="577" on="1"/>
        <pt x="220" y="636" on="0"/>
        <pt x="225" y="678" on="1"/>
        <pt x="278" y="673" on="0"/>
        <pt x="327" y="672" on="1"/>
        <pt x="315" y="618" on="0"/>
      </contour>
      <contour>
        <pt x="472" y="576" on="1"/>
        <pt x="431" y="575" on="1"/>
        <pt x="412" y="575" on="0"/>
        <pt x="374" y="577" on="1"/>
        <pt x="398" y="638" on="0"/>
        <pt x="404" y="678" on="1"/>
        <pt x="456" y="673" on="0"/>
        <pt x="506" y="672" on="1"/>
        <pt x="492" y="616" on="0"/>
      </contour>
    </TTGlyph>
    <TTGlyph name="Ugrave" xMin="72" yMin="-22" xMax="662" yMax="680">
      <contour>
        <pt x="558" y="168" on="1"/>
        <pt x="558" y="326" on="0"/>
        <pt x="530" y="500" on="1"/>
        <pt x="658" y="500" on="1"/>
        <pt x="662" y="435" on="0"/>
        <pt x="662" y="186" on="0"/>
        <pt x="646" y="45" on="1"/>
        <pt x="542" y="-22" on="0"/>
        <pt x="397" y="-22" on="1"/>
        <pt x="204" y="-22" on="0"/>
        <pt x="85" y="45" on="1"/>
        <pt x="72" y="153" on="0"/>
        <pt x="72" y="356" on="0"/>
        <pt x="87" y="500" on="1"/>
        <pt x="356" y="500" on="1"/>
        <pt x="316" y="283" on="0"/>
        <pt x="314" y="83" on="1"/>
        <pt x="356" y="45" on="0"/>
        <pt x="514" y="45" on="0"/>
        <pt x="556" y="73" on="1"/>
        <pt x="558" y="106" on="0"/>
      </contour>
      <contour>
        <pt x="354" y="680" on="1"/>
        <pt x="385" y="597" on="0"/>
        <pt x="457" y="550" on="1"/>
        <pt x="391" y="550" on="1"/>
        <pt x="354" y="567" on="0"/>
        <pt x="308" y="593" on="0"/>
        <pt x="257" y="639" on="0"/>
        <pt x="243" y="666" on="1"/>
      </contour>
    </TTGlyph>
    <TTGlyph name="Uhungarumlaut" xMin="72" yMin="-22" xMax="662" yMax="680">
      <contour>
        <pt x="658" y="500" on="1"/>
        <pt x="662" y="435" on="0"/>
        <pt x="662" y="186" on="0"/>
        <pt x="646" y="45" on="1"/>
        <pt x="542" y="-22" on="0"/>
        <pt x="397" y="-22" on="1"/>
        <pt x="204" y="-22" on="0"/>
        <pt x="85" y="45" on="1"/>
        <pt x="72" y="153" on="0"/>
        <pt x="72" y="356" on="0"/>
        <pt x="87" y="500" on="1"/>
        <pt x="356" y="500" on="1"/>
        <pt x="316" y="283" on="0"/>
        <pt x="314" y="83" on="1"/>
        <pt x="356" y="45" on="0"/>
        <pt x="514" y="45" on="0"/>
        <pt x="556" y="73" on="1"/>
        <pt x="558" y="106" on="0"/>
        <pt x="558" y="168" on="1"/>
        <pt x="558" y="326" on="0"/>
        <pt x="530" y="500" on="1"/>
      </contour>
      <contour>
        <pt x="313" y="680" on="1"/>
        <pt x="424" y="666" on="1"/>
        <pt x="410" y="639" on="0"/>
        <pt x="359" y="593" on="0"/>
        <pt x="313" y="567" on="0"/>
        <pt x="276" y="550" on="1"/>
        <pt x="210" y="550" on="1"/>
        <pt x="282" y="597" on="0"/>
      </contour>
      <contour>
        <pt x="474" y="680" on="1"/>
        <pt x="585" y="666" on="1"/>
        <pt x="571" y="639" on="0"/>
        <pt x="520" y="593" on="0"/>
        <pt x="474" y="567" on="0"/>
        <pt x="437" y="550" on="1"/>
        <pt x="371" y="550" on="1"/>
        <pt x="443" y="597" on="0"/>
      </contour>
    </TTGlyph>
    <TTGlyph name="Umacron" xMin="72" yMin="-22" xMax="662" yMax="655">
      <contour>
        <pt x="90" y="655" on="1"/>
        <pt x="247" y="650" on="0"/>
        <pt x="483" y="650" on="0"/>
        <pt x="653" y="655" on="1"/>
        <pt x="653" y="580" on="1"/>
        <pt x="475" y="587" on="0"/>
        <pt x="258" y="587" on="0"/>
        <pt x="90" y="580" on="1"/>
      </contour>
      <contour>
        <pt x="658" y="500" on="1"/>
        <pt x="662" y="435" on="0"/>
        <pt x="662" y="186" on="0"/>
        <pt x="646" y="45" on="1"/>
        <pt x="542" y="-22" on="0"/>
        <pt x="397" y="-22" on="1"/>
        <pt x="204" y="-22" on="0"/>
        <pt x="85" y="45" on="1"/>
        <pt x="72" y="153" on="0"/>
        <pt x="72" y="356" on="0"/>
        <pt x="87" y="500" on="1"/>
        <pt x="356" y="500" on="1"/>
        <pt x="316" y="283" on="0"/>
        <pt x="314" y="83" on="1"/>
        <pt x="356" y="45" on="0"/>
        <pt x="514" y="45" on="0"/>
        <pt x="556" y="73" on="1"/>
        <pt x="558" y="106" on="0"/>
        <pt x="558" y="168" on="1"/>
        <pt x="558" y="326" on="0"/>
        <pt x="530" y="500" on="1"/>
      </contour>
    </TTGlyph>
    <TTGlyph name="Uogonek" xMin="72" yMin="-174" xMax="662" yMax="500">
      <contour>
        <pt x="422" y="-21" on="1"/>
        <pt x="392" y="-58" on="0"/>
        <pt x="392" y="-136" on="0"/>
        <pt x="428" y="-136" on="1"/>
        <pt x="445" y="-136" on="0"/>
        <pt x="465" y="-118" on="1"/>
        <pt x="466" y="-129" on="0"/>
        <pt x="470" y="-139" on="1"/>
        <pt x="444" y="-174" on="0"/>
        <pt x="369" y="-174" on="0"/>
        <pt x="327" y="-132" on="0"/>
        <pt x="327" y="-106" on="1"/>
        <pt x="327" y="-60" on="0"/>
        <pt x="369" y="-22" on="1"/>
        <pt x="195" y="-17" on="0"/>
        <pt x="85" y="45" on="1"/>
        <pt x="72" y="153" on="0"/>
        <pt x="72" y="356" on="0"/>
        <pt x="87" y="500" on="1"/>
        <pt x="356" y="500" on="1"/>
        <pt x="316" y="283" on="0"/>
        <pt x="314" y="83" on="1"/>
        <pt x="356" y="45" on="0"/>
        <pt x="514" y="45" on="0"/>
        <pt x="556" y="73" on="1"/>
        <pt x="558" y="106" on="0"/>
        <pt x="558" y="168" on="1"/>
        <pt x="558" y="326" on="0"/>
        <pt x="530" y="500" on="1"/>
        <pt x="658" y="500" on="1"/>
        <pt x="662" y="435" on="0"/>
        <pt x="662" y="186" on="0"/>
        <pt x="646" y="45" on="1"/>
        <pt x="553" y="-15" on="0"/>
      </contour>
    </TTGlyph>
    <TTGlyph name="Uring" xMin="72" yMin="-22" xMax="662" yMax="676">
      <contour>
        <pt x="558" y="168" on="1"/>
        <pt x="558" y="326" on="0"/>
        <pt x="530" y="500" on="1"/>
        <pt x="658" y="500" on="1"/>
        <pt x="662" y="435" on="0"/>
        <pt x="662" y="186" on="0"/>
        <pt x="646" y="45" on="1"/>
        <pt x="542" y="-22" on="0"/>
        <pt x="397" y="-22" on="1"/>
        <pt x="204" y="-22" on="0"/>
        <pt x="85" y="45" on="1"/>
        <pt x="72" y="153" on="0"/>
        <pt x="72" y="356" on="0"/>
        <pt x="87" y="500" on="1"/>
        <pt x="356" y="500" on="1"/>
        <pt x="316" y="283" on="0"/>
        <pt x="314" y="83" on="1"/>
        <pt x="356" y="45" on="0"/>
        <pt x="514" y="45" on="0"/>
        <pt x="556" y="73" on="1"/>
        <pt x="558" y="106" on="0"/>
      </contour>
      <contour>
        <pt x="332" y="558" on="1"/>
        <pt x="303" y="580" on="0"/>
        <pt x="303" y="633" on="0"/>
        <pt x="360" y="676" on="0"/>
        <pt x="428" y="676" on="0"/>
        <pt x="453" y="645" on="0"/>
        <pt x="453" y="596" on="0"/>
        <pt x="399" y="553" on="0"/>
        <pt x="363" y="553" on="1"/>
        <pt x="349" y="553" on="0"/>
      </contour>
      <contour>
        <pt x="358" y="624" on="1"/>
        <pt x="358" y="582" on="0"/>
        <pt x="389" y="568" on="1"/>
        <pt x="399" y="581" on="0"/>
        <pt x="399" y="601" on="1"/>
        <pt x="399" y="641" on="0"/>
        <pt x="366" y="656" on="1"/>
        <pt x="358" y="640" on="0"/>
      </contour>
    </TTGlyph>
    <TTGlyph name="Utilde" xMin="72" yMin="-22" xMax="662" yMax="685">
      <contour>
        <pt x="658" y="500" on="1"/>
        <pt x="662" y="435" on="0"/>
        <pt x="662" y="186" on="0"/>
        <pt x="646" y="45" on="1"/>
        <pt x="542" y="-22" on="0"/>
        <pt x="397" y="-22" on="1"/>
        <pt x="204" y="-22" on="0"/>
        <pt x="85" y="45" on="1"/>
        <pt x="72" y="153" on="0"/>
        <pt x="72" y="356" on="0"/>
        <pt x="87" y="500" on="1"/>
        <pt x="356" y="500" on="1"/>
        <pt x="316" y="283" on="0"/>
        <pt x="314" y="83" on="1"/>
        <pt x="356" y="45" on="0"/>
        <pt x="514" y="45" on="0"/>
        <pt x="556" y="73" on="1"/>
        <pt x="558" y="106" on="0"/>
        <pt x="558" y="168" on="1"/>
        <pt x="558" y="326" on="0"/>
        <pt x="530" y="500" on="1"/>
      </contour>
      <contour>
        <pt x="457" y="598" on="0"/>
        <pt x="416" y="575" on="0"/>
        <pt x="357" y="575" on="0"/>
        <pt x="289" y="616" on="0"/>
        <pt x="273" y="616" on="1"/>
        <pt x="236" y="616" on="0"/>
        <pt x="207" y="583" on="1"/>
        <pt x="220" y="623" on="1"/>
        <pt x="232" y="637" on="0"/>
        <pt x="269" y="660" on="0"/>
        <pt x="312" y="660" on="0"/>
        <pt x="373" y="638" on="0"/>
        <pt x="395" y="638" on="1"/>
        <pt x="449" y="638" on="0"/>
        <pt x="494" y="685" on="1"/>
        <pt x="490" y="677" on="0"/>
        <pt x="470" y="619" on="0"/>
      </contour>
    </TTGlyph>
    <TTGlyph name="V" xMin="8" yMin="0" xMax="671" yMax="500">
      <contour>
        <pt x="429" y="341" on="1"/>
        <pt x="429" y="414" on="0"/>
        <pt x="403" y="500" on="1"/>
        <pt x="670" y="500" on="1"/>
        <pt x="671" y="485" on="0"/>
        <pt x="671" y="456" on="1"/>
        <pt x="671" y="328" on="0"/>
        <pt x="637" y="245" on="1"/>
        <pt x="545" y="205" on="0"/>
        <pt x="434" y="124" on="0"/>
        <pt x="434" y="38" on="0"/>
        <pt x="471" y="0" on="1"/>
        <pt x="220" y="0" on="1"/>
        <pt x="51" y="215" on="0"/>
        <pt x="8" y="500" on="1"/>
        <pt x="281" y="500" on="1"/>
        <pt x="285" y="317" on="0"/>
        <pt x="375" y="143" on="1"/>
        <pt x="429" y="233" on="0"/>
      </contour>
    </TTGlyph>
    <TTGlyph name="W" xMin="14" yMin="0" xMax="1030" yMax="500">
      <contour>
        <pt x="785" y="346" on="1"/>
        <pt x="785" y="424" on="0"/>
        <pt x="761" y="500" on="1"/>
        <pt x="1029" y="500" on="1"/>
        <pt x="1030" y="485" on="0"/>
        <pt x="1030" y="456" on="1"/>
        <pt x="1030" y="328" on="0"/>
        <pt x="996" y="244" on="1"/>
        <pt x="907" y="218" on="0"/>
        <pt x="789" y="132" on="0"/>
        <pt x="789" y="41" on="0"/>
        <pt x="830" y="0" on="1"/>
        <pt x="578" y="0" on="1"/>
        <pt x="516" y="92" on="0"/>
        <pt x="473" y="213" on="1"/>
        <pt x="440" y="138" on="0"/>
        <pt x="440" y="35" on="0"/>
        <pt x="469" y="0" on="1"/>
        <pt x="218" y="0" on="1"/>
        <pt x="141" y="102" on="0"/>
        <pt x="33" y="370" on="0"/>
        <pt x="14" y="500" on="1"/>
        <pt x="280" y="500" on="1"/>
        <pt x="297" y="285" on="0"/>
        <pt x="368" y="143" on="1"/>
        <pt x="419" y="230" on="0"/>
        <pt x="419" y="354" on="1"/>
        <pt x="419" y="421" on="0"/>
        <pt x="402" y="500" on="1"/>
        <pt x="640" y="500" on="1"/>
        <pt x="656" y="302" on="0"/>
        <pt x="734" y="143" on="1"/>
        <pt x="785" y="237" on="0"/>
      </contour>
    </TTGlyph>
    <TTGlyph name="Wacute" xMin="14" yMin="0" xMax="1030" yMax="680">
      <contour>
        <pt x="785" y="346" on="1"/>
        <pt x="785" y="424" on="0"/>
        <pt x="761" y="500" on="1"/>
        <pt x="1029" y="500" on="1"/>
        <pt x="1030" y="485" on="0"/>
        <pt x="1030" y="456" on="1"/>
        <pt x="1030" y="328" on="0"/>
        <pt x="996" y="244" on="1"/>
        <pt x="907" y="218" on="0"/>
        <pt x="789" y="132" on="0"/>
        <pt x="789" y="41" on="0"/>
        <pt x="830" y="0" on="1"/>
        <pt x="578" y="0" on="1"/>
        <pt x="516" y="92" on="0"/>
        <pt x="473" y="213" on="1"/>
        <pt x="440" y="138" on="0"/>
        <pt x="440" y="35" on="0"/>
        <pt x="469" y="0" on="1"/>
        <pt x="218" y="0" on="1"/>
        <pt x="141" y="102" on="0"/>
        <pt x="33" y="370" on="0"/>
        <pt x="14" y="500" on="1"/>
        <pt x="280" y="500" on="1"/>
        <pt x="297" y="285" on="0"/>
        <pt x="368" y="143" on="1"/>
        <pt x="419" y="230" on="0"/>
        <pt x="419" y="354" on="1"/>
        <pt x="419" y="421" on="0"/>
        <pt x="402" y="500" on="1"/>
        <pt x="640" y="500" on="1"/>
        <pt x="656" y="302" on="0"/>
        <pt x="734" y="143" on="1"/>
        <pt x="785" y="237" on="0"/>
      </contour>
      <contour>
        <pt x="516" y="680" on="1"/>
        <pt x="627" y="666" on="1"/>
        <pt x="613" y="639" on="0"/>
        <pt x="562" y="593" on="0"/>
        <pt x="516" y="567" on="0"/>
        <pt x="479" y="550" on="1"/>
        <pt x="413" y="550" on="1"/>
        <pt x="485" y="597" on="0"/>
      </contour>
    </TTGlyph>
    <TTGlyph name="Wcircumflex" xMin="14" yMin="0" xMax="1030" yMax="673">
      <contour>
        <pt x="419" y="354" on="1"/>
        <pt x="419" y="421" on="0"/>
        <pt x="402" y="500" on="1"/>
        <pt x="640" y="500" on="1"/>
        <pt x="656" y="302" on="0"/>
        <pt x="734" y="143" on="1"/>
        <pt x="785" y="237" on="0"/>
        <pt x="785" y="346" on="1"/>
        <pt x="785" y="424" on="0"/>
        <pt x="761" y="500" on="1"/>
        <pt x="1029" y="500" on="1"/>
        <pt x="1030" y="485" on="0"/>
        <pt x="1030" y="456" on="1"/>
        <pt x="1030" y="328" on="0"/>
        <pt x="996" y="244" on="1"/>
        <pt x="907" y="218" on="0"/>
        <pt x="789" y="132" on="0"/>
        <pt x="789" y="41" on="0"/>
        <pt x="830" y="0" on="1"/>
        <pt x="578" y="0" on="1"/>
        <pt x="516" y="92" on="0"/>
        <pt x="473" y="213" on="1"/>
        <pt x="440" y="138" on="0"/>
        <pt x="440" y="35" on="0"/>
        <pt x="469" y="0" on="1"/>
        <pt x="218" y="0" on="1"/>
        <pt x="141" y="102" on="0"/>
        <pt x="33" y="370" on="0"/>
        <pt x="14" y="500" on="1"/>
        <pt x="280" y="500" on="1"/>
        <pt x="297" y="285" on="0"/>
        <pt x="368" y="143" on="1"/>
        <pt x="419" y="230" on="0"/>
      </contour>
      <contour>
        <pt x="405" y="558" on="1"/>
        <pt x="495" y="673" on="1"/>
        <pt x="544" y="673" on="1"/>
        <pt x="634" y="558" on="1"/>
        <pt x="602" y="558" on="1"/>
        <pt x="519" y="620" on="1"/>
        <pt x="437" y="558" on="1"/>
      </contour>
    </TTGlyph>
    <TTGlyph name="Wdieresis" xMin="14" yMin="0" xMax="1030" yMax="678">
      <contour>
        <pt x="785" y="346" on="1"/>
        <pt x="785" y="424" on="0"/>
        <pt x="761" y="500" on="1"/>
        <pt x="1029" y="500" on="1"/>
        <pt x="1030" y="485" on="0"/>
        <pt x="1030" y="456" on="1"/>
        <pt x="1030" y="328" on="0"/>
        <pt x="996" y="244" on="1"/>
        <pt x="907" y="218" on="0"/>
        <pt x="789" y="132" on="0"/>
        <pt x="789" y="41" on="0"/>
        <pt x="830" y="0" on="1"/>
        <pt x="578" y="0" on="1"/>
        <pt x="516" y="92" on="0"/>
        <pt x="473" y="213" on="1"/>
        <pt x="440" y="138" on="0"/>
        <pt x="440" y="35" on="0"/>
        <pt x="469" y="0" on="1"/>
        <pt x="218" y="0" on="1"/>
        <pt x="141" y="102" on="0"/>
        <pt x="33" y="370" on="0"/>
        <pt x="14" y="500" on="1"/>
        <pt x="280" y="500" on="1"/>
        <pt x="297" y="285" on="0"/>
        <pt x="368" y="143" on="1"/>
        <pt x="419" y="230" on="0"/>
        <pt x="419" y="354" on="1"/>
        <pt x="419" y="421" on="0"/>
        <pt x="402" y="500" on="1"/>
        <pt x="640" y="500" on="1"/>
        <pt x="656" y="302" on="0"/>
        <pt x="734" y="143" on="1"/>
        <pt x="785" y="237" on="0"/>
      </contour>
      <contour>
        <pt x="462" y="576" on="1"/>
        <pt x="422" y="575" on="1"/>
        <pt x="402" y="575" on="0"/>
        <pt x="364" y="577" on="1"/>
        <pt x="389" y="636" on="0"/>
        <pt x="394" y="678" on="1"/>
        <pt x="447" y="673" on="0"/>
        <pt x="496" y="672" on="1"/>
        <pt x="484" y="618" on="0"/>
      </contour>
      <contour>
        <pt x="641" y="576" on="1"/>
        <pt x="600" y="575" on="1"/>
        <pt x="581" y="575" on="0"/>
        <pt x="543" y="577" on="1"/>
        <pt x="567" y="638" on="0"/>
        <pt x="573" y="678" on="1"/>
        <pt x="625" y="673" on="0"/>
        <pt x="675" y="672" on="1"/>
        <pt x="661" y="616" on="0"/>
      </contour>
    </TTGlyph>
    <TTGlyph name="Wgrave" xMin="14" yMin="0" xMax="1030" yMax="680">
      <contour>
        <pt x="419" y="354" on="1"/>
        <pt x="419" y="421" on="0"/>
        <pt x="402" y="500" on="1"/>
        <pt x="640" y="500" on="1"/>
        <pt x="656" y="302" on="0"/>
        <pt x="734" y="143" on="1"/>
        <pt x="785" y="237" on="0"/>
        <pt x="785" y="346" on="1"/>
        <pt x="785" y="424" on="0"/>
        <pt x="761" y="500" on="1"/>
        <pt x="1029" y="500" on="1"/>
        <pt x="1030" y="485" on="0"/>
        <pt x="1030" y="456" on="1"/>
        <pt x="1030" y="328" on="0"/>
        <pt x="996" y="244" on="1"/>
        <pt x="907" y="218" on="0"/>
        <pt x="789" y="132" on="0"/>
        <pt x="789" y="41" on="0"/>
        <pt x="830" y="0" on="1"/>
        <pt x="578" y="0" on="1"/>
        <pt x="516" y="92" on="0"/>
        <pt x="473" y="213" on="1"/>
        <pt x="440" y="138" on="0"/>
        <pt x="440" y="35" on="0"/>
        <pt x="469" y="0" on="1"/>
        <pt x="218" y="0" on="1"/>
        <pt x="141" y="102" on="0"/>
        <pt x="33" y="370" on="0"/>
        <pt x="14" y="500" on="1"/>
        <pt x="280" y="500" on="1"/>
        <pt x="297" y="285" on="0"/>
        <pt x="368" y="143" on="1"/>
        <pt x="419" y="230" on="0"/>
      </contour>
      <contour>
        <pt x="524" y="680" on="1"/>
        <pt x="555" y="597" on="0"/>
        <pt x="627" y="550" on="1"/>
        <pt x="561" y="550" on="1"/>
        <pt x="524" y="567" on="0"/>
        <pt x="478" y="593" on="0"/>
        <pt x="427" y="639" on="0"/>
        <pt x="413" y="666" on="1"/>
      </contour>
    </TTGlyph>
    <TTGlyph name="X" xMin="8" yMin="-147" xMax="731" yMax="586">
      <contour>
        <pt x="674" y="481" on="1"/>
        <pt x="642" y="473" on="0"/>
        <pt x="595" y="473" on="0"/>
        <pt x="574" y="476" on="1"/>
        <pt x="515" y="434" on="0"/>
        <pt x="432" y="339" on="1"/>
        <pt x="553" y="150" on="0"/>
        <pt x="625" y="0" on="1"/>
        <pt x="376" y="0" on="1"/>
        <pt x="335" y="88" on="0"/>
        <pt x="294" y="159" on="1"/>
        <pt x="183" y="1" on="0"/>
        <pt x="123" y="-121" on="1"/>
        <pt x="103" y="-126" on="0"/>
        <pt x="25" y="-143" on="0"/>
        <pt x="8" y="-147" on="1"/>
        <pt x="92" y="3" on="0"/>
        <pt x="259" y="217" on="1"/>
        <pt x="156" y="378" on="0"/>
        <pt x="26" y="500" on="1"/>
        <pt x="337" y="500" on="1"/>
        <pt x="360" y="451" on="0"/>
        <pt x="401" y="388" on="1"/>
        <pt x="409" y="397" on="0"/>
        <pt x="455" y="452" on="0"/>
        <pt x="481" y="480" on="0"/>
        <pt x="502" y="500" on="1"/>
        <pt x="543" y="539" on="0"/>
        <pt x="587" y="555" on="1"/>
        <pt x="604" y="560" on="0"/>
        <pt x="708" y="571" on="0"/>
        <pt x="731" y="586" on="1"/>
        <pt x="707" y="531" on="0"/>
      </contour>
    </TTGlyph>
    <TTGlyph name="Y" xMin="35" yMin="-397" xMax="716" yMax="587">
      <contour>
        <pt x="660" y="481" on="1"/>
        <pt x="626" y="473" on="0"/>
        <pt x="580" y="473" on="0"/>
        <pt x="559" y="476" on="1"/>
        <pt x="528" y="439" on="0"/>
        <pt x="478" y="315" on="0"/>
        <pt x="453" y="217" on="0"/>
        <pt x="438" y="146" on="1"/>
        <pt x="362" y="-216" on="0"/>
        <pt x="286" y="-368" on="1"/>
        <pt x="236" y="-383" on="0"/>
        <pt x="162" y="-397" on="1"/>
        <pt x="262" y="-226" on="0"/>
        <pt x="324" y="0" on="1"/>
        <pt x="117" y="0" on="1"/>
        <pt x="38" y="256" on="0"/>
        <pt x="35" y="500" on="1"/>
        <pt x="327" y="500" on="1"/>
        <pt x="306" y="407" on="0"/>
        <pt x="306" y="198" on="0"/>
        <pt x="340" y="64" on="1"/>
        <pt x="347" y="91" on="0"/>
        <pt x="381" y="226" on="0"/>
        <pt x="397" y="284" on="0"/>
        <pt x="430" y="390" on="0"/>
        <pt x="457" y="443" on="0"/>
        <pt x="477" y="476" on="1"/>
        <pt x="513" y="535" on="0"/>
        <pt x="572" y="556" on="1"/>
        <pt x="589" y="561" on="0"/>
        <pt x="693" y="572" on="0"/>
        <pt x="716" y="587" on="1"/>
        <pt x="689" y="525" on="0"/>
      </contour>
    </TTGlyph>
    <TTGlyph name="Yacute" xMin="79" yMin="-397" xMax="760" yMax="680">
      <contour>
        <pt x="704" y="481" on="1"/>
        <pt x="670" y="473" on="0"/>
        <pt x="624" y="473" on="0"/>
        <pt x="603" y="476" on="1"/>
        <pt x="572" y="439" on="0"/>
        <pt x="522" y="315" on="0"/>
        <pt x="497" y="217" on="0"/>
        <pt x="482" y="146" on="1"/>
        <pt x="406" y="-216" on="0"/>
        <pt x="330" y="-368" on="1"/>
        <pt x="280" y="-383" on="0"/>
        <pt x="206" y="-397" on="1"/>
        <pt x="306" y="-226" on="0"/>
        <pt x="368" y="0" on="1"/>
        <pt x="161" y="0" on="1"/>
        <pt x="82" y="256" on="0"/>
        <pt x="79" y="500" on="1"/>
        <pt x="371" y="500" on="1"/>
        <pt x="350" y="407" on="0"/>
        <pt x="350" y="198" on="0"/>
        <pt x="384" y="64" on="1"/>
        <pt x="391" y="91" on="0"/>
        <pt x="425" y="226" on="0"/>
        <pt x="441" y="284" on="0"/>
        <pt x="474" y="390" on="0"/>
        <pt x="501" y="443" on="0"/>
        <pt x="521" y="476" on="1"/>
        <pt x="557" y="535" on="0"/>
        <pt x="616" y="556" on="1"/>
        <pt x="633" y="561" on="0"/>
        <pt x="737" y="572" on="0"/>
        <pt x="760" y="587" on="1"/>
        <pt x="733" y="525" on="0"/>
      </contour>
      <contour>
        <pt x="362" y="680" on="1"/>
        <pt x="473" y="666" on="1"/>
        <pt x="459" y="639" on="0"/>
        <pt x="408" y="593" on="0"/>
        <pt x="362" y="567" on="0"/>
        <pt x="325" y="550" on="1"/>
        <pt x="259" y="550" on="1"/>
        <pt x="331" y="597" on="0"/>
      </contour>
    </TTGlyph>
    <TTGlyph name="Ycircumflex" xMin="79" yMin="-397" xMax="760" yMax="673">
      <contour>
        <pt x="384" y="64" on="1"/>
        <pt x="391" y="91" on="0"/>
        <pt x="425" y="226" on="0"/>
        <pt x="441" y="284" on="0"/>
        <pt x="474" y="390" on="0"/>
        <pt x="501" y="443" on="0"/>
        <pt x="541" y="509" on="0"/>
        <pt x="588" y="546" on="0"/>
        <pt x="633" y="561" on="0"/>
        <pt x="737" y="572" on="0"/>
        <pt x="760" y="587" on="1"/>
        <pt x="733" y="525" on="0"/>
        <pt x="704" y="481" on="1"/>
        <pt x="670" y="473" on="0"/>
        <pt x="624" y="473" on="0"/>
        <pt x="603" y="476" on="1"/>
        <pt x="572" y="439" on="0"/>
        <pt x="522" y="315" on="0"/>
        <pt x="497" y="217" on="0"/>
        <pt x="482" y="146" on="1"/>
        <pt x="406" y="-216" on="0"/>
        <pt x="330" y="-368" on="1"/>
        <pt x="280" y="-383" on="0"/>
        <pt x="206" y="-397" on="1"/>
        <pt x="306" y="-226" on="0"/>
        <pt x="368" y="0" on="1"/>
        <pt x="161" y="0" on="1"/>
        <pt x="82" y="256" on="0"/>
        <pt x="79" y="500" on="1"/>
        <pt x="371" y="500" on="1"/>
        <pt x="350" y="407" on="0"/>
        <pt x="350" y="198" on="0"/>
      </contour>
      <contour>
        <pt x="251" y="558" on="1"/>
        <pt x="341" y="673" on="1"/>
        <pt x="390" y="673" on="1"/>
        <pt x="480" y="558" on="1"/>
        <pt x="448" y="558" on="1"/>
        <pt x="365" y="620" on="1"/>
        <pt x="283" y="558" on="1"/>
      </contour>
    </TTGlyph>
    <TTGlyph name="Ydieresis" xMin="79" yMin="-397" xMax="760" yMax="678">
      <contour>
        <pt x="704" y="481" on="1"/>
        <pt x="670" y="473" on="0"/>
        <pt x="624" y="473" on="0"/>
        <pt x="603" y="476" on="1"/>
        <pt x="572" y="439" on="0"/>
        <pt x="522" y="315" on="0"/>
        <pt x="497" y="217" on="0"/>
        <pt x="482" y="146" on="1"/>
        <pt x="406" y="-216" on="0"/>
        <pt x="330" y="-368" on="1"/>
        <pt x="280" y="-383" on="0"/>
        <pt x="206" y="-397" on="1"/>
        <pt x="306" y="-226" on="0"/>
        <pt x="368" y="0" on="1"/>
        <pt x="161" y="0" on="1"/>
        <pt x="82" y="256" on="0"/>
        <pt x="79" y="500" on="1"/>
        <pt x="371" y="500" on="1"/>
        <pt x="350" y="407" on="0"/>
        <pt x="350" y="198" on="0"/>
        <pt x="384" y="64" on="1"/>
        <pt x="391" y="91" on="0"/>
        <pt x="425" y="226" on="0"/>
        <pt x="441" y="284" on="0"/>
        <pt x="474" y="390" on="0"/>
        <pt x="501" y="443" on="0"/>
        <pt x="521" y="476" on="1"/>
        <pt x="557" y="535" on="0"/>
        <pt x="616" y="556" on="1"/>
        <pt x="633" y="561" on="0"/>
        <pt x="737" y="572" on="0"/>
        <pt x="760" y="587" on="1"/>
        <pt x="733" y="525" on="0"/>
      </contour>
      <contour>
        <pt x="308" y="576" on="1"/>
        <pt x="268" y="575" on="1"/>
        <pt x="248" y="575" on="0"/>
        <pt x="210" y="577" on="1"/>
        <pt x="235" y="636" on="0"/>
        <pt x="240" y="678" on="1"/>
        <pt x="293" y="673" on="0"/>
        <pt x="342" y="672" on="1"/>
        <pt x="330" y="618" on="0"/>
      </contour>
      <contour>
        <pt x="487" y="576" on="1"/>
        <pt x="446" y="575" on="1"/>
        <pt x="427" y="575" on="0"/>
        <pt x="389" y="577" on="1"/>
        <pt x="413" y="638" on="0"/>
        <pt x="419" y="678" on="1"/>
        <pt x="471" y="673" on="0"/>
        <pt x="521" y="672" on="1"/>
        <pt x="507" y="616" on="0"/>
      </contour>
    </TTGlyph>
    <TTGlyph name="Ygrave" xMin="79" yMin="-397" xMax="760" yMax="680">
      <contour>
        <pt x="384" y="64" on="1"/>
        <pt x="391" y="91" on="0"/>
        <pt x="425" y="226" on="0"/>
        <pt x="441" y="284" on="0"/>
        <pt x="474" y="390" on="0"/>
        <pt x="501" y="443" on="0"/>
        <pt x="541" y="509" on="0"/>
        <pt x="588" y="546" on="0"/>
        <pt x="633" y="561" on="0"/>
        <pt x="737" y="572" on="0"/>
        <pt x="760" y="587" on="1"/>
        <pt x="733" y="525" on="0"/>
        <pt x="704" y="481" on="1"/>
        <pt x="670" y="473" on="0"/>
        <pt x="624" y="473" on="0"/>
        <pt x="603" y="476" on="1"/>
        <pt x="572" y="439" on="0"/>
        <pt x="522" y="315" on="0"/>
        <pt x="497" y="217" on="0"/>
        <pt x="482" y="146" on="1"/>
        <pt x="406" y="-216" on="0"/>
        <pt x="330" y="-368" on="1"/>
        <pt x="280" y="-383" on="0"/>
        <pt x="206" y="-397" on="1"/>
        <pt x="306" y="-226" on="0"/>
        <pt x="368" y="0" on="1"/>
        <pt x="161" y="0" on="1"/>
        <pt x="82" y="256" on="0"/>
        <pt x="79" y="500" on="1"/>
        <pt x="371" y="500" on="1"/>
        <pt x="350" y="407" on="0"/>
        <pt x="350" y="198" on="0"/>
      </contour>
      <contour>
        <pt x="370" y="680" on="1"/>
        <pt x="401" y="597" on="0"/>
        <pt x="473" y="550" on="1"/>
        <pt x="407" y="550" on="1"/>
        <pt x="370" y="567" on="0"/>
        <pt x="324" y="593" on="0"/>
        <pt x="273" y="639" on="0"/>
        <pt x="259" y="666" on="1"/>
      </contour>
    </TTGlyph>
    <TTGlyph name="Z" xMin="19" yMin="0" xMax="630" yMax="500">
      <contour>
        <pt x="396" y="67" on="1"/>
        <pt x="405" y="67" on="1"/>
        <pt x="447" y="67" on="0"/>
        <pt x="499" y="105" on="0"/>
        <pt x="510" y="153" on="1"/>
        <pt x="584" y="151" on="0"/>
        <pt x="630" y="149" on="1"/>
        <pt x="615" y="62" on="0"/>
        <pt x="590" y="0" on="1"/>
        <pt x="19" y="0" on="1"/>
        <pt x="154" y="242" on="0"/>
        <pt x="315" y="430" on="1"/>
        <pt x="291" y="435" on="0"/>
        <pt x="207" y="435" on="0"/>
        <pt x="139" y="384" on="0"/>
        <pt x="130" y="342" on="1"/>
        <pt x="53" y="347" on="0"/>
        <pt x="32" y="349" on="1"/>
        <pt x="63" y="500" on="1"/>
        <pt x="620" y="500" on="1"/>
        <pt x="443" y="308" on="0"/>
        <pt x="312" y="77" on="1"/>
        <pt x="364" y="67" on="0"/>
      </contour>
    </TTGlyph>
    <TTGlyph name="Zacute" xMin="19" yMin="0" xMax="630" yMax="680">
      <contour>
        <pt x="396" y="67" on="1"/>
        <pt x="405" y="67" on="1"/>
        <pt x="447" y="67" on="0"/>
        <pt x="499" y="105" on="0"/>
        <pt x="510" y="153" on="1"/>
        <pt x="584" y="151" on="0"/>
        <pt x="630" y="149" on="1"/>
        <pt x="615" y="62" on="0"/>
        <pt x="590" y="0" on="1"/>
        <pt x="19" y="0" on="1"/>
        <pt x="154" y="242" on="0"/>
        <pt x="315" y="430" on="1"/>
        <pt x="291" y="435" on="0"/>
        <pt x="207" y="435" on="0"/>
        <pt x="139" y="384" on="0"/>
        <pt x="130" y="342" on="1"/>
        <pt x="53" y="347" on="0"/>
        <pt x="32" y="349" on="1"/>
        <pt x="63" y="500" on="1"/>
        <pt x="620" y="500" on="1"/>
        <pt x="443" y="308" on="0"/>
        <pt x="312" y="77" on="1"/>
        <pt x="364" y="67" on="0"/>
      </contour>
      <contour>
        <pt x="315" y="680" on="1"/>
        <pt x="426" y="666" on="1"/>
        <pt x="412" y="639" on="0"/>
        <pt x="361" y="593" on="0"/>
        <pt x="315" y="567" on="0"/>
        <pt x="278" y="550" on="1"/>
        <pt x="212" y="550" on="1"/>
        <pt x="284" y="597" on="0"/>
      </contour>
    </TTGlyph>
    <TTGlyph name="Zcaron" xMin="19" yMin="0" xMax="630" yMax="669">
      <contour>
        <pt x="396" y="67" on="1"/>
        <pt x="405" y="67" on="1"/>
        <pt x="447" y="67" on="0"/>
        <pt x="499" y="105" on="0"/>
        <pt x="510" y="153" on="1"/>
        <pt x="584" y="151" on="0"/>
        <pt x="630" y="149" on="1"/>
        <pt x="615" y="62" on="0"/>
        <pt x="590" y="0" on="1"/>
        <pt x="19" y="0" on="1"/>
        <pt x="154" y="242" on="0"/>
        <pt x="315" y="430" on="1"/>
        <pt x="291" y="435" on="0"/>
        <pt x="207" y="435" on="0"/>
        <pt x="139" y="384" on="0"/>
        <pt x="130" y="342" on="1"/>
        <pt x="53" y="347" on="0"/>
        <pt x="32" y="349" on="1"/>
        <pt x="63" y="500" on="1"/>
        <pt x="620" y="500" on="1"/>
        <pt x="443" y="308" on="0"/>
        <pt x="312" y="77" on="1"/>
        <pt x="364" y="67" on="0"/>
      </contour>
      <contour>
        <pt x="294" y="554" on="1"/>
        <pt x="204" y="669" on="1"/>
        <pt x="236" y="669" on="1"/>
        <pt x="318" y="607" on="1"/>
        <pt x="401" y="669" on="1"/>
        <pt x="433" y="669" on="1"/>
        <pt x="343" y="554" on="1"/>
      </contour>
    </TTGlyph>
    <TTGlyph name="Zdotaccent" xMin="19" yMin="0" xMax="630" yMax="678">
      <contour>
        <pt x="396" y="67" on="1"/>
        <pt x="405" y="67" on="1"/>
        <pt x="447" y="67" on="0"/>
        <pt x="499" y="105" on="0"/>
        <pt x="510" y="153" on="1"/>
        <pt x="584" y="151" on="0"/>
        <pt x="630" y="149" on="1"/>
        <pt x="615" y="62" on="0"/>
        <pt x="590" y="0" on="1"/>
        <pt x="19" y="0" on="1"/>
        <pt x="154" y="242" on="0"/>
        <pt x="315" y="430" on="1"/>
        <pt x="291" y="435" on="0"/>
        <pt x="207" y="435" on="0"/>
        <pt x="139" y="384" on="0"/>
        <pt x="130" y="342" on="1"/>
        <pt x="53" y="347" on="0"/>
        <pt x="32" y="349" on="1"/>
        <pt x="63" y="500" on="1"/>
        <pt x="620" y="500" on="1"/>
        <pt x="443" y="308" on="0"/>
        <pt x="312" y="77" on="1"/>
        <pt x="364" y="67" on="0"/>
      </contour>
      <contour>
        <pt x="351" y="576" on="1"/>
        <pt x="311" y="575" on="1"/>
        <pt x="291" y="575" on="0"/>
        <pt x="253" y="577" on="1"/>
        <pt x="278" y="636" on="0"/>
        <pt x="283" y="678" on="1"/>
        <pt x="336" y="673" on="0"/>
        <pt x="385" y="672" on="1"/>
        <pt x="373" y="618" on="0"/>
      </contour>
    </TTGlyph>
    <TTGlyph name="a" xMin="61" yMin="0" xMax="690" yMax="500">
      <contour>
        <pt x="690" y="8" on="1"/>
        <pt x="690" y="0" on="1"/>
        <pt x="458" y="0" on="1"/>
        <pt x="454" y="57" on="0"/>
        <pt x="441" y="118" on="1"/>
        <pt x="379" y="55" on="0"/>
        <pt x="301" y="0" on="1"/>
        <pt x="68" y="0" on="1"/>
        <pt x="61" y="41" on="0"/>
        <pt x="61" y="176" on="0"/>
        <pt x="81" y="244" on="1"/>
        <pt x="153" y="265" on="0"/>
        <pt x="286" y="365" on="0"/>
        <pt x="316" y="423" on="1"/>
        <pt x="289" y="465" on="0"/>
        <pt x="259" y="500" on="1"/>
        <pt x="591" y="500" on="1"/>
        <pt x="690" y="285" on="0"/>
      </contour>
      <contour>
        <pt x="423" y="191" on="1"/>
        <pt x="397" y="280" on="0"/>
        <pt x="355" y="359" on="1"/>
        <pt x="308" y="221" on="0"/>
        <pt x="301" y="98" on="1"/>
        <pt x="373" y="135" on="0"/>
      </contour>
    </TTGlyph>
    <TTGlyph name="aacute" xMin="61" yMin="0" xMax="690" yMax="680">
      <contour>
        <pt x="690" y="8" on="1"/>
        <pt x="690" y="0" on="1"/>
        <pt x="458" y="0" on="1"/>
        <pt x="454" y="57" on="0"/>
        <pt x="441" y="118" on="1"/>
        <pt x="379" y="55" on="0"/>
        <pt x="301" y="0" on="1"/>
        <pt x="68" y="0" on="1"/>
        <pt x="61" y="41" on="0"/>
        <pt x="61" y="176" on="0"/>
        <pt x="81" y="244" on="1"/>
        <pt x="153" y="265" on="0"/>
        <pt x="286" y="365" on="0"/>
        <pt x="316" y="423" on="1"/>
        <pt x="289" y="465" on="0"/>
        <pt x="259" y="500" on="1"/>
        <pt x="591" y="500" on="1"/>
        <pt x="690" y="285" on="0"/>
      </contour>
      <contour>
        <pt x="423" y="191" on="1"/>
        <pt x="397" y="280" on="0"/>
        <pt x="355" y="359" on="1"/>
        <pt x="308" y="221" on="0"/>
        <pt x="301" y="98" on="1"/>
        <pt x="373" y="135" on="0"/>
      </contour>
      <contour>
        <pt x="379" y="680" on="1"/>
        <pt x="490" y="666" on="1"/>
        <pt x="476" y="639" on="0"/>
        <pt x="425" y="593" on="0"/>
        <pt x="379" y="567" on="0"/>
        <pt x="342" y="550" on="1"/>
        <pt x="276" y="550" on="1"/>
        <pt x="348" y="597" on="0"/>
      </contour>
    </TTGlyph>
    <TTGlyph name="abreve" xMin="61" yMin="0" xMax="690" yMax="680">
      <contour>
        <pt x="690" y="8" on="1"/>
        <pt x="690" y="0" on="1"/>
        <pt x="458" y="0" on="1"/>
        <pt x="454" y="57" on="0"/>
        <pt x="441" y="118" on="1"/>
        <pt x="379" y="55" on="0"/>
        <pt x="301" y="0" on="1"/>
        <pt x="68" y="0" on="1"/>
        <pt x="61" y="41" on="0"/>
        <pt x="61" y="176" on="0"/>
        <pt x="81" y="244" on="1"/>
        <pt x="153" y="265" on="0"/>
        <pt x="286" y="365" on="0"/>
        <pt x="316" y="423" on="1"/>
        <pt x="289" y="465" on="0"/>
        <pt x="259" y="500" on="1"/>
        <pt x="591" y="500" on="1"/>
        <pt x="690" y="285" on="0"/>
      </contour>
      <contour>
        <pt x="423" y="191" on="1"/>
        <pt x="397" y="280" on="0"/>
        <pt x="355" y="359" on="1"/>
        <pt x="308" y="221" on="0"/>
        <pt x="301" y="98" on="1"/>
        <pt x="373" y="135" on="0"/>
      </contour>
      <contour>
        <pt x="362" y="615" on="1"/>
        <pt x="397" y="593" on="0"/>
        <pt x="492" y="593" on="0"/>
        <pt x="530" y="626" on="1"/>
        <pt x="532" y="626" on="0"/>
        <pt x="510" y="587" on="0"/>
        <pt x="484" y="566" on="1"/>
        <pt x="451" y="538" on="0"/>
        <pt x="342" y="538" on="0"/>
        <pt x="292" y="569" on="1"/>
        <pt x="278" y="577" on="1"/>
        <pt x="283" y="607" on="0"/>
        <pt x="310" y="680" on="0"/>
        <pt x="311" y="680" on="1"/>
      </contour>
    </TTGlyph>
    <TTGlyph name="acircumflex" xMin="61" yMin="0" xMax="690" yMax="673">
      <contour>
        <pt x="81" y="244" on="1"/>
        <pt x="153" y="265" on="0"/>
        <pt x="286" y="365" on="0"/>
        <pt x="316" y="423" on="1"/>
        <pt x="289" y="465" on="0"/>
        <pt x="259" y="500" on="1"/>
        <pt x="591" y="500" on="1"/>
        <pt x="690" y="285" on="0"/>
        <pt x="690" y="8" on="1"/>
        <pt x="690" y="0" on="1"/>
        <pt x="458" y="0" on="1"/>
        <pt x="454" y="57" on="0"/>
        <pt x="441" y="118" on="1"/>
        <pt x="379" y="55" on="0"/>
        <pt x="301" y="0" on="1"/>
        <pt x="68" y="0" on="1"/>
        <pt x="61" y="41" on="0"/>
        <pt x="61" y="176" on="0"/>
      </contour>
      <contour>
        <pt x="423" y="191" on="1"/>
        <pt x="397" y="280" on="0"/>
        <pt x="355" y="359" on="1"/>
        <pt x="308" y="221" on="0"/>
        <pt x="301" y="98" on="1"/>
        <pt x="373" y="135" on="0"/>
      </contour>
      <contour>
        <pt x="284" y="558" on="1"/>
        <pt x="374" y="673" on="1"/>
        <pt x="423" y="673" on="1"/>
        <pt x="513" y="558" on="1"/>
        <pt x="481" y="558" on="1"/>
        <pt x="398" y="620" on="1"/>
        <pt x="316" y="558" on="1"/>
      </contour>
    </TTGlyph>
    <TTGlyph name="acute" xMin="35" yMin="550" xMax="249" yMax="680">
      <contour>
        <pt x="138" y="680" on="1"/>
        <pt x="249" y="666" on="1"/>
        <pt x="235" y="639" on="0"/>
        <pt x="184" y="593" on="0"/>
        <pt x="138" y="567" on="0"/>
        <pt x="101" y="550" on="1"/>
        <pt x="35" y="550" on="1"/>
        <pt x="107" y="597" on="0"/>
      </contour>
    </TTGlyph>
    <TTGlyph name="adieresis" xMin="61" yMin="0" xMax="690" yMax="678">
      <contour>
        <pt x="690" y="8" on="1"/>
        <pt x="690" y="0" on="1"/>
        <pt x="458" y="0" on="1"/>
        <pt x="454" y="57" on="0"/>
        <pt x="441" y="118" on="1"/>
        <pt x="379" y="55" on="0"/>
        <pt x="301" y="0" on="1"/>
        <pt x="68" y="0" on="1"/>
        <pt x="61" y="41" on="0"/>
        <pt x="61" y="176" on="0"/>
        <pt x="81" y="244" on="1"/>
        <pt x="153" y="265" on="0"/>
        <pt x="286" y="365" on="0"/>
        <pt x="316" y="423" on="1"/>
        <pt x="289" y="465" on="0"/>
        <pt x="259" y="500" on="1"/>
        <pt x="591" y="500" on="1"/>
        <pt x="690" y="285" on="0"/>
      </contour>
      <contour>
        <pt x="423" y="191" on="1"/>
        <pt x="397" y="280" on="0"/>
        <pt x="355" y="359" on="1"/>
        <pt x="308" y="221" on="0"/>
        <pt x="301" y="98" on="1"/>
        <pt x="373" y="135" on="0"/>
      </contour>
      <contour>
        <pt x="326" y="576" on="1"/>
        <pt x="286" y="575" on="1"/>
        <pt x="266" y="575" on="0"/>
        <pt x="228" y="577" on="1"/>
        <pt x="253" y="636" on="0"/>
        <pt x="258" y="678" on="1"/>
        <pt x="311" y="673" on="0"/>
        <pt x="360" y="672" on="1"/>
        <pt x="348" y="618" on="0"/>
      </contour>
      <contour>
        <pt x="505" y="576" on="1"/>
        <pt x="464" y="575" on="1"/>
        <pt x="445" y="575" on="0"/>
        <pt x="407" y="577" on="1"/>
        <pt x="431" y="638" on="0"/>
        <pt x="437" y="678" on="1"/>
        <pt x="489" y="673" on="0"/>
        <pt x="539" y="672" on="1"/>
        <pt x="525" y="616" on="0"/>
      </contour>
    </TTGlyph>
    <TTGlyph name="ae" xMin="41" yMin="0" xMax="971" yMax="500">
      <contour>
        <pt x="777" y="298" on="1"/>
        <pt x="869" y="292" on="1"/>
        <pt x="872" y="292" on="0"/>
        <pt x="883" y="293" on="0"/>
        <pt x="886" y="293" on="1"/>
        <pt x="839" y="206" on="1"/>
        <pt x="829" y="206" on="1"/>
        <pt x="810" y="206" on="0"/>
        <pt x="741" y="226" on="0"/>
        <pt x="726" y="226" on="1"/>
        <pt x="684" y="226" on="0"/>
        <pt x="661" y="173" on="1"/>
        <pt x="657" y="126" on="0"/>
        <pt x="655" y="76" on="1"/>
        <pt x="707" y="66" on="0"/>
        <pt x="736" y="66" on="1"/>
        <pt x="745" y="66" on="1"/>
        <pt x="788" y="66" on="0"/>
        <pt x="839" y="104" on="0"/>
        <pt x="850" y="153" on="1"/>
        <pt x="971" y="148" on="1"/>
        <pt x="956" y="62" on="0"/>
        <pt x="931" y="0" on="1"/>
        <pt x="437" y="0" on="1"/>
        <pt x="430" y="69" on="0"/>
        <pt x="420" y="118" on="1"/>
        <pt x="355" y="52" on="0"/>
        <pt x="280" y="0" on="1"/>
        <pt x="48" y="0" on="1"/>
        <pt x="41" y="42" on="0"/>
        <pt x="41" y="181" on="0"/>
        <pt x="60" y="244" on="1"/>
        <pt x="133" y="265" on="0"/>
        <pt x="267" y="365" on="0"/>
        <pt x="296" y="423" on="1"/>
        <pt x="265" y="468" on="0"/>
        <pt x="238" y="500" on="1"/>
        <pt x="970" y="500" on="1"/>
        <pt x="953" y="399" on="0"/>
        <pt x="937" y="348" on="1"/>
        <pt x="829" y="343" on="1"/>
        <pt x="838" y="370" on="0"/>
        <pt x="838" y="387" on="1"/>
        <pt x="838" y="434" on="0"/>
        <pt x="765" y="434" on="1"/>
        <pt x="734" y="434" on="0"/>
        <pt x="706" y="429" on="1"/>
        <pt x="683" y="334" on="0"/>
        <pt x="672" y="261" on="1"/>
        <pt x="712" y="298" on="0"/>
        <pt x="771" y="298" on="1"/>
      </contour>
      <contour>
        <pt x="402" y="191" on="1"/>
        <pt x="376" y="283" on="0"/>
        <pt x="335" y="358" on="1"/>
        <pt x="289" y="223" on="0"/>
        <pt x="280" y="98" on="1"/>
        <pt x="352" y="135" on="0"/>
      </contour>
    </TTGlyph>
    <TTGlyph name="agrave" xMin="61" yMin="0" xMax="690" yMax="680">
      <contour>
        <pt x="81" y="244" on="1"/>
        <pt x="153" y="265" on="0"/>
        <pt x="286" y="365" on="0"/>
        <pt x="316" y="423" on="1"/>
        <pt x="289" y="465" on="0"/>
        <pt x="259" y="500" on="1"/>
        <pt x="591" y="500" on="1"/>
        <pt x="690" y="285" on="0"/>
        <pt x="690" y="8" on="1"/>
        <pt x="690" y="0" on="1"/>
        <pt x="458" y="0" on="1"/>
        <pt x="454" y="57" on="0"/>
        <pt x="441" y="118" on="1"/>
        <pt x="379" y="55" on="0"/>
        <pt x="301" y="0" on="1"/>
        <pt x="68" y="0" on="1"/>
        <pt x="61" y="41" on="0"/>
        <pt x="61" y="176" on="0"/>
      </contour>
      <contour>
        <pt x="423" y="191" on="1"/>
        <pt x="397" y="280" on="0"/>
        <pt x="355" y="359" on="1"/>
        <pt x="308" y="221" on="0"/>
        <pt x="301" y="98" on="1"/>
        <pt x="373" y="135" on="0"/>
      </contour>
      <contour>
        <pt x="387" y="680" on="1"/>
        <pt x="418" y="597" on="0"/>
        <pt x="490" y="550" on="1"/>
        <pt x="424" y="550" on="1"/>
        <pt x="387" y="567" on="0"/>
        <pt x="341" y="593" on="0"/>
        <pt x="290" y="639" on="0"/>
        <pt x="276" y="666" on="1"/>
      </contour>
    </TTGlyph>
    <TTGlyph name="amacron" xMin="61" yMin="0" xMax="690" yMax="655">
      <contour>
        <pt x="82" y="655" on="1"/>
        <pt x="239" y="650" on="0"/>
        <pt x="475" y="650" on="0"/>
        <pt x="645" y="655" on="1"/>
        <pt x="645" y="580" on="1"/>
        <pt x="466" y="587" on="0"/>
        <pt x="250" y="587" on="0"/>
        <pt x="82" y="580" on="1"/>
      </contour>
      <contour>
        <pt x="690" y="8" on="1"/>
        <pt x="690" y="0" on="1"/>
        <pt x="458" y="0" on="1"/>
        <pt x="454" y="57" on="0"/>
        <pt x="441" y="118" on="1"/>
        <pt x="379" y="55" on="0"/>
        <pt x="301" y="0" on="1"/>
        <pt x="68" y="0" on="1"/>
        <pt x="61" y="41" on="0"/>
        <pt x="61" y="176" on="0"/>
        <pt x="81" y="244" on="1"/>
        <pt x="153" y="265" on="0"/>
        <pt x="286" y="365" on="0"/>
        <pt x="316" y="423" on="1"/>
        <pt x="289" y="465" on="0"/>
        <pt x="259" y="500" on="1"/>
        <pt x="591" y="500" on="1"/>
        <pt x="690" y="285" on="0"/>
      </contour>
      <contour>
        <pt x="423" y="191" on="1"/>
        <pt x="397" y="280" on="0"/>
        <pt x="355" y="359" on="1"/>
        <pt x="308" y="221" on="0"/>
        <pt x="301" y="98" on="1"/>
        <pt x="373" y="135" on="0"/>
      </contour>
    </TTGlyph>
    <TTGlyph name="ampersand" xMin="6" yMin="0" xMax="740" yMax="537">
      <contour>
        <pt x="108" y="433" on="1"/>
        <pt x="132" y="494" on="0"/>
        <pt x="169" y="537" on="1"/>
        <pt x="398" y="537" on="1"/>
        <pt x="435" y="492" on="0"/>
        <pt x="450" y="438" on="1"/>
        <pt x="439" y="412" on="0"/>
        <pt x="392" y="376" on="0"/>
        <pt x="377" y="364" on="0"/>
        <pt x="330" y="334" on="0"/>
        <pt x="329" y="333" on="1"/>
        <pt x="368" y="277" on="0"/>
        <pt x="438" y="214" on="1"/>
        <pt x="442" y="224" on="0"/>
        <pt x="458" y="271" on="1"/>
        <pt x="565" y="271" on="1"/>
        <pt x="543" y="216" on="0"/>
        <pt x="504" y="164" on="1"/>
        <pt x="614" y="71" on="0"/>
        <pt x="740" y="0" on="1"/>
        <pt x="459" y="0" on="1"/>
        <pt x="430" y="19" on="0"/>
        <pt x="395" y="49" on="1"/>
        <pt x="376" y="32" on="0"/>
        <pt x="334" y="0" on="1"/>
        <pt x="96" y="0" on="1"/>
        <pt x="37" y="54" on="0"/>
        <pt x="6" y="174" on="1"/>
        <pt x="57" y="245" on="0"/>
        <pt x="180" y="308" on="1"/>
        <pt x="142" y="365" on="0"/>
      </contour>
      <contour>
        <pt x="216" y="254" on="1"/>
        <pt x="199" y="236" on="0"/>
        <pt x="199" y="173" on="0"/>
        <pt x="269" y="84" on="0"/>
        <pt x="312" y="54" on="1"/>
        <pt x="333" y="70" on="0"/>
        <pt x="351" y="90" on="1"/>
        <pt x="284" y="158" on="0"/>
      </contour>
      <contour>
        <pt x="297" y="374" on="1"/>
        <pt x="321" y="391" on="0"/>
        <pt x="321" y="441" on="0"/>
        <pt x="267" y="490" on="0"/>
        <pt x="234" y="497" on="1"/>
        <pt x="256" y="430" on="0"/>
      </contour>
    </TTGlyph>
    <TTGlyph name="aogonek" xMin="57" yMin="-174" xMax="686" yMax="500">
      <contour>
        <pt x="559" y="-96" on="1"/>
        <pt x="559" y="-136" on="0"/>
        <pt x="595" y="-136" on="1"/>
        <pt x="613" y="-136" on="0"/>
        <pt x="632" y="-118" on="1"/>
        <pt x="634" y="-128" on="0"/>
        <pt x="637" y="-139" on="1"/>
        <pt x="611" y="-174" on="0"/>
        <pt x="536" y="-174" on="0"/>
        <pt x="494" y="-132" on="0"/>
        <pt x="494" y="-106" on="1"/>
        <pt x="494" y="-47" on="0"/>
        <pt x="563" y="0" on="1"/>
        <pt x="454" y="0" on="1"/>
        <pt x="450" y="57" on="0"/>
        <pt x="437" y="118" on="1"/>
        <pt x="375" y="55" on="0"/>
        <pt x="297" y="0" on="1"/>
        <pt x="64" y="0" on="1"/>
        <pt x="57" y="41" on="0"/>
        <pt x="57" y="176" on="0"/>
        <pt x="77" y="244" on="1"/>
        <pt x="149" y="265" on="0"/>
        <pt x="282" y="365" on="0"/>
        <pt x="312" y="423" on="1"/>
        <pt x="285" y="465" on="0"/>
        <pt x="255" y="500" on="1"/>
        <pt x="587" y="500" on="1"/>
        <pt x="686" y="285" on="0"/>
        <pt x="686" y="8" on="1"/>
        <pt x="686" y="0" on="1"/>
        <pt x="611" y="0" on="1"/>
        <pt x="559" y="-42" on="0"/>
      </contour>
      <contour>
        <pt x="419" y="191" on="1"/>
        <pt x="393" y="280" on="0"/>
        <pt x="351" y="359" on="1"/>
        <pt x="304" y="221" on="0"/>
        <pt x="297" y="98" on="1"/>
        <pt x="369" y="135" on="0"/>
      </contour>
    </TTGlyph>
    <TTGlyph name="aring" xMin="61" yMin="0" xMax="690" yMax="676">
      <contour>
        <pt x="81" y="244" on="1"/>
        <pt x="153" y="265" on="0"/>
        <pt x="286" y="365" on="0"/>
        <pt x="316" y="423" on="1"/>
        <pt x="289" y="465" on="0"/>
        <pt x="259" y="500" on="1"/>
        <pt x="591" y="500" on="1"/>
        <pt x="690" y="285" on="0"/>
        <pt x="690" y="8" on="1"/>
        <pt x="690" y="0" on="1"/>
        <pt x="458" y="0" on="1"/>
        <pt x="454" y="57" on="0"/>
        <pt x="441" y="118" on="1"/>
        <pt x="379" y="55" on="0"/>
        <pt x="301" y="0" on="1"/>
        <pt x="68" y="0" on="1"/>
        <pt x="61" y="41" on="0"/>
        <pt x="61" y="176" on="0"/>
      </contour>
      <contour>
        <pt x="423" y="191" on="1"/>
        <pt x="397" y="280" on="0"/>
        <pt x="355" y="359" on="1"/>
        <pt x="308" y="221" on="0"/>
        <pt x="301" y="98" on="1"/>
        <pt x="373" y="135" on="0"/>
      </contour>
      <contour>
        <pt x="378" y="558" on="1"/>
        <pt x="349" y="580" on="0"/>
        <pt x="349" y="633" on="0"/>
        <pt x="406" y="676" on="0"/>
        <pt x="474" y="676" on="0"/>
        <pt x="499" y="645" on="0"/>
        <pt x="499" y="596" on="0"/>
        <pt x="445" y="553" on="0"/>
        <pt x="409" y="553" on="1"/>
        <pt x="395" y="553" on="0"/>
      </contour>
      <contour>
        <pt x="404" y="624" on="1"/>
        <pt x="404" y="582" on="0"/>
        <pt x="435" y="568" on="1"/>
        <pt x="445" y="581" on="0"/>
        <pt x="445" y="601" on="1"/>
        <pt x="445" y="641" on="0"/>
        <pt x="412" y="656" on="1"/>
        <pt x="404" y="640" on="0"/>
      </contour>
    </TTGlyph>
    <TTGlyph name="asciicircum" xMin="13" yMin="341" xMax="415" yMax="500">
      <contour>
        <pt x="106" y="341" on="1"/>
        <pt x="13" y="341" on="1"/>
        <pt x="165" y="500" on="1"/>
        <pt x="264" y="500" on="1"/>
        <pt x="415" y="341" on="1"/>
        <pt x="323" y="341" on="1"/>
        <pt x="214" y="428" on="1"/>
      </contour>
    </TTGlyph>
    <TTGlyph name="asciitilde" xMin="29" yMin="183" xMax="432" yMax="298">
      <contour>
        <pt x="134" y="224" on="1"/>
        <pt x="80" y="224" on="0"/>
        <pt x="29" y="183" on="1"/>
        <pt x="66" y="272" on="1"/>
        <pt x="110" y="294" on="0"/>
        <pt x="170" y="294" on="1"/>
        <pt x="198" y="294" on="0"/>
        <pt x="300" y="257" on="0"/>
        <pt x="328" y="257" on="1"/>
        <pt x="381" y="257" on="0"/>
        <pt x="432" y="298" on="1"/>
        <pt x="395" y="209" on="1"/>
        <pt x="355" y="187" on="0"/>
        <pt x="291" y="187" on="1"/>
        <pt x="263" y="187" on="0"/>
        <pt x="161" y="224" on="0"/>
      </contour>
    </TTGlyph>
    <TTGlyph name="asterisk" xMin="9" yMin="134" xMax="268" yMax="384">
      <contour>
        <pt x="9" y="232" on="1"/>
        <pt x="9" y="285" on="1"/>
        <pt x="54" y="282" on="0"/>
        <pt x="99" y="282" on="1"/>
        <pt x="51" y="358" on="1"/>
        <pt x="97" y="384" on="1"/>
        <pt x="110" y="356" on="0"/>
        <pt x="138" y="302" on="1"/>
        <pt x="162" y="345" on="0"/>
        <pt x="180" y="384" on="1"/>
        <pt x="226" y="358" on="1"/>
        <pt x="194" y="310" on="0"/>
        <pt x="178" y="282" on="1"/>
        <pt x="268" y="285" on="1"/>
        <pt x="268" y="232" on="1"/>
        <pt x="237" y="235" on="0"/>
        <pt x="176" y="237" on="1"/>
        <pt x="208" y="185" on="0"/>
        <pt x="226" y="160" on="1"/>
        <pt x="180" y="134" on="1"/>
        <pt x="157" y="180" on="0"/>
        <pt x="138" y="213" on="1"/>
        <pt x="97" y="134" on="1"/>
        <pt x="81" y="142" on="0"/>
        <pt x="51" y="160" on="1"/>
        <pt x="79" y="200" on="0"/>
        <pt x="101" y="237" on="1"/>
        <pt x="41" y="235" on="0"/>
      </contour>
    </TTGlyph>
    <TTGlyph name="at" xMin="20" yMin="0" xMax="520" yMax="500">
      <contour>
        <pt x="491" y="250" on="1"/>
        <pt x="491" y="342" on="0"/>
        <pt x="362" y="472" on="0"/>
        <pt x="178" y="472" on="0"/>
        <pt x="48" y="342" on="0"/>
        <pt x="48" y="158" on="0"/>
        <pt x="178" y="29" on="0"/>
        <pt x="270" y="29" on="1"/>
        <pt x="343" y="29" on="0"/>
        <pt x="406" y="76" on="1"/>
        <pt x="426" y="55" on="1"/>
        <pt x="358" y="0" on="0"/>
        <pt x="166" y="0" on="0"/>
        <pt x="20" y="146" on="0"/>
        <pt x="20" y="354" on="0"/>
        <pt x="166" y="500" on="0"/>
        <pt x="374" y="500" on="0"/>
        <pt x="520" y="354" on="0"/>
        <pt x="520" y="250" on="1"/>
        <pt x="520" y="191" on="0"/>
        <pt x="459" y="109" on="0"/>
        <pt x="395" y="109" on="1"/>
        <pt x="318" y="109" on="0"/>
        <pt x="293" y="184" on="1"/>
        <pt x="299" y="184" on="0"/>
        <pt x="228" y="127" on="0"/>
        <pt x="223" y="126" on="1"/>
        <pt x="107" y="126" on="1"/>
        <pt x="103" y="146" on="0"/>
        <pt x="103" y="218" on="0"/>
        <pt x="113" y="247" on="1"/>
        <pt x="150" y="259" on="0"/>
        <pt x="217" y="308" on="0"/>
        <pt x="231" y="337" on="1"/>
        <pt x="217" y="358" on="0"/>
        <pt x="202" y="375" on="1"/>
        <pt x="367" y="375" on="1"/>
        <pt x="384" y="334" on="0"/>
        <pt x="416" y="179" on="0"/>
        <pt x="425" y="167" on="1"/>
        <pt x="434" y="157" on="0"/>
        <pt x="446" y="156" on="1"/>
        <pt x="468" y="156" on="0"/>
        <pt x="491" y="221" on="0"/>
      </contour>
      <contour>
        <pt x="284" y="221" on="1"/>
        <pt x="269" y="270" on="0"/>
        <pt x="250" y="304" on="1"/>
        <pt x="228" y="241" on="0"/>
        <pt x="223" y="174" on="1"/>
        <pt x="254" y="190" on="0"/>
      </contour>
    </TTGlyph>
    <TTGlyph name="atilde" xMin="61" yMin="0" xMax="690" yMax="685">
      <contour>
        <pt x="690" y="8" on="1"/>
        <pt x="690" y="0" on="1"/>
        <pt x="458" y="0" on="1"/>
        <pt x="454" y="57" on="0"/>
        <pt x="441" y="118" on="1"/>
        <pt x="379" y="55" on="0"/>
        <pt x="301" y="0" on="1"/>
        <pt x="68" y="0" on="1"/>
        <pt x="61" y="41" on="0"/>
        <pt x="61" y="176" on="0"/>
        <pt x="81" y="244" on="1"/>
        <pt x="153" y="265" on="0"/>
        <pt x="286" y="365" on="0"/>
        <pt x="316" y="423" on="1"/>
        <pt x="289" y="465" on="0"/>
        <pt x="259" y="500" on="1"/>
        <pt x="591" y="500" on="1"/>
        <pt x="690" y="285" on="0"/>
      </contour>
      <contour>
        <pt x="423" y="191" on="1"/>
        <pt x="397" y="280" on="0"/>
        <pt x="355" y="359" on="1"/>
        <pt x="308" y="221" on="0"/>
        <pt x="301" y="98" on="1"/>
        <pt x="373" y="135" on="0"/>
      </contour>
      <contour>
        <pt x="506" y="598" on="0"/>
        <pt x="465" y="575" on="0"/>
        <pt x="406" y="575" on="0"/>
        <pt x="338" y="616" on="0"/>
        <pt x="322" y="616" on="1"/>
        <pt x="285" y="616" on="0"/>
        <pt x="256" y="583" on="1"/>
        <pt x="269" y="623" on="1"/>
        <pt x="281" y="637" on="0"/>
        <pt x="318" y="660" on="0"/>
        <pt x="361" y="660" on="0"/>
        <pt x="422" y="638" on="0"/>
        <pt x="444" y="638" on="1"/>
        <pt x="498" y="638" on="0"/>
        <pt x="543" y="685" on="1"/>
        <pt x="539" y="677" on="0"/>
        <pt x="519" y="619" on="0"/>
      </contour>
    </TTGlyph>
    <TTGlyph name="b" xMin="70" yMin="0" xMax="656" yMax="500">
      <contour>
        <pt x="322" y="65" on="1"/>
        <pt x="390" y="65" on="0"/>
        <pt x="433" y="76" on="1"/>
        <pt x="415" y="187" on="0"/>
        <pt x="331" y="241" on="1"/>
        <pt x="322" y="152" on="0"/>
      </contour>
      <contour>
        <pt x="70" y="300" on="1"/>
        <pt x="70" y="405" on="0"/>
        <pt x="89" y="500" on="1"/>
        <pt x="644" y="500" on="1"/>
        <pt x="599" y="360" on="0"/>
        <pt x="472" y="297" on="1"/>
        <pt x="587" y="256" on="0"/>
        <pt x="656" y="183" on="1"/>
        <pt x="647" y="90" on="0"/>
        <pt x="613" y="0" on="1"/>
        <pt x="110" y="0" on="1"/>
        <pt x="70" y="139" on="0"/>
      </contour>
      <contour>
        <pt x="339" y="310" on="1"/>
        <pt x="388" y="323" on="0"/>
        <pt x="472" y="387" on="0"/>
        <pt x="490" y="434" on="1"/>
        <pt x="410" y="434" on="0"/>
        <pt x="360" y="429" on="1"/>
        <pt x="348" y="371" on="0"/>
      </contour>
    </TTGlyph>
    <TTGlyph name="backslash" xMin="-44" yMin="-114" xMax="434" yMax="607">
      <contour>
        <pt x="90" y="587" on="1"/>
        <pt x="266" y="183" on="0"/>
        <pt x="434" y="-114" on="1"/>
        <pt x="385" y="-114" on="0"/>
        <pt x="311" y="-96" on="1"/>
        <pt x="301" y="-94" on="1"/>
        <pt x="118" y="322" on="0"/>
        <pt x="-44" y="607" on="1"/>
        <pt x="12" y="607" on="0"/>
      </contour>
    </TTGlyph>
    <TTGlyph name="bar" xMin="30" yMin="-119" xMax="99" yMax="599">
      <contour>
        <pt x="31" y="-119" on="1"/>
        <pt x="39" y="190" on="0"/>
        <pt x="39" y="322" on="0"/>
        <pt x="30" y="599" on="1"/>
        <pt x="99" y="599" on="1"/>
        <pt x="90" y="390" on="0"/>
        <pt x="90" y="102" on="0"/>
        <pt x="99" y="-119" on="1"/>
      </contour>
    </TTGlyph>
    <TTGlyph name="braceleft" xMin="5" yMin="-114" xMax="249" yMax="605">
      <contour>
        <pt x="147" y="605" on="1"/>
        <pt x="214" y="605" on="1"/>
        <pt x="186" y="488" on="0"/>
        <pt x="171" y="260" on="0"/>
        <pt x="135" y="246" on="1"/>
        <pt x="173" y="231" on="0"/>
        <pt x="186" y="138" on="1"/>
        <pt x="202" y="11" on="0"/>
        <pt x="249" y="-114" on="1"/>
        <pt x="211" y="-109" on="0"/>
        <pt x="137" y="-94" on="1"/>
        <pt x="65" y="17" on="0"/>
        <pt x="54" y="161" on="1"/>
        <pt x="49" y="217" on="0"/>
        <pt x="28" y="234" on="1"/>
        <pt x="19" y="242" on="0"/>
        <pt x="5" y="246" on="1"/>
        <pt x="33" y="252" on="0"/>
        <pt x="44" y="286" on="1"/>
        <pt x="54" y="315" on="0"/>
        <pt x="63" y="376" on="1"/>
        <pt x="86" y="504" on="0"/>
      </contour>
    </TTGlyph>
    <TTGlyph name="braceright" xMin="5" yMin="-114" xMax="250" yMax="605">
      <contour>
        <pt x="107" y="-114" on="1"/>
        <pt x="40" y="-114" on="1"/>
        <pt x="70" y="21" on="0"/>
        <pt x="76" y="116" on="1"/>
        <pt x="81" y="232" on="0"/>
        <pt x="119" y="246" on="1"/>
        <pt x="79" y="260" on="0"/>
        <pt x="68" y="353" on="1"/>
        <pt x="49" y="493" on="0"/>
        <pt x="5" y="605" on="1"/>
        <pt x="38" y="601" on="0"/>
        <pt x="117" y="585" on="1"/>
        <pt x="181" y="488" on="0"/>
        <pt x="199" y="353" on="1"/>
        <pt x="199" y="324" on="0"/>
        <pt x="211" y="279" on="0"/>
        <pt x="216" y="272" on="1"/>
        <pt x="227" y="252" on="0"/>
        <pt x="250" y="246" on="1"/>
        <pt x="219" y="240" on="0"/>
        <pt x="208" y="206" on="1"/>
        <pt x="198" y="173" on="0"/>
        <pt x="195" y="147" on="1"/>
        <pt x="179" y="6" on="0"/>
      </contour>
    </TTGlyph>
    <TTGlyph name="bracketleft" xMin="41" yMin="-117" xMax="234" yMax="615">
      <contour>
        <pt x="199" y="-116" on="1"/>
        <pt x="179" y="-117" on="0"/>
        <pt x="41" y="-117" on="0"/>
        <pt x="41" y="-109" on="1"/>
        <pt x="62" y="115" on="0"/>
        <pt x="62" y="507" on="0"/>
        <pt x="58" y="615" on="1"/>
        <pt x="121" y="605" on="0"/>
        <pt x="234" y="605" on="1"/>
        <pt x="219" y="547" on="0"/>
        <pt x="199" y="507" on="1"/>
        <pt x="191" y="506" on="0"/>
        <pt x="167" y="506" on="1"/>
        <pt x="155" y="333" on="0"/>
        <pt x="155" y="29" on="0"/>
        <pt x="156" y="-17" on="1"/>
        <pt x="192" y="-19" on="0"/>
        <pt x="214" y="-19" on="0"/>
        <pt x="230" y="-18" on="0"/>
        <pt x="234" y="-18" on="1"/>
        <pt x="219" y="-76" on="0"/>
      </contour>
    </TTGlyph>
    <TTGlyph name="bracketright" xMin="15" yMin="-116" xMax="208" yMax="615">
      <contour>
        <pt x="183" y="61" on="1"/>
        <pt x="183" y="3" on="0"/>
        <pt x="185" y="-113" on="1"/>
        <pt x="98" y="-116" on="0"/>
        <pt x="42" y="-116" on="0"/>
        <pt x="15" y="-111" on="1"/>
        <pt x="35" y="-65" on="0"/>
        <pt x="37" y="-7" on="1"/>
        <pt x="45" y="-8" on="0"/>
        <pt x="60" y="-10" on="1"/>
        <pt x="81" y="-14" on="1"/>
        <pt x="94" y="155" on="0"/>
        <pt x="94" y="461" on="0"/>
        <pt x="93" y="506" on="1"/>
        <pt x="42" y="506" on="0"/>
        <pt x="15" y="512" on="1"/>
        <pt x="35" y="560" on="0"/>
        <pt x="37" y="615" on="1"/>
        <pt x="72" y="604" on="0"/>
        <pt x="193" y="604" on="1"/>
        <pt x="208" y="604" on="0"/>
        <pt x="208" y="605" on="1"/>
        <pt x="183" y="351" on="0"/>
      </contour>
    </TTGlyph>
    <TTGlyph name="breve" xMin="29" yMin="538" xMax="281" yMax="680">
      <contour>
        <pt x="114" y="615" on="1"/>
        <pt x="148" y="593" on="0"/>
        <pt x="244" y="593" on="0"/>
        <pt x="281" y="626" on="1"/>
        <pt x="283" y="626" on="0"/>
        <pt x="261" y="587" on="0"/>
        <pt x="235" y="566" on="1"/>
        <pt x="202" y="538" on="0"/>
        <pt x="93" y="538" on="0"/>
        <pt x="43" y="569" on="1"/>
        <pt x="29" y="577" on="1"/>
        <pt x="34" y="607" on="0"/>
        <pt x="61" y="680" on="0"/>
        <pt x="62" y="680" on="1"/>
      </contour>
    </TTGlyph>
    <TTGlyph name="brokenbar" xMin="25" yMin="-120" xMax="92" yMax="599">
      <contour>
        <pt x="25" y="323" on="1"/>
        <pt x="30" y="396" on="0"/>
        <pt x="30" y="519" on="0"/>
        <pt x="25" y="599" on="1"/>
        <pt x="92" y="599" on="1"/>
        <pt x="86" y="528" on="0"/>
        <pt x="86" y="390" on="0"/>
        <pt x="92" y="323" on="1"/>
      </contour>
      <contour>
        <pt x="25" y="-120" on="1"/>
        <pt x="30" y="-47" on="0"/>
        <pt x="30" y="77" on="0"/>
        <pt x="25" y="157" on="1"/>
        <pt x="92" y="157" on="1"/>
        <pt x="86" y="85" on="0"/>
        <pt x="86" y="-53" on="0"/>
        <pt x="92" y="-120" on="1"/>
      </contour>
    </TTGlyph>
    <TTGlyph name="bullet" xMin="5" yMin="171" xMax="177" yMax="343">
      <contour>
        <pt x="5" y="293" on="0"/>
        <pt x="56" y="343" on="0"/>
        <pt x="127" y="343" on="0"/>
        <pt x="177" y="293" on="0"/>
        <pt x="177" y="222" on="0"/>
        <pt x="127" y="171" on="0"/>
        <pt x="56" y="171" on="0"/>
        <pt x="5" y="222" on="0"/>
      </contour>
    </TTGlyph>
    <TTGlyph name="c" xMin="38" yMin="-21" xMax="602" yMax="523">
      <contour>
        <pt x="449" y="439" on="1"/>
        <pt x="414" y="445" on="0"/>
        <pt x="349" y="445" on="0"/>
        <pt x="303" y="434" on="1"/>
        <pt x="288" y="371" on="0"/>
        <pt x="288" y="311" on="1"/>
        <pt x="288" y="156" on="0"/>
        <pt x="426" y="73" on="1"/>
        <pt x="518" y="134" on="0"/>
        <pt x="592" y="225" on="1"/>
        <pt x="595" y="185" on="0"/>
        <pt x="597" y="103" on="1"/>
        <pt x="523" y="45" on="0"/>
        <pt x="369" y="-21" on="0"/>
        <pt x="254" y="-21" on="1"/>
        <pt x="231" y="-21" on="1"/>
        <pt x="141" y="18" on="0"/>
        <pt x="38" y="170" on="0"/>
        <pt x="38" y="254" on="1"/>
        <pt x="38" y="366" on="0"/>
        <pt x="222" y="523" on="0"/>
        <pt x="397" y="523" on="1"/>
        <pt x="495" y="523" on="0"/>
        <pt x="602" y="498" on="1"/>
        <pt x="586" y="435" on="0"/>
        <pt x="562" y="379" on="1"/>
        <pt x="499" y="373" on="0"/>
        <pt x="432" y="373" on="1"/>
        <pt x="442" y="401" on="0"/>
      </contour>
    </TTGlyph>
    <TTGlyph name="cacute" xMin="38" yMin="-21" xMax="602" yMax="680">
      <contour>
        <pt x="449" y="439" on="1"/>
        <pt x="414" y="445" on="0"/>
        <pt x="349" y="445" on="0"/>
        <pt x="303" y="434" on="1"/>
        <pt x="288" y="371" on="0"/>
        <pt x="288" y="311" on="1"/>
        <pt x="288" y="156" on="0"/>
        <pt x="426" y="73" on="1"/>
        <pt x="518" y="134" on="0"/>
        <pt x="592" y="225" on="1"/>
        <pt x="595" y="185" on="0"/>
        <pt x="597" y="103" on="1"/>
        <pt x="523" y="45" on="0"/>
        <pt x="369" y="-21" on="0"/>
        <pt x="254" y="-21" on="1"/>
        <pt x="231" y="-21" on="1"/>
        <pt x="141" y="18" on="0"/>
        <pt x="38" y="170" on="0"/>
        <pt x="38" y="254" on="1"/>
        <pt x="38" y="366" on="0"/>
        <pt x="222" y="523" on="0"/>
        <pt x="397" y="523" on="1"/>
        <pt x="495" y="523" on="0"/>
        <pt x="602" y="498" on="1"/>
        <pt x="586" y="435" on="0"/>
        <pt x="562" y="379" on="1"/>
        <pt x="499" y="373" on="0"/>
        <pt x="432" y="373" on="1"/>
        <pt x="442" y="401" on="0"/>
      </contour>
      <contour>
        <pt x="312" y="680" on="1"/>
        <pt x="423" y="666" on="1"/>
        <pt x="409" y="639" on="0"/>
        <pt x="358" y="593" on="0"/>
        <pt x="312" y="567" on="0"/>
        <pt x="275" y="550" on="1"/>
        <pt x="209" y="550" on="1"/>
        <pt x="281" y="597" on="0"/>
      </contour>
    </TTGlyph>
    <TTGlyph name="caron" xMin="17" yMin="554" xMax="246" yMax="669">
      <contour>
        <pt x="107" y="554" on="1"/>
        <pt x="17" y="669" on="1"/>
        <pt x="49" y="669" on="1"/>
        <pt x="131" y="607" on="1"/>
        <pt x="214" y="669" on="1"/>
        <pt x="246" y="669" on="1"/>
        <pt x="156" y="554" on="1"/>
      </contour>
    </TTGlyph>
    <TTGlyph name="ccaron" xMin="38" yMin="-21" xMax="602" yMax="669">
      <contour>
        <pt x="449" y="439" on="1"/>
        <pt x="414" y="445" on="0"/>
        <pt x="349" y="445" on="0"/>
        <pt x="303" y="434" on="1"/>
        <pt x="288" y="371" on="0"/>
        <pt x="288" y="311" on="1"/>
        <pt x="288" y="156" on="0"/>
        <pt x="426" y="73" on="1"/>
        <pt x="518" y="134" on="0"/>
        <pt x="592" y="225" on="1"/>
        <pt x="595" y="185" on="0"/>
        <pt x="597" y="103" on="1"/>
        <pt x="523" y="45" on="0"/>
        <pt x="369" y="-21" on="0"/>
        <pt x="254" y="-21" on="1"/>
        <pt x="231" y="-21" on="1"/>
        <pt x="141" y="18" on="0"/>
        <pt x="38" y="170" on="0"/>
        <pt x="38" y="254" on="1"/>
        <pt x="38" y="366" on="0"/>
        <pt x="222" y="523" on="0"/>
        <pt x="397" y="523" on="1"/>
        <pt x="495" y="523" on="0"/>
        <pt x="602" y="498" on="1"/>
        <pt x="586" y="435" on="0"/>
        <pt x="562" y="379" on="1"/>
        <pt x="499" y="373" on="0"/>
        <pt x="432" y="373" on="1"/>
        <pt x="442" y="401" on="0"/>
      </contour>
      <contour>
        <pt x="291" y="554" on="1"/>
        <pt x="201" y="669" on="1"/>
        <pt x="233" y="669" on="1"/>
        <pt x="315" y="607" on="1"/>
        <pt x="398" y="669" on="1"/>
        <pt x="430" y="669" on="1"/>
        <pt x="340" y="554" on="1"/>
      </contour>
    </TTGlyph>
    <TTGlyph name="ccedilla" xMin="38" yMin="-189" xMax="602" yMax="523">
      <contour>
        <pt x="308" y="-52" on="1"/>
        <pt x="351" y="-45" on="1"/>
        <pt x="368" y="-45" on="0"/>
        <pt x="397" y="-64" on="0"/>
        <pt x="399" y="-79" on="1"/>
        <pt x="399" y="-84" on="1"/>
        <pt x="399" y="-123" on="0"/>
        <pt x="328" y="-188" on="0"/>
        <pt x="273" y="-189" on="1"/>
        <pt x="267" y="-168" on="1"/>
        <pt x="297" y="-168" on="0"/>
        <pt x="330" y="-139" on="0"/>
        <pt x="330" y="-121" on="1"/>
        <pt x="330" y="-95" on="0"/>
        <pt x="298" y="-95" on="1"/>
        <pt x="292" y="-95" on="0"/>
        <pt x="252" y="-110" on="1"/>
        <pt x="283" y="-20" on="1"/>
        <pt x="273" y="-21" on="0"/>
        <pt x="254" y="-21" on="1"/>
        <pt x="231" y="-21" on="1"/>
        <pt x="141" y="18" on="0"/>
        <pt x="38" y="170" on="0"/>
        <pt x="38" y="254" on="1"/>
        <pt x="38" y="366" on="0"/>
        <pt x="222" y="523" on="0"/>
        <pt x="397" y="523" on="1"/>
        <pt x="495" y="523" on="0"/>
        <pt x="602" y="498" on="1"/>
        <pt x="586" y="435" on="0"/>
        <pt x="562" y="379" on="1"/>
        <pt x="499" y="373" on="0"/>
        <pt x="432" y="373" on="1"/>
        <pt x="442" y="401" on="0"/>
        <pt x="449" y="439" on="1"/>
        <pt x="414" y="445" on="0"/>
        <pt x="349" y="445" on="0"/>
        <pt x="303" y="434" on="1"/>
        <pt x="288" y="371" on="0"/>
        <pt x="288" y="311" on="1"/>
        <pt x="288" y="156" on="0"/>
        <pt x="426" y="73" on="1"/>
        <pt x="518" y="134" on="0"/>
        <pt x="592" y="225" on="1"/>
        <pt x="595" y="185" on="0"/>
        <pt x="597" y="103" on="1"/>
        <pt x="534" y="54" on="0"/>
        <pt x="408" y="-8" on="0"/>
        <pt x="320" y="-17" on="1"/>
      </contour>
    </TTGlyph>
    <TTGlyph name="ccircumflex" xMin="38" yMin="-21" xMax="602" yMax="673">
      <contour>
        <pt x="397" y="523" on="1"/>
        <pt x="495" y="523" on="0"/>
        <pt x="602" y="498" on="1"/>
        <pt x="586" y="435" on="0"/>
        <pt x="562" y="379" on="1"/>
        <pt x="499" y="373" on="0"/>
        <pt x="432" y="373" on="1"/>
        <pt x="442" y="401" on="0"/>
        <pt x="449" y="439" on="1"/>
        <pt x="414" y="445" on="0"/>
        <pt x="349" y="445" on="0"/>
        <pt x="303" y="434" on="1"/>
        <pt x="288" y="371" on="0"/>
        <pt x="288" y="311" on="1"/>
        <pt x="288" y="156" on="0"/>
        <pt x="426" y="73" on="1"/>
        <pt x="518" y="134" on="0"/>
        <pt x="592" y="225" on="1"/>
        <pt x="595" y="185" on="0"/>
        <pt x="597" y="103" on="1"/>
        <pt x="523" y="45" on="0"/>
        <pt x="369" y="-21" on="0"/>
        <pt x="254" y="-21" on="1"/>
        <pt x="231" y="-21" on="1"/>
        <pt x="141" y="18" on="0"/>
        <pt x="38" y="170" on="0"/>
        <pt x="38" y="254" on="1"/>
        <pt x="38" y="366" on="0"/>
        <pt x="222" y="523" on="0"/>
      </contour>
      <contour>
        <pt x="201" y="558" on="1"/>
        <pt x="291" y="673" on="1"/>
        <pt x="340" y="673" on="1"/>
        <pt x="430" y="558" on="1"/>
        <pt x="398" y="558" on="1"/>
        <pt x="315" y="620" on="1"/>
        <pt x="233" y="558" on="1"/>
      </contour>
    </TTGlyph>
    <TTGlyph name="cdotaccent" xMin="38" yMin="-21" xMax="602" yMax="678">
      <contour>
        <pt x="449" y="439" on="1"/>
        <pt x="414" y="445" on="0"/>
        <pt x="349" y="445" on="0"/>
        <pt x="303" y="434" on="1"/>
        <pt x="288" y="371" on="0"/>
        <pt x="288" y="311" on="1"/>
        <pt x="288" y="156" on="0"/>
        <pt x="426" y="73" on="1"/>
        <pt x="518" y="134" on="0"/>
        <pt x="592" y="225" on="1"/>
        <pt x="595" y="185" on="0"/>
        <pt x="597" y="103" on="1"/>
        <pt x="523" y="45" on="0"/>
        <pt x="369" y="-21" on="0"/>
        <pt x="254" y="-21" on="1"/>
        <pt x="231" y="-21" on="1"/>
        <pt x="141" y="18" on="0"/>
        <pt x="38" y="170" on="0"/>
        <pt x="38" y="254" on="1"/>
        <pt x="38" y="366" on="0"/>
        <pt x="222" y="523" on="0"/>
        <pt x="397" y="523" on="1"/>
        <pt x="495" y="523" on="0"/>
        <pt x="602" y="498" on="1"/>
        <pt x="586" y="435" on="0"/>
        <pt x="562" y="379" on="1"/>
        <pt x="499" y="373" on="0"/>
        <pt x="432" y="373" on="1"/>
        <pt x="442" y="401" on="0"/>
      </contour>
      <contour>
        <pt x="348" y="576" on="1"/>
        <pt x="308" y="575" on="1"/>
        <pt x="288" y="575" on="0"/>
        <pt x="250" y="577" on="1"/>
        <pt x="275" y="636" on="0"/>
        <pt x="280" y="678" on="1"/>
        <pt x="333" y="673" on="0"/>
        <pt x="382" y="672" on="1"/>
        <pt x="370" y="618" on="0"/>
      </contour>
    </TTGlyph>
    <TTGlyph name="cedilla" xMin="21" yMin="-185" xMax="168" yMax="22">
      <contour>
        <pt x="77" y="-48" on="1"/>
        <pt x="120" y="-41" on="1"/>
        <pt x="137" y="-41" on="0"/>
        <pt x="166" y="-60" on="0"/>
        <pt x="168" y="-75" on="1"/>
        <pt x="168" y="-80" on="1"/>
        <pt x="168" y="-119" on="0"/>
        <pt x="97" y="-184" on="0"/>
        <pt x="42" y="-185" on="1"/>
        <pt x="36" y="-164" on="1"/>
        <pt x="66" y="-164" on="0"/>
        <pt x="99" y="-135" on="0"/>
        <pt x="99" y="-117" on="1"/>
        <pt x="99" y="-91" on="0"/>
        <pt x="67" y="-91" on="1"/>
        <pt x="61" y="-91" on="0"/>
        <pt x="21" y="-106" on="1"/>
        <pt x="65" y="22" on="1"/>
        <pt x="101" y="22" on="1"/>
      </contour>
    </TTGlyph>
    <TTGlyph name="cent" xMin="38" yMin="-57" xMax="602" yMax="560">
      <contour>
        <pt x="38" y="253" on="1"/>
        <pt x="38" y="359" on="0"/>
        <pt x="202" y="513" on="0"/>
        <pt x="359" y="522" on="1"/>
        <pt x="362" y="534" on="0"/>
        <pt x="366" y="560" on="1"/>
        <pt x="420" y="560" on="1"/>
        <pt x="413" y="531" on="0"/>
        <pt x="412" y="523" on="1"/>
        <pt x="499" y="521" on="0"/>
        <pt x="602" y="498" on="1"/>
        <pt x="587" y="438" on="0"/>
        <pt x="562" y="378" on="1"/>
        <pt x="507" y="373" on="0"/>
        <pt x="432" y="371" on="1"/>
        <pt x="442" y="408" on="0"/>
        <pt x="448" y="439" on="1"/>
        <pt x="421" y="443" on="0"/>
        <pt x="395" y="445" on="1"/>
        <pt x="355" y="246" on="0"/>
        <pt x="338" y="147" on="1"/>
        <pt x="371" y="106" on="0"/>
        <pt x="427" y="73" on="1"/>
        <pt x="519" y="134" on="0"/>
        <pt x="591" y="225" on="1"/>
        <pt x="595" y="170" on="0"/>
        <pt x="597" y="103" on="1"/>
        <pt x="461" y="-5" on="0"/>
        <pt x="311" y="-19" on="1"/>
        <pt x="305" y="-57" on="1"/>
        <pt x="251" y="-57" on="1"/>
        <pt x="254" y="-43" on="0"/>
        <pt x="258" y="-22" on="1"/>
        <pt x="230" y="-22" on="1"/>
        <pt x="140" y="17" on="0"/>
        <pt x="38" y="168" on="0"/>
      </contour>
      <contour>
        <pt x="303" y="434" on="1"/>
        <pt x="287" y="367" on="0"/>
        <pt x="287" y="256" on="0"/>
        <pt x="305" y="209" on="1"/>
        <pt x="314" y="255" on="0"/>
        <pt x="346" y="442" on="1"/>
        <pt x="335" y="440" on="0"/>
      </contour>
    </TTGlyph>
    <TTGlyph name="circumflex" xMin="17" yMin="558" xMax="246" yMax="673">
      <contour>
        <pt x="17" y="558" on="1"/>
        <pt x="107" y="673" on="1"/>
        <pt x="156" y="673" on="1"/>
        <pt x="246" y="558" on="1"/>
        <pt x="214" y="558" on="1"/>
        <pt x="131" y="620" on="1"/>
        <pt x="49" y="558" on="1"/>
      </contour>
    </TTGlyph>
    <TTGlyph name="colon" xMin="8" yMin="-6" xMax="198" yMax="447">
      <contour>
        <pt x="165" y="92" on="1"/>
        <pt x="198" y="92" on="1"/>
        <pt x="183" y="33" on="0"/>
        <pt x="163" y="-5" on="1"/>
        <pt x="152" y="-6" on="0"/>
        <pt x="46" y="-6" on="0"/>
        <pt x="8" y="0" on="1"/>
        <pt x="28" y="45" on="0"/>
        <pt x="30" y="102" on="1"/>
        <pt x="88" y="92" on="0"/>
      </contour>
      <contour>
        <pt x="172" y="436" on="1"/>
        <pt x="198" y="436" on="1"/>
        <pt x="184" y="379" on="0"/>
        <pt x="163" y="340" on="1"/>
        <pt x="151" y="339" on="0"/>
        <pt x="36" y="339" on="0"/>
        <pt x="8" y="345" on="1"/>
        <pt x="28" y="390" on="0"/>
        <pt x="30" y="447" on="1"/>
        <pt x="90" y="436" on="0"/>
      </contour>
    </TTGlyph>
</ttFont>
